<svg id="Layer_2" data-name="Layer 2" xmlns="http://www.w3.org/2000/svg" xmlns:xlink="http://www.w3.org/1999/xlink" viewBox="0 0 450 349.34"><defs><style>.cls-1{fill:url(#New_Gradient_Swatch_1);}</style><linearGradient id="New_Gradient_Swatch_1" y1="174.67" x2="450" y2="174.67" gradientUnits="userSpaceOnUse"><stop offset="0.26" stop-color="#ec9f05"/><stop offset="1" stop-color="#ff4e00"/></linearGradient></defs><polygon class="cls-1" points="445.82 238.93 444.6 239.06 444.6 227.78 442.51 170.3 438.33 120.16 413.25 88.29 382.95 62.69 358.47 49.96 358.47 49.96 343.77 42.32 303.01 43.36 246.07 50.16 226.22 49.63 187.03 35 185.2 33.84 183.9 27.17 168.23 7.66 156.03 0 149.42 7.32 144.07 11.52 132.18 14.1 84.29 25.77 76.28 32.04 69.49 38.66 66.87 45.45 62.17 52.76 57.99 65.82 55.38 88.29 47.54 111.8 43.17 133.01 43.17 133.01 40.26 147.14 26.64 150.47 6.79 153.07 0 150.98 0 154.35 0 154.64 5.23 158.3 23.51 159.35 39.16 156.98 36.05 184.94 41.79 212.11 59.55 234.06 83.06 228.83 91.42 213.16 89.86 195.92 80.46 183.37 68.96 184.42 60.6 184.42 61.12 194.34 68.44 205.84 71.05 204.8 70.01 201.13 74.19 193.82 78.37 195.92 75.23 210.02 67.39 211.06 59.04 199.57 59.55 178.68 61.65 159.35 64.55 150.06 68.96 148.37 76.28 144.19 76.31 144.14 79.93 144.72 87.24 143.14 100.83 131.65 107.1 129.04 113.88 152.03 120.16 182.85 123.37 201.38 121.2 227.43 116.68 268.88 113.2 302.67 104.84 320.08 105.53 330.53 121.91 332.62 123.12 332.59 122.6 334.01 124.34 347.25 141.41 349.34 181.81 345.16 180.76 327.57 175.54 312.42 172.92 269.06 176.59 238.75 177.1 224.12 181.28 207.93 228.83 226.75 269.06 235.63 313.86 231.1 311.37 267.49 307.54 303.02 303.37 316.95 299.88 324.95 303.01 332.96 303.56 333.06 303.56 333.06 305.19 333.32 317.99 335.4 356.66 334.01 357.35 328.44 351.08 306.5 351.43 291.52 358.05 265.39 363.68 258.26 376.16 292.57 378.25 319.74 373.54 331.22 364.67 340.1 366.75 347.42 374.07 348.46 381.5 348.25 381.49 348.24 384.57 348.15 384.57 348.15 392.95 347.9 402.86 347.61 402.86 347.61 409.07 347.42 424.23 343.24 425.79 335.93 419.52 323.91 414.81 293.61 413.25 271.14 417.96 262.79 423.69 247.11 420.04 209.5 421.61 188.6 431.54 154.12 433.11 149.41 438.33 213.67 440.8 239.43 438.85 239.63 436.77 257.04 440.25 272.37 438.5 281.42 435.37 285.25 444.08 279.33 448.96 268.19 450 249.03 445.82 238.93"/></svg>