<svg id="Layer_2" data-name="Layer 2" xmlns="http://www.w3.org/2000/svg" xmlns:xlink="http://www.w3.org/1999/xlink" viewBox="0 0 238.89 450"><defs><style>.cls-1{fill:url(#New_Gradient_Swatch_1);}</style><linearGradient id="New_Gradient_Swatch_1" y1="225" x2="238.89" y2="225" gradientUnits="userSpaceOnUse"><stop offset="0.26" stop-color="#ec9f05"/><stop offset="1" stop-color="#ff4e00"/></linearGradient></defs><polygon class="cls-1" points="237.58 365.08 234.13 351.85 231.75 345.51 228.59 344.71 228.31 343.65 227.51 330.16 229.63 309.26 231.75 288.1 231.22 262.7 228.04 248.15 226.57 244.27 226.19 240.48 211.11 228.97 196.43 224.6 177.39 214.68 153.18 198.81 144.05 193.25 137.71 180.95 132.54 164.68 126.26 161.87 123.42 157.93 116.67 152.38 109.53 140.88 99.21 111.51 90.88 82.14 78.97 47.62 74.6 33.33 71.19 29.4 76.99 24.86 78.3 17.46 76.19 16.14 70.64 18.52 64.6 22.76 58.74 18.65 58.21 15.34 62.7 6.61 64.82 6.88 66.66 4.49 61.91 0.26 55.83 0.53 55.56 2.38 56.88 4.49 53.71 10.31 50.8 14.81 49.67 15.15 49.25 4.23 49.25 4.23 49.21 3.17 51.33 2.12 51.06 0 41.27 0.26 40.21 2.12 42.59 3.96 42.59 5 42.59 8.73 42.36 16.87 37.3 16.66 33.86 19.31 29.64 25.93 23.02 28.57 13.5 33.86 3.71 41.27 0 46.43 1.99 52.38 2.36 53.64 2.36 53.64 2.53 54.19 3.17 56.35 6.75 55.95 21.43 53.97 28.57 54.76 39.29 54.76 44.05 53.17 51.59 60.32 57.54 90.08 59.92 124.21 61.58 130.13 64.18 139.41 64.18 139.41 68.26 153.97 77.39 186.51 77.78 218.66 75 238.5 79.37 260.32 83.22 265.29 84.66 282.8 86.51 300.8 93.65 319.05 95.5 334.66 96.03 343.13 95.5 349.21 94.97 353.17 97.62 358.21 99.47 363.49 100.53 380.96 100.53 412.17 101.06 415.61 97.62 420.64 95.24 427.51 93.92 435.99 95.5 437.57 100.06 437.57 100 437.7 99.21 443.26 107.14 445.24 117.47 443.66 121.43 442.07 121.43 438.89 121.02 437.49 121.02 437.49 119.45 432.14 121.24 431.17 121.25 431.17 123.81 429.76 126.58 425 123.02 414.29 120.24 382.94 119.05 362.7 122.23 358.34 121.97 356.61 121.97 356.61 120.64 347.62 124.6 315.08 129.37 300.8 131.14 302.11 131.14 302.11 140.08 308.74 167.06 315.08 170.63 313.99 173.55 334.39 181.22 355.56 184.93 367.2 183.07 376.2 174.6 412.17 171.69 426.2 168.79 429.89 165.08 438.1 167.99 440.21 177.25 440.21 181.75 438.89 181.75 435.3 181.75 433.07 183.86 429.11 185.45 426.72 183.33 420.37 184.66 408.2 192.33 386.51 199.48 370.9 201.1 365.27 201.99 371.43 205.96 381.35 204.37 403.17 201.59 426.99 200 432.14 195.64 438.89 195.56 439.18 195.56 439.18 193.25 447.62 201.59 448.81 211.91 450 214.29 446.04 212.3 437.3 216.27 434.53 216.27 423.82 215.88 407.94 217.46 386.51 217.69 385.52 217.69 385.52 221.03 370.64 216.67 358.34 217.06 327.38 225.4 297.22 227.38 276.7 228.57 286.51 226.99 302.38 224.87 321.43 224.61 336.52 226.86 345.86 225.67 348.41 227.25 357.67 229.9 367.99 233.34 379.37 233.6 393.65 232.02 400.79 236.25 395.25 238.9 377.52 237.58 365.08"/></svg>