<svg id="Layer_2" data-name="Layer 2" xmlns="http://www.w3.org/2000/svg" xmlns:xlink="http://www.w3.org/1999/xlink" viewBox="0 0 450 401.78"><defs><style>.cls-1{fill:url(#New_Gradient_Swatch_1);}</style><linearGradient id="New_Gradient_Swatch_1" y1="225" x2="450" y2="225" gradientUnits="userSpaceOnUse"><stop offset="0.26" stop-color="#ec9f05"/><stop offset="1" stop-color="#ff4e00"/></linearGradient></defs><path class="cls-1" d="M0,422.71l.91-35.49,6.37-52.34,12.51-30.81h0l11.15-27.42L52.32,243l16.28-9h0l14.22-7.85,17.74-16.83,15-15.94-2.4-1.78v0l-3.92-2.92h0l-6-4.42-10-9.55-9.1-5.46L76,157.88v-1.35l-6.83-2.29H66l1.82-3.63,9.44-2.06.89-2.09h0L81,139.68,96.46,131l24.11-8.2,16.38-.45,13.26,3.84h0l4.05,1.16,5.88-1.72h0c.23-.06.48-.13.72-.21,4.33-1.25,9.7-2.76,12.64-3.51l.35-.09.89-.21a2,2,0,0,0,.28-.06,4.29,4.29,0,0,1,.62-.1c1.37,0,12.74-5.46,12.74-5.46l8.19-15.93,12.29-6.83,5-2.08h0l43.23-17.94,17-6.45h0l65.79-24.94,52.78-17.75,1.74,2.49h0L396.77,30l-3.65,5-9.55,5.91,2.74,4.1-5,5.92-9.56,5.46-5.91.92-8.2,7.27L344.94,75.82h0l-1.82,1.61h0l-4.21,3.72-8.58,7.57-.67.54h0l-1,.78h0l-4.27,3.48h0l-3.63,2.94-6.82,5L308,105.1l-.46,5.47-2.27,3.65-1.42-.43v0l-1.76-.52-.25.62h0l-1,2.4-2.44,6.08,1.12,2.44,1.29,2.77h0l.33.72-.69,1.87h0l-2,5.4-3.18,4.55L293,146.06l1.37,10.47a1.09,1.09,0,0,1,0,.19h0s0,.11,0,.16c0,.28.12.72.21,1.29a.68.68,0,0,0,0,.19h0c.49,3.19,1.4,9.54,1.06,10.9a5,5,0,0,1-2,2.37h0l-.06,0-.49.34-.29.19c-.09.05-.16.11-.25.15l-.19.12h0a6.8,6.8,0,0,1-.79.42v0h0l.46,4.07a5.41,5.41,0,0,1,.36.95c0,.14.06.27.09.42s.05.2.07.34l0,0c.51,3.18-.22,8.64-1,10.14a9.29,9.29,0,0,0-.41,1.08c0,.14-.09.31-.14.45-.1.33-.2.68-.31,1.06l-.13.49c-.12.46-.24.91-.35,1.38a1.68,1.68,0,0,1-.06.24c-.14.57-.26,1.15-.38,1.65h0c-.29,1.32-.48,2.31-.48,2.31s2.09,3.3,4,6.36h0l.09.16c.66,1.08,1.27,2.11,1.77,3l0,0,.62,1.1,0,.09a4.07,4.07,0,0,1,.32.66c.21.64,2.94,3.2,5.81,5.79h0c2.9,2.59,5.94,5.2,6.72,5.87l.21.18,19.28,13.7h0l4.4,3.14,7,3.43h0L354,248l4.43,1.59h0l13.13,4.73.9.31h0l11.85,4.25h0l2.37.85L420,271.64l27.75,10L450,286.2l-1.82,3.18L413.6,276.65l-11.92-3.25-3.29-.9h0l-14.25-3.89h0l-3.26-.9-12.33-3.35-7.94-.48h0l-1.88-.11-10-.59h0l-2.93-.18-3.21,6h0l-.45.83,2,4.77h0l2.14,5.24L357,294.18h0l4.93,6.55h0L364,303.5l26.84,31.38L410,346.72l4.09,5-3.64,3.18-15.92-10-22.3-14.1-22.74-28.2-15.59-11.82v0l-21.34-16.19h0l-15.84-12L275.73,253l-17.53-.39h0l-2.48-.07-8.19.91L243,248.9l-3.63,3.62-8.64,5-10.37,1-.14,0h0l-4.06.37-10.91-1.82-3.92,2.74h0l-.63.44-2.29.77h0l-3.6,1.21h0l-.93.31-5.7,1h0l-2.11.38h0l-4.93.87-9.82-1.34h0l-.19,0-1.88,2.15h0l-1.31,1.5-.69.5h0c-1.29.93-4.17,3-6.58,4.7h0c-.42.31-.81.57-1.2.83-.16.14-.33.24-.49.36h0c-.92.64-1.63,1.15-1.93,1.34a4.09,4.09,0,0,1-.68.36.67.67,0,0,0-.12.06c-1.93.92-6.94,3.07-11.76,5.12l-2.47,1h0c-.37.15-.74.33-1.1.47l-2.37,1h0l-4.7,2-6.26,3.76h0l-.57.34-.09.48h0l-1.27,6.35-5.88,7.47-1.62,2.08h0l-17.53,22.3-4.64,8.17-.3.52h0l-6.44,11.32-4.14-1h0l-1.31-.33-.63,1.09h0l-2.52,4.48h0l-2.78,4.9-.9,2.42h0l-1.27,3.46h0l-.45,1.19L73.25,369l-5.46,1.37-11.2,7.48h0l-2.44,1.61L45,396.32l-4.7,2.91h0l-.65.41-.07,0h0l-2.29,1.43h0l-12.91,8h0l-.73.44-.45.28h0l-.95.59-5.71,4.86h0L4.09,425.89Z" transform="translate(0 -24.11)"/></svg>