<svg id="Layer_2" data-name="Layer 2" xmlns="http://www.w3.org/2000/svg" xmlns:xlink="http://www.w3.org/1999/xlink" viewBox="0 0 450 324.28"><defs><style>.cls-1{fill:url(#New_Gradient_Swatch_1);}</style><linearGradient id="New_Gradient_Swatch_1" y1="225" x2="450" y2="225" gradientUnits="userSpaceOnUse"><stop offset="0.26" stop-color="#ec9f05"/><stop offset="1" stop-color="#ff4e00"/></linearGradient></defs><path class="cls-1" d="M427.44,216.3c-1.29-9-1.29-11.61,22.56-53.51-5.77-23.57-88.89,51.79-182.45,56.09-26,1.19-36.1,2.57-58-12.9,25.14,3.22,21.27-23.21,16.76-45.13s-10.44-52.32-18.7-66.4S252.72,77,283,62.86C156,70,152.79,104.76,119.91,155.05c-45.77-1.29-83,32.14-115.47,53.41-9.84,6.44-7.66,19.44,52.29,67.15C77.79,292.37,98,298.33,116.37,298c-5.83,19.39-4.28,49.09,46.09,89.1,5.78-4.33-8.94-28.81-12.73-49.79,12.72,9.4,34.7,16.5,71.82,18.14,7.88-10.75-42.8-30.5-37.61-57.16,2.44-12.53-6.18-16.23-16.74-17a148.76,148.76,0,0,0,32.66-28.94c-.65,121.85,126.36,107,106.37,93.48,6.45,1.29,50.29,1.29,62.54-8.38,1.93-5.16-23.21-8.38-35.46-24.5,6.45-1.29,60.6-20,62.54-20s6.44-9-11.61-22.57C420.34,251.76,442.26,222.74,427.44,216.3Z" transform="translate(0 -62.86)"/></svg>