<svg id="Layer_2" data-name="Layer 2" xmlns="http://www.w3.org/2000/svg" xmlns:xlink="http://www.w3.org/1999/xlink" viewBox="0 0 448.1 450"><defs><style>.cls-1{fill:url(#linear-gradient);}</style><linearGradient id="linear-gradient" x1="53.41" y1="398.74" x2="363.98" y2="88.17" gradientUnits="userSpaceOnUse"><stop offset="0.26" stop-color="#ec9f05"/><stop offset="1" stop-color="#ff4e00"/></linearGradient></defs><path class="cls-1" d="M0,90.92l1.53,20.24L16,120.33l9.17-3.44,2.27-1.4.51.45,3.14-2.11-.37-.38,2.48-1.52,25.21-6.88,3.32.32-.26.83,3.72.28.26-.76,1,.09-.77,13.37,5,47.37,17.19,59.21,0,1h0l1.47,26.87,23.68,26.74,4.2,34.77,4.21,32.47.33,21.07h0l.43,27.05L118,420.59l-9.55,10.7-6.88,15.65,31,3.06,8-3.05-1.53-12.23,6.88-6.49,8.78.77L170,425.55l-1.14-7.26,2.29-5.72L175,403l-.33-32.83h0l0-5L170,328.53l.76-37.82,5.85-13.38,19.75-3.05,26-2.29,48.9-4.21L307,253.32l21.12,14.85L343,288.41s13.37,31.71,14.13,32.86,2.29,10.7,2.29,10.7l-6.94,34.74h0L346.86,395l-10.69,10.32-1.53,4.2L331.2,413l-.21.6h0l-5.52,15.82,2.68,1.92,22.91-2.3,12.61-5v-8l-4.21-6.5.39-6.88,8-9.17-2.67-13.75,8.4-41.25,7.27-13.08.37.85,9.93,15.67-5,32.47L375.89,416l-11.46,7.25L362.65,426h0L361,428.61l-4.58,16.81,4.2,2.29L382,442.36l15.67-5.73-3.82-9.93,5.35-13.37,3.43-5,3.06-22.91.77-29.42,1.79-7.56,1.64,11.38,10.32,22.92,3.43,13.37-3.05,9.55,2.29,1.15,5.35-11.46,1.14-11.85,5-9.54,6.5,3.43V374l-4.21-4.59s-4.2-13.37-4.2-14.52,3.06-37.81,3.06-39.35,12.61-19.86,12.61-19.86l-4.59-14.89-3.06-19.87,3.06-36.29L437,173.05l-14.14-26H408.56l-.2-.38-36.29-29.42-32.85-.76L297.58,131s-22.92,5.34-24.83,5.34l-21.44-.14-1.73,0h-4.39L219.61,136h-.34l-21.77-8.4-11.32-7.54-.14-2L171.52,89l-12.68-22.4h0l-1-1.82h0L140.58,34.38l-3.47-3.26h0l-.92-.86L133.79,28h0l-1.14-1.07h0l-8.24-7.73h0l-2.27-2.13h0l-.28-.26-1.83-.3h0l-2-.3h0l-1.92-.31-.89-.14h0L91.91,12.05h-.07L81,10.31l-.7,0L70.67,0,68.38,1.63l.73,2.9h0l1.62,6.41-8.46.52-5.63,5.63-.23.22h0l-3.32,3.32L47,29l9.93,5.73,1.51.28-9.16,11.4h0l-3.81,4.75L29,65.7,12.3,77.23l-.08-1.12L9.36,79.26l.09.4-4.1,3.62ZM144.17,372.31l-.15-4.82V331.2l3.61-20.54,1.74,17.1,5.73,32.47.51,22.88h0l.25,11.12-1.15,13L145.54,413V413l-1.36-40.64Z" transform="translate(0 0)"/></svg>