<svg id="Layer_2" data-name="Layer 2" xmlns="http://www.w3.org/2000/svg" xmlns:xlink="http://www.w3.org/1999/xlink" viewBox="0 0 450 156.27"><defs><style>.cls-1{fill:url(#New_Gradient_Swatch_1);}</style><linearGradient id="New_Gradient_Swatch_1" y1="225" x2="450" y2="225" gradientUnits="userSpaceOnUse"><stop offset="0.26" stop-color="#ec9f05"/><stop offset="1" stop-color="#ff4e00"/></linearGradient></defs><path class="cls-1" d="M448.38,246.25,450,231.63l-3.17-2.76,1.2-2.38-2.52-3.36-2.85,2.13-3.39-2.94.55-2.8L437,217l-3,1.61-3.48-1.33.35-3.53-2-.94-2.1,3-3.14-1.19.42-4-3.89-1.2-2.37,3-6.81-2.6.21-3.62L409,204.78l-2.48,3.31-6.63-2.54-1.22-4.83-3-.22-1,3.64-7.22-1.2-.76-3.95-3.3-.9-1.11,4-3-.52L378,196.66l-1.85-.47-2.52,4.42-5.25-.88-.9-4.36-2.27-.55-1.68,4.1-10.91-1.83-.87-4-2.73-.4-1.74,3.58-4.23-.5-1-3.86-2.51-.36-1.37,3.65-25.1-2.95-.61-3.11-1.88-.28-1.09,3-3.35-.4-13.61-4,0-2.44-2-1.14-2,2.4-16.36-4.84-5.57-1.23-.69-2.46-2-.72-1,2.36-7.22-1.59-.2-2-1.63-.66L252.45,177l-2.35-.51.05-2.38-1.41-.63L247.62,176l-11-2.42-.37-2.48-2.64-1-1.7,2.45-4.57-1-2.81-.25-.6-2.39-1.86-.48-1.5,2.53-3.32-.29-.78-3.48-2.31-.33-1.6,3.41-5-.43-.54-4.22-3.75-.76-2.16,4.42-4.37-.37L194.63,164l-3.27.37-1.24,3.91-2.29-.2-1.06.17-1.62-3.91-2.6.26-.09,4.34-1.74.27-2.16-3.68-1.95.14.29,4.15-1.7.27-2.61-3.28-3.3.59-.38,3.7-2.2.35-.9-3.69-3.51.56-.89,4-.44.17-3.65-3.81-3,1.7-.54,4.92-6.16,2.39-11.7-1.43-2-4.82-3.91-.57-2.86,4.31-4.86-.61-1.64-2.19L105.15,169l-5-5-4.64.46-3.51.64-10-6-3.88,1.15-3.89,3.16-5.51.62-27.1-6.19-24.45-6.68-2-4.27-8.35.5-4.09,6.56-1.3,10.41h0L1,168.23l4.24,3L5,176l1,3.35,1.32-.23.75-3.76.58-2.48,2,0L10.6,176l.74,3.76,1.54-.22.63-4.4.56-2.26,3.36,0-.08,2.41,1,2.07,1.17-.68L20.94,173l3.25,2.38-1.06,2.82.15,3.45,1.32-.24,2-4.16,2.72,2.08-.73,2.45.05,4.07.42,1.57,1.32-.25.51-3.56,1.25-2.12,2.91,2.22-.42,2.16.12,5.15,1.16,3.81,1.2-.9,1-5.21,1.25-3.07,3.36.31,5.13-.12L47.64,188l1,3.78,1.38-.66.54-3.77.5-1.53,3.73-.08,3.47,2-.65,2.73.56,3.51,1.32-.23.94-3.51.54-.92,2.25,1.32,4.6,2.56-.35,1.7.2,4.53,1.26.18.93-3.51.93-1.25,3.54,2,1.13,0-.15,1.55,1,3.15,1.38-.66.87-4,2.83.06,6.14-.4-.06,1.86,1.67,3.23,1.23-1.1.78-4.23,3.8-.25,5.91.57-.69,6.75.85,2.54-6.91-.13-8.22,2-6.84,2.87-.62-.09a2.8,2.8,0,0,0-.61,0l-.83-2L76.47,205l-1.68-.24-1.06,4.35.55,2.28c-3,.6-6.43,1.37-6.43,1.37l-2,.12L65,211.46l-1-3.78-1.47-.2-.58,4,.39,1.59-1.92.12-7.38-.86-.5,0-.6-1.26-1.88-4.76-1.47-.22-.16,4.05.64,2.41-3.37.19-1.93.31-1.1-1.6-2.5-6.36-1.78.39-.33,5.31.51,3.09-2.74.44-5.68,0-2.37-5-1.65-4.95-1.65-.45-.48,1.86.8,8.74-7.77,1-2.49.07-1.73-5-1.07-5.94-1.92-.06-.58,7,.79,4.38-1.85.74-2.9-7.41-1.25-.17-.28,6.38.88,3.64L.33,222.41,0,228.64l7.11,4.17,23.13,9.9,19.7,8,11.8-.58,11.19-2.38,17,1,14.63,5.54,14.11-.82,6.84-1.87L128,247.4l8.76,1.27,15.13.37-.54,1.46,10.83,2.13-4.76,3.31L148,260l-3.36,5.52,0,3.71.36.12-2.2,4.76,2.11,1.16,4.16-4.57,3.71,1.23-2.43,5.27,2.67,1.24,4.69-4.87,4.16,1.39-1.14,5.46,2.72.95,3.48-5,4.14,1.1-1.26,5.4,2.24.32,3.52-6.17,2-.46,2.17-2.42h0l.55-.62,1.27.05h0l14.65.54,14.32-4.22,5.84-2.87,1.69-4.67,30.46-.4,50.79-3.52,11.2-1.72-.08,1.33-.2.47h0l-3.12,7.61,3.07,1.52.31,6.26,3.17.24,1.25-4.15,4,2,0,3.13,3.69-.33.45-2.69,4.12-.09.73,4.62,2.49.58.88-5.28,4.35-.09.41,4.89,2.73.4,1.48-5.4,3.59-.08.94-6.51a6.22,6.22,0,0,1-1.36-.74,1,1,0,0,1-.19-.17,1.34,1.34,0,0,1-.11-.14l0-.06a.32.32,0,0,1,0-.21c.08-.63,1.2-6.89,1.2-6.89L341.54,252l3.93-.6,17.59-3.17,37.34,6.53,5.46,2.37-2,.91.5,4.58-3.94,1.74-2-2.81-2.91.86v4l-4.72,1.68-2.2-2.2-1.83.8L385.35,270l-4.43,1.56-1.44-2.07-2.25.75-1.92,3.32-5.25,1.85-34.67,4.21-34.49,5.95-7,5.41.72,4L329.09,298l43,5.13,29.16-4.57,30.07-2.09L441,285.24,444.23,275l3.82-26.39.09-.11.24-2.21v0Zm-39.55,12.14,2.53,1.09-1,.45Z" transform="translate(0 -146.87)"/></svg>