<svg id="Layer_2" data-name="Layer 2" xmlns="http://www.w3.org/2000/svg" xmlns:xlink="http://www.w3.org/1999/xlink" viewBox="0 0 450 435.31"><defs><style>.cls-1{fill:url(#New_Gradient_Swatch_1);}</style><linearGradient id="New_Gradient_Swatch_1" y1="225" x2="450" y2="225" gradientUnits="userSpaceOnUse"><stop offset="0.26" stop-color="#ec9f05"/><stop offset="1" stop-color="#ff4e00"/></linearGradient></defs><path class="cls-1" d="M450,306.62l-29.38-14.15-12-.35-6.2-21.69.36-2.05h0l.88-5.05h0l2-11.67V219.82l-5.72-27.74-1.9-6.82-1.32-4.76h0L382,127.6,361.58,99,341.65,81.68l0,0h0l-24.11-21-26.07-4.19-2.35-.39h0L271.8,53.32H213l-20.41,2.45-9.3,5h0L177,64.24h0l-2.13,1.15L162.42,72.1l-5.93,3.18h0l-12,6.43,2.42-14.51L144.2,27.48,135,11.69l-8.66-3.84h0l-1.14-.5L105,12.25l-8.71,18-12,14.69-14.15,12L65.3,69.37,62,74.55h0l-.52.82-7.08,3.26-4.24,8h0l-.66,1.24-8.16,4.91-14.7,7.62-16.32,8.69-2.95,8.35h0l-.32.91,2.69,8.75h0l1.66,5.39.48.41h0l17.48,14.83L62,162.43l27.75,14.14,11.43,3.26,10.34-4.89.54-.81,24.49,10.06,2.44,2L130.59,188l-18,8.15L95,208.34,93.6,207l-14.7,2.17L65.84,211.4l-6.53,9.24.1.44h0l.72,2.94-8.43,2.61-21.22,2.18L7.62,226.63,0,254.38l2.15.31h0l35.93,5.15h28.3L84.89,256l16.86,6-.24.41h0L94.68,274,81.62,290.84,89.24,293,106.1,280.5l14.16-12,21.22,3.81,15.77,5.13v.85l4.91,6.53,6.52,2.19-1.63-5.45,0-.39,5.82,2.71,4.49,7.47,4.89,1.64-1.47-5.42,6.92,3.24L228,305l14.93,3.9-.77,13.51,6,1.63,10.62-11,4.61,1.2,40.81,3.27,33.74,3.81,7.81-1.13,9.6,31.6.54,33.19-8.16,15.79-17.95,12-18.5-2.19-13.61-6-4.9-20.13,2.18-22.85,13.6-5.44,13.06,1.63,12,12.51,1.64,12.52L327,394.23l-9.79,1.63-6.54-7.62-2.71-9.8,3.81-4.35,3.8.55-2.17,5.16,7.35,8.17,4.9-2.45,3.26-7.35-8.16-12.24-13.06-1.64L299.55,370v18.76l4.89,13.06,13.87,4.9,15.51-1.63,14.7-13.06,4.08-18.78-5.72-19.59-18.77-22.85H302l-32.64,13.06-9,43.26,9.8,26.11,31,22.05,31,7.34,23.67-5.72,34.28-28.56,2.53-2.81h0l18.7-20.86,8.16-24.49v-20.4l0-.09h0l-1.7-8.09-.55-2.65h0l-3.5-16.71,28.63,9,2.3-4.45h0ZM106.94,226.46l.8-2-1-1.63h21.09l26.67-7.08,11.88-7.91,5,3.8-.58,12.82,1.63,15.24-8.71,7.62-1.84,2.77-47.13-18Zm82.83,34.35,7.21-2.62,1.5-7h0l.13-.64,8.7-16.87.7-3.63,19.44,7.44,32.17,5.14-2.25,4.66-6.52,15.77-23.94,6,.27,3.55-32.93-10.09Zm80.72,26.53.49-6.84L287.85,262l9.48-17.44.86,0,5.67,3.52,1.94,9,10.89,8.17,9.59,3.33,6.73,9.72,3.16,10.4-26,3.21-35.92-1.64Z" transform="translate(0 -7.35)"/></svg>