<svg id="Layer_2" data-name="Layer 2" xmlns="http://www.w3.org/2000/svg" xmlns:xlink="http://www.w3.org/1999/xlink" viewBox="0 0 450 289.88"><defs><style>.cls-1{fill:url(#New_Gradient_Swatch_1);}</style><linearGradient id="New_Gradient_Swatch_1" y1="225" x2="450" y2="225" gradientUnits="userSpaceOnUse"><stop offset="0.26" stop-color="#ec9f05"/><stop offset="1" stop-color="#ff4e00"/></linearGradient></defs><path class="cls-1" d="M443.85,321.3l-20.61-12-8.28.2L412.88,311l-.48,1.16-28.83-26.71-15.28-35L357.7,215.69h0l-3.32-10.9-19.22-26.25-14.92-12.79-24.49-12.06-10.08-1.1-29.77,3.15-31,.83-53.61-2.7h-.18l-8.25-4.19-6.92-8.34-7.73-5-12.58-12.76-19.81-17.73L97.05,85.57,86.86,80.85h0l-1.68-.79L66.54,82.51,36.72,91.62l-3.4,6.19L31.2,105.3l3.85,5.2-5.74,5.9-7.81,7.19-1.82,3.09L.27,144.27,0,146.86l3.6,4.93L6.65,157l2.9,1.9-.39-.07,1,1.36,1,0,.65,2,3.7,7,3.88-.22,9-3.95h0l1.61-.7h0l3.63-1.59,6.41,8.32L40,178.82l.87,23-.08.34h0l-1.25,5.08,3.09,1.83,4.94-2,4.07,8.82,1,6.48,3.86,2.35,3.62,1.57-1.85,4.14-.3,5.42,1.56-1.79,2.6,0,.22,5.94,2,5.19,1.83-1.28,3.87.29,2.55,7.51,10.73,17.93,5.91,5,5.63,10.12.86,23.8.58,29L93.19,344l-8.84,5.38-8.86,9.51.24,3.63,5.37.44h0l1.35.11,1.27,2.34,24.32.17,9.33-2.78.48-6.21,13.53.1,6.76-4.1L139.5,342l4.69-3.84.59-10.34L142,320.5l-.34-25.61,4.23-15.48,15.28.1,17.31,3,9.58-1.23,4.19-6.17,9.82-1.23,20.48-5.55,21.79-9.16,17.38-5.83,17.31,4,6.42,5.31h0l.51.43,8.39,22.31,6.31,20.73L316,326.62l.22,6.22-21.61,20.54-6.47.21-3.87-1.32-5.45,3.58-3.12,1-1,1.25h0l-2.85,3.71h0l-1.14,1.47-1.31,3.36,14.21,2.68,11.89.6,15.8-4.29,16.95-17.47,18-20.05-4.58-12.71L341,304.34,348.69,315l4.56,14.52-9.17,18-6,1.52-5.95.22-5.69,1-3.92,5.4-1.86,7,11.11,2.15,18.1-.14,10.66-5.35L369,333.45l9.63-8.2,1.6-7-3.58-7-11.24-19.22-12.93-39.92.14-19.41-1.15-13.56,10.1,29.4L367,263.33h0l7.76,21,20.29,20.07,15.38,12.42L410,318l7.69,10.92,9,3.17,12.18-1.73,11.12-.44Z" transform="translate(0 -80.06)"/></svg>