<svg id="Layer_2" data-name="Layer 2" xmlns="http://www.w3.org/2000/svg" xmlns:xlink="http://www.w3.org/1999/xlink" viewBox="0 0 217.53 450"><defs><style>.cls-1{fill:url(#New_Gradient_Swatch_1);}</style><linearGradient id="New_Gradient_Swatch_1" x1="116.24" y1="225" x2="333.76" y2="225" gradientUnits="userSpaceOnUse"><stop offset="0.26" stop-color="#ec9f05"/><stop offset="1" stop-color="#ff4e00"/></linearGradient></defs><path class="cls-1" d="M331.34,347.28l-11,1.72-5.85,4.49L304,357.54l-1.86-7.38,2.76-2.3-4.14-9.67s-11-46.93-11-48.31,1.84-6,1.84-6l-4.6-11.51L279.12,248,259.8,205.22l2.3-3.23-13.82-13.34.47-3.68-7.82-8.28-6.44-8.28L228,150.92l-2.76-9.2-10.7-18.52,5.18,1,19.78,3.22,12-4.6-1.38-3.22s-9.66-.46-11-.46-14.27-1.84-15.65-1.84-15.18-3.68-15.18-3.68l-5.46,1-.08,0,4.16-2.38,10.11-.46,13.36.92,16.55-5.52,14.27-7.36,5.07-8.75-.33-.16h0l-2.44-1.22L258,95.25l-12,4.14-12-.93h-16.1l-9.2.93,5.06-3.69L229,88.34,248.75,81l11.05-11.5.9-11h-3.21l-4.6,7.82-9.66,4.14-17,6.44-14.11,3,10-16.31,6-15.65,2.31-19.32-3.62-5.61h0l-.53-.83-4.6-1.38.46,8.28-4.6,20.24-10.12,17-8.74,12L194.37,83l.09-.14,7.82-15.64S205.5,54.76,206,53.37s1.85-13.8,1.85-13.8l.46-17.48-2.76-9.21-3.69-2.76.47,4.6,1.38,14.73L200,53.83l-6.9,17.49-8.28,8.74L181,84.39l-.36-.19-8.28,10.13-1.78,1.59,2.28-4.82,7.36-9.2,6.91-9.66L192.62,58l1.84-14.26-.93-16.1L191.24,8.74,187.1,0l-1.19.32h0L182,1.38l2.3,4.14,1.38,14.73L184.79,35l-4.6,21.16-5.52,10.59L166.37,78,165,74.54l-1,.83,3.26-5.89,6-15.19,1.84-22.08L170.06,17,160,3.68l-5.07-.46.46,6.44,6,8.75,3.21,8.74L164,33.08l-.78-3.63-9.66,35.42-7.36,15.65L133.26,98.46l-3.22,12,2.76,14.72,1.2,1.33-10,8.8-7.36,16.1L116.24,168l5.05,10.12,3.68,4.14,1.75-1.16h0l1-.68-3.69-6.9,2.35-9.37,2.72,7.07,6.44,5.06,5.5,1-.9,3.6,1.85,11-12.43,20.71,3.22,46.93L153,306l9.66,9.66,3.69,16.45,1.63,2.22.1,3.65,1.72,10.35,3.43,3.75.36,2.12,4.49,8.28,4.14,6.21.44,1.6-.09.13-7.25,1-5.17,1-5.52,2.76-7.25,3.45-7.6,5.18-5.46,5.45,9.6.76-13.11-1-14.5-.35,1.39,16.91,4.83,2.41h13l.83,4.14,6.22,3.46.54-.6,2.56,1.29,5.17-2.08,1.75-3.74,6.2,1,13.11-3.11,10-3.45L204.69,397l.13-.06.63.56,1,3.64L204,407.32l-1.38,4.15,5.17-2.07,3.11-6.22.81-4.09,2.63.3,1.22-4.89,1.54-.29,9-4.14,14.18-3.3c.33,1.57.57,2.68.66,3,.45,1.38,9.2,28.06,10.11,29.91s9.68,17.48,9.68,17.48l7.36,2.76,12.41,7.82,13.35,2.3,9.67-7.36,7.82-5.06,3.22-1.85L310,425.16l-7.37-19.33-7.06-21.58.61-2.35,8.3,3.69,5.52-2.31-2.57-11.15,15.34-7.25,10-1,1-8.63ZM185,375.58l6.21-1,.88-2.47,1.53-.29,3.45-7.93,3.8-7.6.35-2.95,2.41-1.53-.49-4.12,22.57,12.17L237,369.9c.14.72.29,1.54.46,2.39l-7.24-2.58-10,1.38-12.42,2.76-11,2.42-5.26,2.85-1.65-.09-6.21-1-2.76-1Zm-10.19,9.83-9,2.42-3.46.65,11.92-5s2.14.48,4.6,1.06ZM158.1,411.47l-2.24-.52h0l-.32-1.58,4.17.66Z" transform="translate(-116.24)"/></svg>