<svg xmlns="http://www.w3.org/2000/svg" xmlns:xlink="http://www.w3.org/1999/xlink" viewBox="0 0 1920 1080"><defs><style>.cls-1{isolation:isolate;}.cls-10,.cls-11,.cls-12,.cls-13,.cls-14,.cls-15,.cls-16,.cls-17,.cls-18,.cls-19,.cls-2,.cls-20,.cls-21,.cls-22,.cls-23,.cls-24,.cls-25,.cls-26,.cls-27,.cls-28,.cls-29,.cls-3,.cls-30,.cls-31,.cls-32,.cls-33,.cls-34,.cls-35,.cls-36,.cls-37,.cls-38,.cls-39,.cls-4,.cls-40,.cls-41,.cls-42,.cls-43,.cls-44,.cls-45,.cls-46,.cls-47,.cls-48,.cls-49,.cls-5,.cls-50,.cls-51,.cls-52,.cls-53,.cls-54,.cls-55,.cls-56,.cls-57,.cls-58,.cls-59,.cls-6,.cls-60,.cls-61,.cls-62,.cls-63,.cls-64,.cls-65,.cls-66,.cls-67,.cls-68,.cls-69,.cls-7,.cls-71,.cls-72,.cls-73,.cls-74,.cls-75,.cls-76,.cls-77,.cls-78,.cls-79,.cls-8,.cls-80,.cls-81,.cls-82,.cls-83,.cls-84,.cls-85,.cls-86,.cls-87,.cls-88,.cls-89,.cls-9,.cls-90,.cls-91,.cls-92,.cls-93,.cls-94{fill-rule:evenodd;}.cls-2{fill:url(#Áåçûìÿííûé_ãðàäèåíò_256);}.cls-3{fill:#e8e8fe;}.cls-12,.cls-16,.cls-3,.cls-7,.cls-76,.cls-81,.cls-82{mix-blend-mode:soft-light;}.cls-4{fill:#ffb887;}.cls-5{fill:#e5975f;}.cls-6{fill:url(#Áåçûìÿííûé_ãðàäèåíò_568);}.cls-7{fill:#e8e8d3;}.cls-8,.cls-86{fill:#de895f;}.cls-14,.cls-15,.cls-44,.cls-45,.cls-46,.cls-70,.cls-8,.cls-86,.cls-92{mix-blend-mode:multiply;}.cls-11,.cls-13,.cls-20,.cls-8{opacity:0.2;}.cls-16,.cls-9{fill:#ffc782;}.cls-10{fill:url(#Áåçûìÿííûé_ãðàäèåíò_471);}.cls-11,.cls-74,.cls-79,.cls-80{fill:#54193b;}.cls-12{fill:#ff6118;}.cls-12,.cls-16,.cls-25,.cls-44,.cls-45,.cls-69,.cls-80,.cls-82{opacity:0.5;}.cls-13{fill:#a5433b;}.cls-14,.cls-15,.cls-46,.cls-91{opacity:0.3;}.cls-14{fill:url(#Áåçûìÿííûé_ãðàäèåíò_345);}.cls-15{fill:url(#Áåçûìÿííûé_ãðàäèåíò_345-2);}.cls-17{fill:#d6633b;}.cls-18{fill:#ffb854;}.cls-19{opacity:0.31;fill:url(#Áåçûìÿííûé_ãðàäèåíò_288);}.cls-20,.cls-25,.cls-49,.cls-50{fill:#9d2629;}.cls-21{opacity:0.23;fill:url(#Áåçûìÿííûé_ãðàäèåíò_288-2);}.cls-22,.cls-23,.cls-24,.cls-93,.cls-94{mix-blend-mode:screen;}.cls-22{fill:url(#Áåçûìÿííûé_ãðàäèåíò_17);}.cls-23{fill:url(#Áåçûìÿííûé_ãðàäèåíò_7);}.cls-24{fill:url(#Áåçûìÿííûé_ãðàäèåíò_17-2);}.cls-26{fill:url(#Áåçûìÿííûé_ãðàäèåíò_407);}.cls-27{fill:url(#Áåçûìÿííûé_ãðàäèåíò_407-2);}.cls-28{fill:url(#Áåçûìÿííûé_ãðàäèåíò_407-3);}.cls-29{fill:url(#Áåçûìÿííûé_ãðàäèåíò_406);}.cls-30{fill:url(#Áåçûìÿííûé_ãðàäèåíò_406-2);}.cls-31{fill:url(#Áåçûìÿííûé_ãðàäèåíò_406-3);}.cls-32{fill:url(#Áåçûìÿííûé_ãðàäèåíò_405);}.cls-33{fill:url(#Áåçûìÿííûé_ãðàäèåíò_405-2);}.cls-34{fill:url(#Áåçûìÿííûé_ãðàäèåíò_47);}.cls-35{fill:url(#Áåçûìÿííûé_ãðàäèåíò_23);}.cls-36{fill:url(#Áåçûìÿííûé_ãðàäèåíò_23-2);}.cls-37{fill:url(#Áåçûìÿííûé_ãðàäèåíò_53);}.cls-38{fill:url(#Áåçûìÿííûé_ãðàäèåíò_2);}.cls-39{fill:url(#Áåçûìÿííûé_ãðàäèåíò_2-2);}.cls-40{fill:url(#Áåçûìÿííûé_ãðàäèåíò_47-2);}.cls-41{fill:#b57c15;}.cls-42{fill:#dbc2ab;opacity:0.14;}.cls-43{fill:url(#Áåçûìÿííûé_ãðàäèåíò_571);}.cls-44{fill:url(#Áåçûìÿííûé_ãðàäèåíò_345-3);}.cls-45{fill:url(#Áåçûìÿííûé_ãðàäèåíò_345-4);}.cls-46{fill:url(#Áåçûìÿííûé_ãðàäèåíò_345-5);}.cls-47{fill:url(#Áåçûìÿííûé_ãðàäèåíò_571-2);}.cls-48{fill:url(#Áåçûìÿííûé_ãðàäèåíò_571-3);}.cls-49{opacity:0.47;}.cls-51{fill:url(#Áåçûìÿííûé_ãðàäèåíò_170);}.cls-52{fill:url(#Áåçûìÿííûé_ãðàäèåíò_165);}.cls-53{fill:url(#Áåçûìÿííûé_ãðàäèåíò_165-2);}.cls-54{fill:url(#Áåçûìÿííûé_ãðàäèåíò_127);}.cls-55{fill:url(#Áåçûìÿííûé_ãðàäèåíò_136);}.cls-56{fill:url(#Áåçûìÿííûé_ãðàäèåíò_136-2);}.cls-57{fill:url(#Áåçûìÿííûé_ãðàäèåíò_136-3);}.cls-58{fill:url(#Áåçûìÿííûé_ãðàäèåíò_136-4);}.cls-59{fill:#7e9f86;}.cls-60,.cls-85{fill:#b89c7e;}.cls-61{fill:#4e4f5b;}.cls-62{fill:url(#Áåçûìÿííûé_ãðàäèåíò_127-2);}.cls-63{fill:url(#Áåçûìÿííûé_ãðàäèåíò_123);}.cls-64{fill:url(#Áåçûìÿííûé_ãðàäèåíò_136-5);}.cls-65{fill:url(#Áåçûìÿííûé_ãðàäèåíò_136-6);}.cls-66{fill:url(#Áåçûìÿííûé_ãðàäèåíò_136-7);}.cls-67{fill:url(#Áåçûìÿííûé_ãðàäèåíò_136-8);}.cls-68{fill:url(#Áåçûìÿííûé_ãðàäèåíò_136-9);}.cls-69{fill:#4e425b;}.cls-70{opacity:0.8;}.cls-71{fill:url(#Áåçûìÿííûé_ãðàäèåíò_427);}.cls-72{fill:url(#Áåçûìÿííûé_ãðàäèåíò_183);}.cls-73{fill:url(#Áåçûìÿííûé_ãðàäèåíò_183-2);}.cls-74{opacity:0.6;}.cls-75{fill:url(#Áåçûìÿííûé_ãðàäèåíò_299);}.cls-76{fill:#ffcf9d;}.cls-77{fill:#ef7f58;}.cls-78{fill:#b25460;}.cls-81{fill:#8b90a1;}.cls-82{fill:#c47a5f;}.cls-83{fill:url(#Áåçûìÿííûé_ãðàäèåíò_299-2);}.cls-84{fill:#c9726d;}.cls-85{mix-blend-mode:color-dodge;opacity:0.15;}.cls-86{opacity:0.46;}.cls-87{fill:#d6794f;}.cls-88{fill:url(#Áåçûìÿííûé_ãðàäèåíò_299-3);}.cls-89{fill:url(#Áåçûìÿííûé_ãðàäèåíò_299-4);}.cls-90,.cls-91{fill:#d66042;}.cls-90{opacity:0.53;}.cls-92{opacity:0.66;fill:url(#Áåçûìÿííûé_ãðàäèåíò_4);}.cls-93{fill:url(#Áåçûìÿííûé_ãðàäèåíò_17-3);}.cls-94{fill:url(#Áåçûìÿííûé_ãðàäèåíò_17-4);}.cls-95{fill:none;}</style><linearGradient id="Áåçûìÿííûé_ãðàäèåíò_256" x1="-1927.48" y1="1080.39" x2="-1927.48" y2="-1383.39" gradientTransform="translate(2870.28)" gradientUnits="userSpaceOnUse"><stop offset="0.31" stop-color="#c7ffdf"/><stop offset="1" stop-color="#5681ff"/></linearGradient><linearGradient id="Áåçûìÿííûé_ãðàäèåíò_568" x1="-1989.94" y1="416.07" x2="-1989.94" y2="-386.77" gradientTransform="translate(2870.28)" gradientUnits="userSpaceOnUse"><stop offset="0" stop-color="#fee8b7"/><stop offset="0.56" stop-color="#e3a298"/><stop offset="1" stop-color="#bf939e"/></linearGradient><linearGradient id="Áåçûìÿííûé_ãðàäèåíò_471" x1="-1927.48" y1="1080.39" x2="-1927.48" y2="219.44" gradientTransform="translate(2870.28)" gradientUnits="userSpaceOnUse"><stop offset="0" stop-color="#d66d34"/><stop offset="1" stop-color="#ff8651"/></linearGradient><linearGradient id="Áåçûìÿííûé_ãðàäèåíò_345" x1="-4192.41" y1="910.89" x2="-830.85" y2="910.89" gradientTransform="translate(2870.28)" gradientUnits="userSpaceOnUse"><stop offset="0" stop-color="#e098a1"/><stop offset="0.16" stop-color="#e3a1a9"/><stop offset="0.43" stop-color="#eabac0"/><stop offset="0.76" stop-color="#f6e2e5"/><stop offset="0.97" stop-color="#fff"/></linearGradient><linearGradient id="Áåçûìÿííûé_ãðàäèåíò_345-2" x1="-2719.72" y1="1006.71" x2="-830.84" y2="1006.71" xlink:href="#Áåçûìÿííûé_ãðàäèåíò_345"/><linearGradient id="Áåçûìÿííûé_ãðàäèåíò_288" x1="-1926.36" y1="617.12" x2="-1926.36" y2="396.15" gradientTransform="translate(2870.28)" gradientUnits="userSpaceOnUse"><stop offset="0.03" stop-color="#ef5e3b"/><stop offset="1" stop-color="#a20037"/></linearGradient><linearGradient id="Áåçûìÿííûé_ãðàäèåíò_288-2" x1="-2177.66" y1="478.2" x2="-2177.66" y2="135.15" xlink:href="#Áåçûìÿííûé_ãðàäèåíò_288"/><linearGradient id="Áåçûìÿííûé_ãðàäèåíò_17" x1="-2115.64" y1="405.8" x2="-2115.64" y2="-1089.38" gradientTransform="translate(2870.28)" gradientUnits="userSpaceOnUse"><stop offset="0" stop-color="#ff6d24"/><stop offset="0.08" stop-color="#cd581d"/><stop offset="0.17" stop-color="#9d4316"/><stop offset="0.26" stop-color="#733110"/><stop offset="0.36" stop-color="#50220b"/><stop offset="0.46" stop-color="#331607"/><stop offset="0.57" stop-color="#1c0c04"/><stop offset="0.68" stop-color="#0c0502"/><stop offset="0.82" stop-color="#030100"/><stop offset="1"/></linearGradient><linearGradient id="Áåçûìÿííûé_ãðàäèåíò_7" x1="-2672.15" y1="405.8" x2="-2672.15" y2="-780.68" gradientTransform="translate(2870.28)" gradientUnits="userSpaceOnUse"><stop offset="0"/><stop offset="0.18" stop-color="#030100"/><stop offset="0.32" stop-color="#0c0502"/><stop offset="0.43" stop-color="#1c0c04"/><stop offset="0.54" stop-color="#331607"/><stop offset="0.64" stop-color="#50220b"/><stop offset="0.74" stop-color="#733110"/><stop offset="0.83" stop-color="#9d4316"/><stop offset="0.92" stop-color="#cd581d"/><stop offset="1" stop-color="#ff6d24"/></linearGradient><linearGradient id="Áåçûìÿííûé_ãðàäèåíò_17-2" x1="-2672.16" y1="405.8" x2="-2672.16" y2="-1172.39" xlink:href="#Áåçûìÿííûé_ãðàäèåíò_17"/><linearGradient id="Áåçûìÿííûé_ãðàäèåíò_407" x1="-1395.73" y1="206.95" x2="-1395.73" y2="114.5" gradientTransform="translate(2870.28)" gradientUnits="userSpaceOnUse"><stop offset="0.01" stop-color="#5b5b5d"/><stop offset="0.96" stop-color="#6e6761"/></linearGradient><linearGradient id="Áåçûìÿííûé_ãðàäèåíò_407-2" x1="-1378.64" y1="208.15" x2="-1378.64" y2="95.38" xlink:href="#Áåçûìÿííûé_ãðàäèåíò_407"/><linearGradient id="Áåçûìÿííûé_ãðàäèåíò_407-3" x1="-1404.73" y1="207.18" x2="-1404.73" y2="109.79" xlink:href="#Áåçûìÿííûé_ãðàäèåíò_407"/><linearGradient id="Áåçûìÿííûé_ãðàäèåíò_406" x1="-1381.49" y1="207.18" x2="-1381.49" y2="85.49" gradientTransform="translate(2870.28)" gradientUnits="userSpaceOnUse"><stop offset="0" stop-color="#757258"/><stop offset="0.98" stop-color="#859d88"/></linearGradient><linearGradient id="Áåçûìÿííûé_ãðàäèåíò_406-2" x1="-1370.09" y1="207.67" x2="-1370.09" y2="95.38" xlink:href="#Áåçûìÿííûé_ãðàäèåíò_406"/><linearGradient id="Áåçûìÿííûé_ãðàäèåíò_406-3" x1="-1399.29" y1="207.18" x2="-1399.29" y2="93.5" xlink:href="#Áåçûìÿííûé_ãðàäèåíò_406"/><linearGradient id="Áåçûìÿííûé_ãðàäèåíò_405" x1="-1359.44" y1="206.95" x2="-1359.44" y2="128.91" gradientTransform="translate(2870.28)" gradientUnits="userSpaceOnUse"><stop offset="0" stop-color="#757258"/><stop offset="0.99" stop-color="#c8b383"/></linearGradient><linearGradient id="Áåçûìÿííûé_ãðàäèåíò_405-2" x1="-1417.81" y1="207.18" x2="-1417.81" y2="122.88" xlink:href="#Áåçûìÿííûé_ãðàäèåíò_405"/><linearGradient id="Áåçûìÿííûé_ãðàäèåíò_47" x1="-2960.21" y1="653.3" x2="-2554.73" y2="653.3" gradientTransform="translate(2870.28)" gradientUnits="userSpaceOnUse"><stop offset="0" stop-color="#5b5945"/><stop offset="0.96" stop-color="#9aab72"/></linearGradient><linearGradient id="Áåçûìÿííûé_ãðàäèåíò_23" x1="-2860.3" y1="799.53" x2="-2860.3" y2="136.34" gradientTransform="translate(2870.28)" gradientUnits="userSpaceOnUse"><stop offset="0.01" stop-color="#424243"/><stop offset="0.96" stop-color="#544f4a"/></linearGradient><linearGradient id="Áåçûìÿííûé_ãðàäèåíò_23-2" x1="-2926.12" y1="799.53" x2="-2926.12" y2="53.18" xlink:href="#Áåçûìÿííûé_ãðàäèåíò_23"/><linearGradient id="Áåçûìÿííûé_ãðàäèåíò_53" x1="-2896.77" y1="799.53" x2="-2896.77" y2="53.18" gradientTransform="translate(2870.28)" gradientUnits="userSpaceOnUse"><stop offset="0" stop-color="#5b5943"/><stop offset="0.96" stop-color="#547c68"/></linearGradient><linearGradient id="Áåçûìÿííûé_ãðàäèåíò_2" x1="-2805" y1="799.53" x2="-2805" y2="165.81" gradientTransform="translate(2870.28)" gradientUnits="userSpaceOnUse"><stop offset="0" stop-color="#5b5945"/><stop offset="0.98" stop-color="#6f8372"/></linearGradient><linearGradient id="Áåçûìÿííûé_ãðàäèåíò_2-2" x1="-2677.34" y1="799.53" x2="-2677.34" y2="560.43" xlink:href="#Áåçûìÿííûé_ãðàäèåíò_2"/><linearGradient id="Áåçûìÿííûé_ãðàäèåíò_47-2" x1="-2960.21" y1="679.98" x2="-2409.54" y2="679.98" xlink:href="#Áåçûìÿííûé_ãðàäèåíò_47"/><linearGradient id="Áåçûìÿííûé_ãðàäèåíò_571" x1="-1934.87" y1="1100.42" x2="-1918.24" y2="862.67" gradientTransform="translate(2870.28)" gradientUnits="userSpaceOnUse"><stop offset="0.03" stop-color="#ac4816"/><stop offset="1" stop-color="#d3423e"/></linearGradient><linearGradient id="Áåçûìÿííûé_ãðàäèåíò_345-3" x1="-2499.85" y1="1008.84" x2="-2492.61" y2="905.44" xlink:href="#Áåçûìÿííûé_ãðàäèåíò_345"/><linearGradient id="Áåçûìÿííûé_ãðàäèåíò_345-4" x1="-2956.71" y1="956.01" x2="-2949.88" y2="858.28" xlink:href="#Áåçûìÿííûé_ãðàäèåíò_345"/><linearGradient id="Áåçûìÿííûé_ãðàäèåíò_345-5" x1="-1559.26" y1="1062.06" x2="-1551.32" y2="948.49" xlink:href="#Áåçûìÿííûé_ãðàäèåíò_345"/><linearGradient id="Áåçûìÿííûé_ãðàäèåíò_571-2" x1="-2591.69" y1="1017.87" x2="-2585.16" y2="924.44" xlink:href="#Áåçûìÿííûé_ãðàäèåíò_571"/><linearGradient id="Áåçûìÿííûé_ãðàäèåíò_571-3" x1="-2039.33" y1="1086.88" x2="-2031.18" y2="970.4" xlink:href="#Áåçûìÿííûé_ãðàäèåíò_571"/><linearGradient id="Áåçûìÿííûé_ãðàäèåíò_170" x1="-1626.78" y1="-2038.67" x2="-1626.78" y2="-2121.07" gradientTransform="translate(2775.22 661.87) rotate(-39.04)" gradientUnits="userSpaceOnUse"><stop offset="0.03" stop-color="#7e2e7c"/><stop offset="0.98" stop-color="#b33b83"/></linearGradient><linearGradient id="Áåçûìÿííûé_ãðàäèåíò_165" x1="-1672.47" y1="-2039.11" x2="-1672.47" y2="-2137.8" gradientTransform="translate(2775.22 661.87) rotate(-39.04)" gradientUnits="userSpaceOnUse"><stop offset="0.03" stop-color="#e58188"/><stop offset="0.98" stop-color="#bd459f"/></linearGradient><linearGradient id="Áåçûìÿííûé_ãðàäèåíò_165-2" x1="-1604.98" y1="-2038.67" x2="-1604.98" y2="-2098.78" xlink:href="#Áåçûìÿííûé_ãðàäèåíò_165"/><linearGradient id="Áåçûìÿííûé_ãðàäèåíò_127" x1="-2678.23" y1="394.4" x2="-2678.23" y2="116.7" gradientTransform="translate(2870.28)" gradientUnits="userSpaceOnUse"><stop offset="0.01" stop-color="#516665"/><stop offset="0.97" stop-color="#518188"/></linearGradient><linearGradient id="Áåçûìÿííûé_ãðàäèåíò_136" x1="-2563.52" y1="349.93" x2="-2563.52" y2="99.32" gradientTransform="translate(2870.28)" gradientUnits="userSpaceOnUse"><stop offset="0" stop-color="#51725e"/><stop offset="0.97" stop-color="#779f88"/></linearGradient><linearGradient id="Áåçûìÿííûé_ãðàäèåíò_136-2" x1="-2625.07" y1="349.93" x2="-2625.07" y2="86.01" xlink:href="#Áåçûìÿííûé_ãðàäèåíò_136"/><linearGradient id="Áåçûìÿííûé_ãðàäèåíò_136-3" x1="-2721.77" y1="364.83" x2="-2721.77" y2="99.32" xlink:href="#Áåçûìÿííûé_ãðàäèåíò_136"/><linearGradient id="Áåçûìÿííûé_ãðàäèåíò_136-4" x1="-2799.53" y1="364.83" x2="-2799.53" y2="137.2" xlink:href="#Áåçûìÿííûé_ãðàäèåíò_136"/><linearGradient id="Áåçûìÿííûé_ãðàäèåíò_127-2" x1="-2606.16" y1="312.39" x2="-2606.16" y2="86.01" xlink:href="#Áåçûìÿííûé_ãðàäèåíò_127"/><linearGradient id="Áåçûìÿííûé_ãðàäèåíò_123" x1="-2562.44" y1="805.72" x2="-2562.44" y2="308.57" gradientTransform="translate(2870.28)" gradientUnits="userSpaceOnUse"><stop offset="0.01" stop-color="#516640"/><stop offset="0.97" stop-color="#518188"/></linearGradient><linearGradient id="Áåçûìÿííûé_ãðàäèåíò_136-5" x1="-2391.84" y1="805.33" x2="-2391.84" y2="333.37" xlink:href="#Áåçûìÿííûé_ãðàäèåíò_136"/><linearGradient id="Áåçûìÿííûé_ãðàäèåíò_136-6" x1="-2488.82" y1="805.33" x2="-2488.82" y2="318.28" xlink:href="#Áåçûìÿííûé_ãðàäèåíò_136"/><linearGradient id="Áåçûìÿííûé_ãðàäèåíò_136-7" x1="-2613.72" y1="802.01" x2="-2613.72" y2="308.57" xlink:href="#Áåçûìÿííûé_ãðàäèåíò_136"/><linearGradient id="Áåçûìÿííûé_ãðàäèåíò_136-8" x1="-2743.46" y1="802.01" x2="-2743.46" y2="307.07" xlink:href="#Áåçûìÿííûé_ãðàäèåíò_136"/><linearGradient id="Áåçûìÿííûé_ãðàäèåíò_136-9" x1="-2808.17" y1="799.72" x2="-2808.17" y2="311.5" xlink:href="#Áåçûìÿííûé_ãðàäèåíò_136"/><linearGradient id="Áåçûìÿííûé_ãðàäèåíò_427" x1="-2622.54" y1="805.72" x2="-2622.54" y2="28.85" gradientTransform="translate(2870.28)" gradientUnits="userSpaceOnUse"><stop offset="0" stop-color="#3d6668"/><stop offset="0.03" stop-color="#50756e"/><stop offset="0.1" stop-color="#79957b"/><stop offset="0.17" stop-color="#9db287"/><stop offset="0.25" stop-color="#bcca91"/><stop offset="0.34" stop-color="#d4dd98"/><stop offset="0.43" stop-color="#e8ec9e"/><stop offset="0.55" stop-color="#f5f7a3"/><stop offset="0.69" stop-color="#fdfda5"/><stop offset="0.97" stop-color="#ffffa6"/></linearGradient><linearGradient id="Áåçûìÿííûé_ãðàäèåíò_183" x1="-2183.84" y1="605.23" x2="-2183.84" y2="571.3" gradientTransform="translate(2870.28)" gradientUnits="userSpaceOnUse"><stop offset="0" stop-color="#756668"/><stop offset="0.04" stop-color="#877a7c"/><stop offset="0.12" stop-color="#a79d9f"/><stop offset="0.2" stop-color="#c2bcbd"/><stop offset="0.29" stop-color="#d9d4d5"/><stop offset="0.4" stop-color="#eae8e8"/><stop offset="0.52" stop-color="#f6f5f5"/><stop offset="0.67" stop-color="#fdfdfd"/><stop offset="0.97" stop-color="#fff"/></linearGradient><linearGradient id="Áåçûìÿííûé_ãðàäèåíò_183-2" x1="-2487.42" y1="337.42" x2="-2487.42" y2="301.66" xlink:href="#Áåçûìÿííûé_ãðàäèåíò_183"/><linearGradient id="Áåçûìÿííûé_ãðàäèåíò_299" x1="-2192.87" y1="834.36" x2="-2192.87" y2="299.85" gradientTransform="translate(2870.28)" gradientUnits="userSpaceOnUse"><stop offset="0" stop-color="#52113b"/><stop offset="0.97" stop-color="#8d2f3b"/></linearGradient><linearGradient id="Áåçûìÿííûé_ãðàäèåíò_299-2" x1="-2223.09" y1="598.63" x2="-2223.09" y2="484.28" xlink:href="#Áåçûìÿííûé_ãðàäèåíò_299"/><linearGradient id="Áåçûìÿííûé_ãðàäèåíò_299-3" x1="-2854.67" y1="993.07" x2="-2854.67" y2="980.52" xlink:href="#Áåçûìÿííûé_ãðàäèåíò_299"/><linearGradient id="Áåçûìÿííûé_ãðàäèåíò_299-4" x1="-2236.41" y1="901.87" x2="-2236.41" y2="852.79" xlink:href="#Áåçûìÿííûé_ãðàäèåíò_299"/><linearGradient id="Áåçûìÿííûé_ãðàäèåíò_4" x1="-1927.48" y1="1080.74" x2="-1927.48" y2="338.13" gradientTransform="translate(2870.28)" gradientUnits="userSpaceOnUse"><stop offset="0" stop-color="#d79399"/><stop offset="0.2" stop-color="#e5b8bc"/><stop offset="0.42" stop-color="#f0d7d9"/><stop offset="0.62" stop-color="#f8edee"/><stop offset="0.82" stop-color="#fdfafb"/><stop offset="1" stop-color="#fff"/></linearGradient><linearGradient id="Áåçûìÿííûé_ãðàäèåíò_17-3" x1="-306.33" y1="1071.09" x2="-869.48" y2="598.19" gradientTransform="matrix(-1, 0, 0, 1, -589.43, 0)" xlink:href="#Áåçûìÿííûé_ãðàäèåíò_17"/><linearGradient id="Áåçûìÿííûé_ãðàäèåíò_17-4" x1="-221.22" y1="969.73" x2="-784.37" y2="496.83" gradientTransform="matrix(-1, 0, 0, 1, -589.43, 0)" xlink:href="#Áåçûìÿííûé_ãðàäèåíò_17"/></defs><g class="cls-1"><g id="Layer_1" data-name="Layer 1"><path class="cls-2" d="M-274.18-303.64q1.9,54.24,2.61,108.53c1.2,100.85-2.62,201.6-5.25,302.39-2.61,100.14-1.93,200.29-1.67,300.45.57,224.18,1.56,448.48-2.24,672.66H2166.33v-1384Z"/><path class="cls-3" d="M736.09,55.91s28.07-168.15,19.7-359.55h-1030q1.9,54.24,2.61,108.53c1.2,100.85-2.62,201.6-5.25,302.39-1.9,73.07-2.05,146.15-1.89,219.24,715.9-20.71,1327.39-61.84,1327.39-61.84C1100.12,37,736.09,55.91,736.09,55.91Z"/><path class="cls-3" d="M-68.76,5.44c-74.06-10.59-145.16-5.2-205.39,5.8-.88,32-1.83,64-2.67,96q-.75,29-1.14,57.94c228.31,81.9,502.92,31.62,513.27,12.07C248.49,152.39,131.89,34.13-68.76,5.44Z"/><path class="cls-3" d="M-86-67.79c-9.21-38.88,164.55-19.84,226.41,9.33S207,62.92,195.3,71.09-75.46-23.45-86-67.79Z"/><path class="cls-3" d="M342,201.8C377.75,164.45,637.06,50,824.84,62.87S1039.44,189.35,1040,201.8,342,201.8,342,201.8Z"/><path class="cls-4" d="M80.79,181.29a28.44,28.44,0,0,0,.12,6.12c1.1-.88,6.78-5.07,6.79-6.79,0-4.45-5.28-3.62-6.91-.7Z"/><path class="cls-4" d="M91.08,156.6c-1-.08-.77,1.1-2,.58,4-4.64,7.24,5,7.39,8.23-2.66,1.09-13,.83-14.51-2.43-1.92-4.2,5.2-7.82,8.44-9.13Z"/><path class="cls-4" d="M122.64,164.83c1.28,1.51,2.32,2.17,4.2,0a8.19,8.19,0,0,0-4.89-2Z"/><path class="cls-4" d="M-4.27,223.14c.23-3.11,1.93-4,4.68-2.63,0,3.16-2.77,4.58-5.95,3.9-.6-1.32.38-1.37.58-2Z"/><path class="cls-4" d="M182.32,229.31a10,10,0,0,0-5.4,6.06c7.21,1.81,16.5.57,17-8.7-4.05-.48-8.91,1-11.55,4Z"/><path class="cls-4" d="M154.88,186.09c1.09-1.16,4.35-2.06,6.07.52a11.59,11.59,0,0,1-6.76.86Z"/><path class="cls-4" d="M219.36,168.26c1.85-3.12,5.94-3.73,8.13-.86a8.25,8.25,0,0,1-6.76.17Z"/><path class="cls-4" d="M291.39,252.64c6.26,3.23-1.15,8.67-2.06,1.37Z"/><path class="cls-4" d="M85.59,249.21c-.55-4.4,2.43-9.93,6.07-12.28a58.16,58.16,0,0,1-6.07,11.59Z"/><path class="cls-4" d="M61.58,244.4c.73-1.14,4.23.9,6.62,2.78-2.75.17-5.49,0-7.3-1.4Z"/><path class="cls-4" d="M102.74,208.73c0-1.88.84,1.42.83,2,2.06-.8,2.86.17,4.57.21-2,4.35-7.12,1.63-6.08-1.51Z"/><path class="cls-4" d="M310.6,195c-1.55-3.89,5.78-6,6.22-1,.32,3.61-5,5.86-7.59,3.75Z"/><path class="cls-4" d="M298.25,151.11c.56-.75,1.4-.51,1.42-1.8-.91,1.27-.81,2.65-1.33,3.89,6.71,2.66,7.77-6.27.6-4.83Z"/><path class="cls-4" d="M326.38,122.3c-1.35-2.4-.66-5.27.84-7.46a31.68,31.68,0,0,1,6.44,3.86c-2.37,2-5.4,2.48-8.66,2.23Z"/><path class="cls-4" d="M295.51,134c-2.15,1.95.37,3.62,4,2.62-.47-2.33-2.21-3.21-4.72-3.31Z"/><path class="cls-4" d="M384,227.94c5.44-2.43,2.78,4.95.51,7.44-2.57-1.23-2.9-3-1.88-5.38Z"/><path class="cls-4" d="M387.43,181.29a21.13,21.13,0,0,1-2.14,2.77c1.65,1.57,3.41,1.72,5.48.53-.42-1.36-1.43-1.9-2.65-2.61Z"/><path class="cls-4" d="M264.64,238.23c1-4.2,4-2.83,3.32,1.27-1.39.4-2.16-.06-3.32-.58Z"/><path class="cls-4" d="M80.79,278c0-1.79-1-2.94,2-2.64.66,2.83-.56,2.82-2.64,3.32Z"/><path class="cls-5" d="M47.14,244.38c3.29,4.79-11.13,6.22-11.63-1.92-.46-7.61,9.66-2,11.63,1.49Z"/><path class="cls-5" d="M39.83,256a3.67,3.67,0,0,0-1.72-1.76c-2,1.26-1.4,4.74.86,2.62Z"/><path class="cls-5" d="M88.43,122.65c-11.66,3.25-2.47-9.24-.86-1.72Z"/><path class="cls-5" d="M74.24,124.8c.58-1.51-2.56-1.66-2.55-.61,0,2.36,1.88,2.39,3.41,1Z"/><path class="cls-5" d="M64.78,114.91c-6.16,1.36-2.9-5.33,0-1.29Z"/><path class="cls-5" d="M26.07,113.62c-.89-1.71-3.68-.82-4.78.86,1.37,1.48,3.07.4,3.92-1.29Z"/><path class="cls-5" d="M17.89,125.66c-.14,2-1.21,2.5-2.93,1.65,0-2,1.74-2.87,3.73-2.44.38.82-.24.85-.37,1.22Z"/><path class="cls-5" d="M33,179c.11-.09.63-.13.36-1.66-8.22-2.43-1.79,12.21-.36,1.66Z"/><path class="cls-5" d="M61.77,149.32c-1.9.7-3.63-.42-4.78-2.15,2.06-2.95,4.75,1.06,7.29,1.35a3.57,3.57,0,0,1-.44,2c-1,.39-1.15-.16-1.64-.35Z"/><path class="cls-5" d="M110.37,120.07a16.29,16.29,0,0,0,4.77-4.73c-1.54-1.45-4.69-1.87-6.85-2.08-1.56,3.74-4.51,7.58,2.51,6.81Z"/><path class="cls-5" d="M121.12,108.46c-.26.91-2.56,1.4-3.91,0,.89-1.59,2.3-2,3.48-.86Z"/><path class="cls-5" d="M129.72,126.09c-.17-2.58-3.47-2.06-4.68-.51a19.7,19.7,0,0,1,5.11.94Z"/><path class="cls-5" d="M107.36,148c-2.66,1.36-3.22-2.11-.86-3.48,1,.38.7.88.86,1.76Z"/><path class="cls-5" d="M134.89,148c5.17-.4.22-5.66-3.51-2.59a3.87,3.87,0,0,0,3.08,1.3Z"/><path class="cls-5" d="M190.37,115.77c-.62-1.68-1.73-2.09-3.05-.86.77,1.22,1.49.85,2.62.43Z"/><path class="cls-5" d="M188.22,216.85c.4.53.4.39,0,0-1.78.07-1.87,0-2.56,1.24,1,.33,1.56-.23,2.09-.35Z"/><path class="cls-5" d="M178.76,243.52a13.93,13.93,0,0,1-.5,2.08c-1.9.11-3.09-1-2.87-2.87,1.47-.92,1.93-.46,2.51.79Z"/><path class="cls-5" d="M213.17,228.89c.85-2.13-.07-3.23-2.09-1.61a8,8,0,0,0,2.52,2.47Z"/><path class="cls-5" d="M129.72,256a5.49,5.49,0,0,1-2.61,4.58c0-2.12.88-4.76,3-5Z"/><path class="cls-4" d="M98.41,55a28.54,28.54,0,0,0,.12,6.13c1.1-.89,6.78-5.08,6.79-6.79,0-4.46-5.28-3.63-6.91-.71Z"/><path class="cls-4" d="M108.7,30.26c-1-.08-.76,1.1-2,.58,4-4.64,7.24,5,7.39,8.24-2.66,1.08-13,.82-14.51-2.44-1.92-4.2,5.2-7.82,8.44-9.13Z"/><path class="cls-4" d="M140.26,38.49c1.29,1.51,2.32,2.18,4.2,0a8.19,8.19,0,0,0-4.89-2Z"/><path class="cls-4" d="M.32,116c1.41,2.72,5.86,1.3,7.61-1.37-2.18-2.37-4.89-.64-6.24,2Z"/><path class="cls-4" d="M13.35,96.8c.23-3.11,1.93-4,4.68-2.62,0,3.15-2.77,4.57-6,3.89-.6-1.31.38-1.37.58-2Z"/><path class="cls-4" d="M199.94,103a10,10,0,0,0-5.4,6.06c7.22,1.81,16.51.57,17-8.7-4.06-.47-8.92,1-11.56,4Z"/><path class="cls-4" d="M172.5,59.76c1.09-1.17,4.35-2.07,6.07.51a11.59,11.59,0,0,1-6.76.86Z"/><path class="cls-4" d="M237,41.92c1.85-3.12,5.94-3.73,8.13-.86a8.19,8.19,0,0,1-6.75.17Z"/><path class="cls-4" d="M309,126.3c6.26,3.24-1.15,8.67-2.05,1.37Z"/><path class="cls-4" d="M103.21,122.87c-.55-4.4,2.43-9.93,6.07-12.28a58.16,58.16,0,0,1-6.07,11.59Z"/><path class="cls-4" d="M79.21,118.07c.72-1.15,4.22.89,6.61,2.77-2.75.17-5.49,0-7.3-1.4Z"/><path class="cls-4" d="M120.36,82.39c0-1.88.84,1.42.83,2,2.06-.8,2.87.17,4.57.21-2,4.35-7.12,1.63-6.08-1.51Z"/><path class="cls-4" d="M328.22,68.67c-1.55-3.89,5.78-6,6.22-1,.32,3.61-5,5.86-7.59,3.75Z"/><path class="cls-4" d="M315.87,24.77c.56-.75,1.4-.51,1.43-1.8-.92,1.27-.81,2.65-1.34,3.89,6.71,2.66,7.77-6.27.6-4.83Z"/><path class="cls-4" d="M313.13,7.62c-2.15,2,.37,3.62,4,2.63C316.69,7.91,315,7,312.44,6.93Z"/><path class="cls-4" d="M401.62,101.6c5.44-2.43,2.79,5,.52,7.44-2.58-1.23-2.91-3-1.89-5.38Z"/><path class="cls-4" d="M405.05,55c.41-.29-1.67,2.23-2.14,2.77,1.65,1.57,3.42,1.72,5.48.53-.42-1.36-1.43-1.9-2.65-2.61Z"/><path class="cls-4" d="M282.26,111.89c1-4.2,4-2.83,3.33,1.27-1.4.4-2.17-.06-3.33-.58Z"/><path class="cls-4" d="M98.41,151.68c0-1.79-1-2.93,2-2.64.66,2.84-.56,2.82-2.64,3.33Z"/><path class="cls-5" d="M64.76,118c3.3,4.79-11.13,6.22-11.63-1.92-.46-7.61,9.66-2,11.63,1.49Z"/><path class="cls-5" d="M57.45,129.65a3.67,3.67,0,0,0-1.72-1.76c-2,1.26-1.4,4.74.86,2.62Z"/><path class="cls-5" d="M35.51-.68c-.14,2-1.2,2.5-2.93,1.65,0-2,1.74-2.87,3.73-2.44.38.82-.24.86-.36,1.22Z"/><path class="cls-5" d="M50.57,52.66c.11-.09.63-.13.36-1.66-8.21-2.43-1.79,12.21-.36,1.66Z"/><path class="cls-5" d="M79.39,23c-1.9.7-3.62-.42-4.78-2.15,2.07-2.94,4.75,1.06,7.29,1.35a3.61,3.61,0,0,1-.44,2c-1,.38-1.15-.17-1.64-.36Z"/><path class="cls-5" d="M147.35-.25c-.18-2.58-3.48-2.06-4.69-.51a19.85,19.85,0,0,1,5.12.94Z"/><path class="cls-5" d="M125,21.69c-2.66,1.36-3.22-2.11-.86-3.48,1,.38.71.88.86,1.76Z"/><path class="cls-5" d="M152.51,21.69c5.17-.4.22-5.65-3.51-2.59a3.87,3.87,0,0,0,3.08,1.3Z"/><path class="cls-5" d="M205.84,90.51c.4.53.4.39,0,0-1.78.07-1.87,0-2.56,1.23,1,.33,1.56-.23,2.09-.35Z"/><path class="cls-5" d="M196.38,117.18a14.87,14.87,0,0,1-.49,2.08c-1.91.11-3.1-1-2.88-2.87,1.47-.91,1.93-.46,2.51.79Z"/><path class="cls-5" d="M230.79,102.55c.85-2.12-.07-3.23-2.08-1.61a8,8,0,0,0,2.51,2.47Z"/><path class="cls-5" d="M147.35,129.65a5.52,5.52,0,0,1-2.62,4.58c0-2.12.88-4.76,3.05-5Z"/><path class="cls-4" d="M698.07,177.38c1,.07.77-1.1,2-.58-4,4.63-7.24-5-7.39-8.24,2.66-1.08,13-.82,14.51,2.44,1.92,4.19-5.2,7.81-8.44,9.12Z"/><path class="cls-4" d="M666.52,169.15c-1.29-1.52-2.32-2.18-4.2,0a8.16,8.16,0,0,0,4.88,2Z"/><path class="cls-4" d="M569.79,165.72c-1.84,3.11-5.93,3.72-8.12.85a8.22,8.22,0,0,1,6.75-.17Z"/><path class="cls-4" d="M490.9,182.87c-.56.75-1.4.51-1.42,1.79.91-1.27.81-2.64,1.34-3.89-6.71-2.66-7.78,6.27-.6,4.84Z"/><path class="cls-4" d="M462.78,211.68c1.35,2.39.66,5.27-.84,7.46a33,33,0,0,1-6.45-3.86c2.38-2,5.41-2.48,8.66-2.23Z"/><path class="cls-4" d="M493.65,200c2.15-1.94-.37-3.61-4-2.62.47,2.33,2.21,3.21,4.71,3.31Z"/><path class="cls-4" d="M405.15,106c-5.43,2.43-2.78-4.94-.51-7.44,2.58,1.24,2.91,3,1.89,5.39Z"/><path class="cls-4" d="M401.73,152.68a19.53,19.53,0,0,1,2.14-2.76c-1.65-1.58-3.42-1.72-5.48-.53.42,1.36,1.43,1.9,2.65,2.61Z"/><path class="cls-5" d="M700.72,211.32c11.67-3.24,2.47,9.24.86,1.72Z"/><path class="cls-5" d="M714.92,209.17c-.58,1.51,2.55,1.67,2.54.62,0-2.37-1.88-2.4-3.4-1Z"/><path class="cls-5" d="M724.38,219.06c6.15-1.35,2.89,5.33,0,1.3Z"/><path class="cls-5" d="M727.39,184.66c1.9-.7,3.62.42,4.77,2.14-2.06,2.95-4.75-1.06-7.28-1.35a3.58,3.58,0,0,1,.43-2c1-.38,1.16.16,1.65.36Z"/><path class="cls-5" d="M678.79,213.9a16.57,16.57,0,0,0-4.78,4.73c1.55,1.46,4.7,1.87,6.85,2.08,1.56-3.73,4.52-7.58-2.5-6.81Z"/><path class="cls-5" d="M668,225.52c.26-.92,2.56-1.41,3.92,0-.9,1.59-2.3,2-3.49.86Z"/><path class="cls-5" d="M659.43,207.88c.17,2.59,3.48,2.07,4.69.52a19.37,19.37,0,0,1-5.12-1Z"/><path class="cls-5" d="M681.8,186c2.65-1.36,3.21,2.11.86,3.48-1-.39-.71-.88-.86-1.76Z"/><path class="cls-5" d="M654.27,186c-5.17.39-.22,5.65,3.5,2.59a3.81,3.81,0,0,0-3.07-1.3Z"/><path class="cls-5" d="M598.78,218.2c.63,1.69,1.74,2.1,3.06.86-.77-1.22-1.49-.84-2.63-.42Z"/><path class="cls-4" d="M311.32,149.25a28.54,28.54,0,0,0-.12-6.13c-1.1.89-6.78,5.08-6.79,6.79,0,4.46,5.28,3.63,6.91.71Z"/><path class="cls-4" d="M301,173.94c1,.07.77-1.1,2-.58-4,4.64-7.24-5-7.39-8.24,2.66-1.08,13-.82,14.51,2.44,1.92,4.2-5.2,7.82-8.43,9.12Z"/><path class="cls-4" d="M269.47,165.71c-1.28-1.51-2.32-2.18-4.2,0a8.28,8.28,0,0,0,4.89,2Z"/><path class="cls-4" d="M409.42,88.19c-1.42-2.72-5.87-1.3-7.61,1.37,2.17,2.37,4.88.64,6.24-2Z"/><path class="cls-4" d="M396.38,107.4c-.23,3.11-1.93,4-4.68,2.62,0-3.16,2.77-4.57,5.95-3.89.61,1.31-.38,1.37-.58,2Z"/><path class="cls-4" d="M209.79,101.23a10,10,0,0,0,5.4-6.06c-7.21-1.81-16.5-.57-16.95,8.7,4,.47,8.91-1,11.55-4Z"/><path class="cls-4" d="M237.23,144.44c-1.09,1.17-4.35,2.07-6.06-.51a11.55,11.55,0,0,1,6.75-.86Z"/><path class="cls-4" d="M172.75,162.28c-1.85,3.12-5.94,3.73-8.13.86a8.25,8.25,0,0,1,6.76-.18Z"/><path class="cls-4" d="M100.72,77.9c-6.26-3.24,1.15-8.68,2.06-1.37Z"/><path class="cls-4" d="M306.52,81.33c.55,4.4-2.43,9.93-6.07,12.28A58.69,58.69,0,0,1,306.52,82Z"/><path class="cls-4" d="M330.53,86.13c-.73,1.15-4.22-.9-6.62-2.77,2.75-.17,5.5,0,7.3,1.4Z"/><path class="cls-4" d="M289.37,121.81c.05,1.88-.84-1.42-.83-2-2.06.8-2.86-.17-4.57-.21,2-4.35,7.12-1.63,6.08,1.51Z"/><path class="cls-4" d="M420.39,192.46c.18-.14,1-.2.59-2.64-13.11-3.88-2.87,19.47-.59,2.64Z"/><path class="cls-4" d="M81.51,135.52c1.55,3.89-5.78,6-6.22,1-.31-3.61,5-5.86,7.59-3.75Z"/><path class="cls-4" d="M93.86,179.43c-.56.75-1.4.51-1.42,1.8.91-1.27.81-2.65,1.33-3.89-6.71-2.67-7.77,6.26-.6,4.83Z"/><path class="cls-4" d="M65.73,208.24c1.35,2.4.66,5.27-.84,7.46a32.62,32.62,0,0,1-6.44-3.86c2.37-2,5.4-2.48,8.66-2.23Z"/><path class="cls-4" d="M96.6,196.58c2.15-2-.37-3.62-4-2.63.47,2.34,2.21,3.22,4.71,3.31Z"/><path class="cls-4" d="M8.11,102.6C2.68,105,5.33,97.65,7.6,95.16c2.57,1.23,2.9,3,1.88,5.38Z"/><path class="cls-4" d="M4.68,149.25a21.13,21.13,0,0,1,2.14-2.77c-1.64-1.57-3.41-1.72-5.48-.53.43,1.36,1.43,1.9,2.66,2.61Z"/><path class="cls-4" d="M127.47,92.31c-1,4.2-4,2.83-3.32-1.27,1.39-.4,2.16.06,3.32.58Z"/><path class="cls-4" d="M177.15,221.11a27.73,27.73,0,0,0-5.39,2.91c1.28.57,7.61,3.7,9.14,2.93,4-2,.81-6.35-2.53-6.47Z"/><path class="cls-4" d="M203.81,219c-.38-.91-1.32-.18-1.43-1.51,6,1.47-1.13,8.72-3.94,10.33-2.19-1.87-6.69-11.19-4.47-14,2.85-3.63,9.33,1.05,12,3.33Z"/><path class="cls-4" d="M210.92,250.8c-.75,1.84-.87,3.06,1.94,3.73a8.23,8.23,0,0,0-.42-5.28Z"/><path class="cls-4" d="M248.1,36.54c4.4-8.16,16.94,11.26,5.76,17.9-10.46,6.2-9.89-12.25-6.37-17.58Z"/><path class="cls-4" d="M269.91,38.45a5.83,5.83,0,0,0-1.25,3.72c3.28,2,7.75-1.47,3.09-3.13Z"/><path class="cls-4" d="M45.33,66.73C58.45,80.91,34,77,43.52,69.2Z"/><path class="cls-4" d="M58.73,85.29c-2.57.28-.5,4.85,1,4.06,3.33-1.76,2-4.4-1-5.59Z"/><path class="cls-4" d="M51.6,105.93c6.42,7.74-5.45,8-1.83.94Z"/><path class="cls-4" d="M78,161.78c-1.77,2.5,1.52,5.81,4.7,6.14,1.11-3-1.67-4.63-4.69-4.61Z"/><path class="cls-4" d="M101,164.59c2.87-1.21,4.42-.11,4.47,3-2.81,1.43-5.33-.37-6.18-3.5.89-1.15,1.39-.29,2-.38Z"/><path class="cls-4" d="M206.75,289.2c1.53.44,3.82,2.92,2.31,5.63a11.59,11.59,0,0,1-3.85-5.61Z"/><path class="cls-4" d="M118.94,256.43c3.66-2.5,9.94-2.38,13.7-.21a59.06,59.06,0,0,1-13.09-.1Z"/><path class="cls-4" d="M112.23,232.88c1.35.13,1.14,4.17.56,7.16-1.41-2.37-2.48-4.9-2.09-7.14Z"/><path class="cls-4" d="M162.78,253.18c1.65-.9-.88,1.4-1.39,1.64,1.65,1.47,1.16,2.63,1.9,4.16-4.77.23-4.7-5.58-1.44-6.1Z"/><path class="cls-4" d="M165.72,104.35c-.21-.1-.65-.81-2.62.69,2.54,13.43,18.62-6.35,2.62-.69Z"/><path class="cls-4" d="M102.61,85.11c2.37,2.18,2,5.45.43,8.34-5.68-.78-2-7.51-3.4-11.32a5.71,5.71,0,0,1,3.18-.85c1.24,1.09.6,1.75.69,2.59Z"/><path class="cls-4" d="M91.12,265.33c1.57-.86,2.15-2.24,3.24.54-2.22,1.88-2.76.79-4.16-.83Z"/><path class="cls-5" d="M150.15,104.3a18,18,0,0,0,3.38-1.82c-.81-.36-4.78-2.33-5.74-1.84-2.49,1.26-.5,4,1.59,4Z"/><path class="cls-5" d="M133.43,105.64c.24.57.83.11.89,1-3.74-.92.72-5.47,2.48-6.48,1.37,1.17,4.19,7,2.8,8.79-1.79,2.27-5.85-.66-7.51-2.09Z"/><path class="cls-5" d="M129,85.69c.47-1.16.55-1.92-1.21-2.34a5.16,5.16,0,0,0,.26,3.31Z"/><path class="cls-5" d="M105.66,220c-2.76,5.12-10.62-7.06-3.61-11.22,6.55-3.9,6.2,7.67,4,11Z"/><path class="cls-5" d="M92,218.83a3.7,3.7,0,0,0,.78-2.33c-2.06-1.25-4.86.92-1.94,2Z"/><path class="cls-5" d="M232.79,201.1c-8.22-8.89,7.09-6.42,1.14-1.55Z"/><path class="cls-5" d="M224.39,189.46c1.61-.18.31-3-.62-2.55-2.09,1.11-1.27,2.77.63,3.51Z"/><path class="cls-5" d="M228.86,176.52c-4-4.85,3.42-5,1.15-.59Z"/><path class="cls-5" d="M212.31,141.5c1.11-1.57-.95-3.64-2.94-3.85-.7,1.89,1,2.91,2.93,2.89Z"/><path class="cls-5" d="M197.87,139.74c-1.81.76-2.78.07-2.81-1.86,1.77-.89,3.34.24,3.88,2.2-.56.72-.88.18-1.26.24Z"/><path class="cls-5" d="M147.82,33.92a6.27,6.27,0,0,0,4.92,1.28c-1.05-4.55-4.41-9.37-9.71-7a8.69,8.69,0,0,0,5.56,5.3Z"/><path class="cls-5" d="M131.59,61.61a2.52,2.52,0,0,1-1.46-3.53,7.21,7.21,0,0,1,2.42,3.52Z"/><path class="cls-5" d="M103.16,30.76a3,3,0,0,1-2.81-4.28,5.15,5.15,0,0,1,2,3.72Z"/><path class="cls-5" d="M186.64,82.15a8.93,8.93,0,0,1-8.58.14,36.86,36.86,0,0,1,8.2.06Z"/><path class="cls-5" d="M190.85,96.92c-.85-.08-.71-2.61-.35-4.49a7.09,7.09,0,0,1,1.31,4.48Z"/><path class="cls-5" d="M159.16,84.19c-1,.57.55-.87.87-1-1-.92-.73-1.64-1.2-2.61,3-.14,2.95,3.51.9,3.83Z"/><path class="cls-5" d="M157.31,177.51c.13.06.4.51,1.64-.43-1.59-8.42-11.67,4-1.64.43Z"/><path class="cls-5" d="M196.88,189.57c-1.48-1.37-1.28-3.41-.27-5.22,3.57.48,1.23,4.71,2.13,7.09a3.5,3.5,0,0,1-2,.53c-.78-.68-.38-1.09-.43-1.62Z"/><path class="cls-5" d="M245.12,219.43a16.37,16.37,0,0,0,6.39,2.08c.58-2-.49-5-1.29-7-4,.32-8.8-.55-4.91,5.34Z"/><path class="cls-5" d="M260.36,223.68c-.93.19-2.42-1.63-1.79-3.48,1.83.07,2.88,1.11,2.36,2.71Z"/><path class="cls-5" d="M248.61,239.39c2.22-1.33.25-4-1.68-4.4a19.86,19.86,0,0,1,1.5,5Z"/><path class="cls-5" d="M218.88,229.53c-2.43-1.74.4-3.82,2.7-2.36.1,1.05-.46,1-1.17,1.58Z"/><path class="cls-5" d="M231.46,254c2.72,4.43,5.13-2.38.71-4.3a3.84,3.84,0,0,0,.24,3.33Z"/><path class="cls-5" d="M204.08,76.57c-1,.54-1.34,1.41-2-.33,1.39-1.18,1.73-.5,2.61.52Z"/><path class="cls-5" d="M133.09,298.78a5.5,5.5,0,0,1-5.27-.23c1.9-.93,4.63-1.39,5.84.42Z"/><path class="cls-4" d="M297.56,179a28.89,28.89,0,0,0-5.39,2.91c1.29.57,7.61,3.71,9.15,2.93,4-2,.81-6.35-2.54-6.46Z"/><path class="cls-4" d="M324.23,176.88c-.38-.91-1.33-.17-1.43-1.51,6,1.47-1.13,8.72-3.95,10.34-2.18-1.87-6.68-11.2-4.46-14,2.85-3.63,9.33,1.05,12,3.33Z"/><path class="cls-4" d="M331.34,208.71c-.76,1.84-.88,3.06,1.93,3.73a8.16,8.16,0,0,0-.41-5.28Z"/><path class="cls-4" d="M198.42,119.69c-1.77,2.5,1.52,5.81,4.7,6.14,1.11-3-1.68-4.63-4.69-4.6Z"/><path class="cls-4" d="M221.46,122.5c2.87-1.21,4.42-.1,4.47,3-2.82,1.43-5.33-.37-6.18-3.5.89-1.14,1.39-.29,2-.38Z"/><path class="cls-4" d="M239.36,214.34c3.66-2.5,9.94-2.38,13.69-.21A59,59,0,0,1,240,214Z"/><path class="cls-4" d="M232.65,190.79c1.35.13,1.13,4.17.56,7.16-1.41-2.37-2.48-4.9-2.09-7.14Z"/><path class="cls-4" d="M283.2,211.09c1.65-.9-.88,1.4-1.4,1.65,1.66,1.46,1.17,2.62,1.91,4.16-4.78.22-4.71-5.59-1.44-6.1Z"/><path class="cls-4" d="M286.13,62.26c-.2-.1-.64-.81-2.61.69,2.54,13.43,18.62-6.35,2.61-.69Z"/><path class="cls-4" d="M211.54,223.25c1.57-.86,2.14-2.25,3.24.53-2.22,1.88-2.76.79-4.16-.83Z"/><path class="cls-5" d="M270.57,62.21a17.66,17.66,0,0,0,3.37-1.82c-.8-.36-4.77-2.32-5.73-1.84-2.49,1.26-.51,4,1.59,4.05Z"/><path class="cls-5" d="M253.84,63.55c.25.57.84.11.9,1-3.74-.92.71-5.47,2.48-6.48,1.36,1.17,4.19,7,2.8,8.79-1.79,2.28-5.85-.66-7.51-2.09Z"/><path class="cls-5" d="M226.08,177.94c-2.76,5.12-10.63-7.06-3.61-11.22,6.55-3.89,6.2,7.67,4,11Z"/><path class="cls-5" d="M212.4,176.74a3.69,3.69,0,0,0,.79-2.33c-2.06-1.25-4.86.92-1.94,2Z"/><path class="cls-5" d="M277.73,135.42c.13.06.4.51,1.64-.43-1.59-8.42-11.67,4-1.64.43Z"/><path class="cls-5" d="M317.3,147.48c-1.48-1.36-1.28-3.41-.27-5.22,3.56.48,1.23,4.71,2.13,7.1a3.69,3.69,0,0,1-2,.53c-.78-.69-.38-1.1-.44-1.63Z"/><path class="cls-5" d="M339.29,187.44c-2.42-1.74.41-3.82,2.71-2.35.1,1-.46,1-1.18,1.57Z"/><path class="cls-5" d="M351.88,211.93c2.72,4.42,5.13-2.39.7-4.31a3.84,3.84,0,0,0,.25,3.33Z"/><path class="cls-5" d="M253.5,256.69a5.48,5.48,0,0,1-5.26-.23c1.9-.93,4.63-1.39,5.84.42Z"/><path class="cls-4" d="M236.1,294.2c-3.62-.21-6-3.57-4.48-6.83a8.24,8.24,0,0,1,3.24,5.93Z"/><path class="cls-4" d="M278.21,191.57c0-7,8.24-2.95,2.16,1.2Z"/><path class="cls-4" d="M218.18,200.83c-2.75,3.16-8-2.38-3.74-5.08,3.07-1.93,7.5,1.78,6.81,5Z"/><path class="cls-4" d="M184.78,231.88c-.93-.15-1.1-1-2.25-.44,1.54.23,2.72-.49,4.07-.59-.7-7.18-9.13-4-4.57,1.68Z"/><path class="cls-4" d="M146.3,220c-1.52,2.3-4.39,3-7,2.66a32.1,32.1,0,0,1,.48-7.49c2.86,1.2,4.68,3.67,5.94,6.68Z"/><path class="cls-4" d="M170.78,242.16c2.71,1,3.05-2,.49-4.78-1.86,1.49-1.84,3.44-.79,5.71Z"/><path class="cls-4" d="M213.91,120.49c-4.65-3.72,3.12-4.73,6.38-3.86.08,2.86-1.32,4-3.93,4.14Z"/><path class="cls-4" d="M170.85,138.77a21.65,21.65,0,0,1,3.44.64c.65-2.18,0-3.82-2-5.12-1,1-1,2.15-1.1,3.56Z"/><path class="cls-4" d="M277.63,222c-4.21,1-4.34-2.24-.39-3.54,1,1.05.94,2,1,3.22Z"/><path class="cls-4" d="M311.32,52.52c.05,1.79,1,2.93-2,2.64-.66-2.84.56-2.82,2.65-3.33Z"/><path class="cls-5" d="M427.55,178.64a17.61,17.61,0,0,0,.08,3.84c.69-.56,4.25-3.18,4.25-4.26,0-2.79-3.3-2.27-4.33-.44Z"/><path class="cls-5" d="M434,163.15c-.62,0-.49.69-1.26.37,2.53-2.91,4.54,3.13,4.63,5.16-1.67.68-8.16.52-9.09-1.53-1.21-2.63,3.26-4.9,5.29-5.72Z"/><path class="cls-5" d="M345,86.16c-3.29-4.79,11.13-6.22,11.63,1.92.46,7.61-9.66,2-11.63-1.49Z"/><path class="cls-5" d="M352.28,74.55A3.67,3.67,0,0,0,354,76.31c2.05-1.26,1.4-4.74-.86-2.62Z"/><path class="cls-5" d="M303.68,207.89c11.66-3.25,2.47,9.24.86,1.72Z"/><path class="cls-5" d="M317.87,205.74c-.58,1.51,2.56,1.66,2.55.61,0-2.36-1.88-2.39-3.41-1Z"/><path class="cls-5" d="M327.33,215.63c6.16-1.36,2.9,5.33,0,1.29Z"/><path class="cls-5" d="M366.05,216.92c.88,1.7,3.67.81,4.77-.86-1.36-1.49-3.07-.4-3.91,1.29Z"/><path class="cls-5" d="M374.22,204.88c.14-1.95,1.21-2.5,2.93-1.65,0,2-1.74,2.87-3.73,2.44-.38-.82.24-.86.37-1.23Z"/><path class="cls-5" d="M430.56,221.22a9,9,0,0,1,3.81-7.7,36.75,36.75,0,0,1-3.81,7.27Z"/><path class="cls-5" d="M415.51,218.21c.46-.72,2.65.56,4.15,1.74a7,7,0,0,1-4.58-.88Z"/><path class="cls-5" d="M359.16,151.54c-.11.09-.63.13-.36,1.66,8.22,2.43,1.8-12.21.36-1.66Z"/><path class="cls-5" d="M330.35,181.22c1.89-.7,3.62.42,4.77,2.15-2.06,2.94-4.75-1.06-7.29-1.35a3.61,3.61,0,0,1,.44-2c1-.38,1.15.17,1.65.36Z"/><path class="cls-4" d="M183.85,3.06c5.43-2.43,2.78,4.95.51,7.44-2.58-1.23-2.91-3-1.89-5.38Z"/><path class="cls-5" d="M281.74,210.47A16.29,16.29,0,0,0,277,215.2c1.54,1.45,4.7,1.86,6.85,2.07,1.56-3.73,4.51-7.58-2.51-6.8Z"/><path class="cls-5" d="M271,222.08c.26-.92,2.56-1.41,3.91,0-.89,1.59-2.29,2-3.48.86Z"/><path class="cls-5" d="M262.39,204.44c.17,2.59,3.47,2.07,4.68.52a19.3,19.3,0,0,1-5.11-1Z"/><path class="cls-5" d="M284.75,182.51c2.66-1.36,3.22,2.11.86,3.48-1-.38-.7-.88-.86-1.76Z"/><path class="cls-5" d="M257.23,182.51c-5.18.4-.23,5.65,3.5,2.59a3.86,3.86,0,0,0-3.07-1.3Z"/><path class="cls-5" d="M201.74,214.77c.63,1.68,1.73,2.09,3,.86-.77-1.22-1.49-.85-2.62-.43Z"/><path class="cls-5" d="M203.89,113.69c-.39-.53-.39-.39,0,0,1.78-.07,1.87,0,2.57-1.24-1-.32-1.56.24-2.1.36Z"/><path class="cls-5" d="M213.35,87a13.64,13.64,0,0,1,.5-2.08c1.9-.11,3.09,1,2.87,2.87-1.47.91-1.92.46-2.51-.79Z"/><path class="cls-5" d="M178.94,101.65c-.85,2.12.07,3.23,2.09,1.61a8,8,0,0,0-2.52-2.47Z"/><path class="cls-5" d="M262.39,74.55A5.51,5.51,0,0,1,265,70c0,2.12-.88,4.75-3,5Z"/><path class="cls-4" d="M763,171.61c-1.16,2.5-3.9,3.61-6.55,3.67a32.6,32.6,0,0,1-.63-7.48c3,.76,5.17,2.94,6.86,5.73Z"/><polygon class="cls-3" points="504.61 210.54 559.77 187.17 802.32 215.98 504.61 210.54"/><polygon class="cls-3" points="1199.29 164.38 1424.67 133.78 1649.07 154.58 1571.74 172.43 1199.29 164.38"/><path class="cls-6" d="M1629.12-93.28,1505.9-83.57l-26.79,53.38-46.6,21.11L644.26-217.16l-40.68,13.7-54.79,52,14,55.17L342-268.67l-121.76-35H64.72L53.28-245.88l-50.37-10-9.15,74.21L2.91,154.58l-33.77-20.92L-85.8,150.19l-192.1,10.94c-1,66-.93,131.92-.73,197.88L1552.21,219.44,2039.44,71.85V-9.08Z"/><polygon class="cls-7" points="603.58 -203.46 652.97 -110.59 1053.66 61.86 1734.55 142.29 1432.51 -9.08 644.26 -217.16 603.58 -203.46"/><polygon class="cls-7" points="341.96 -268.67 220.2 -303.64 70.78 -303.64 78.07 -255.86 236.32 -82.86 794.17 118.41 562.74 -96.33 341.96 -268.67"/><polygon class="cls-7" points="2.91 -255.86 53.28 -245.88 186.62 -83.57 206.74 -63.4 399.53 45.83 110.1 -56.12 2.91 -255.86"/><polygon class="cls-7" points="57.03 142.29 88.34 85.48 194.69 70.87 504.61 181.75 282.83 196.69 57.03 142.29"/><polygon class="cls-7" points="1505.9 -83.57 1527.69 -37.44 1759.45 70.87 2039.44 71.85 2039.44 -9.08 1629.12 -93.28 1505.9 -83.57"/><polygon class="cls-7" points="163.27 -0.28 258.7 19.99 619.04 166.1 266.49 61.86 163.27 -0.28"/><polygon class="cls-7" points="-30.86 133.66 -59.53 142.29 -8.94 172.85 200.37 227.53 2.91 154.58 -30.86 133.66"/><polygon class="cls-8" points="794.17 118.41 821.07 271.94 999.68 261.56 1053.66 61.86 652.97 -110.59 603.58 -203.46 548.79 -151.5 562.74 -96.33 794.17 118.41"/><polygon class="cls-8" points="163.27 -0.28 142.65 78.02 88.34 85.48 57.03 142.29 65.61 177.74 2.91 154.58 -6.24 -181.65 2.91 -255.86 110.1 -56.12 286.73 6.09 286.73 31.35 258.7 19.99 163.27 -0.28"/><polygon class="cls-8" points="302.62 -9.08 341.96 -44.75 423.56 -15.31 332.95 8.11 302.62 -9.08"/><polygon class="cls-8" points="374.35 135.15 394.18 99.62 489.55 127.81 451.58 162.78 374.35 135.15"/><polygon class="cls-8" points="282.83 196.69 282.83 242.24 146.82 207.75 144.8 165.44 282.83 196.69"/><polygon class="cls-7" points="1092.52 105.13 1601.58 143.66 1265.09 158.49 1092.52 105.13"/><polygon class="cls-8" points="1265.09 158.49 1265.09 248.7 1075.14 254.58 1092.52 105.13 1265.09 158.49"/><polygon class="cls-8" points="1479.12 -30.19 1432.51 -9.08 1713.64 131.81 1759.45 70.87 1594.92 -6.02 1564.52 28.27 1584.87 -10.72 1527.69 -37.44 1505.9 -83.57 1479.12 -30.19"/><polygon class="cls-8" points="1302.85 121.05 1314.5 93.5 1474.55 114.5 1458.81 127.81 1302.85 121.05"/><polygon class="cls-8" points="1193.16 112.75 1202.66 79.46 1170.12 75.62 1162.2 109.79 1193.16 112.75"/><path class="cls-9" d="M-159.89,312.13q-60.31,2.36-118.84,3.8,0,13.29.05,26.6l2445-74.45V-34.23C1591.56,91.76,616,281.8-159.89,312.13Z"/><path class="cls-10" d="M-278.72,322.18q.09,42.76.23,85.55c.57,224.18,1.56,448.48-2.24,672.66H2166.33V236.57Z"/><path class="cls-11" d="M-278.67,344.8q0,8.42.05,16.85l1714.5-32.82L-278.56,381.91v2.16l2318-45.94V271.94Z"/><path class="cls-12" d="M-278.3,479.49l606-36.11H-216.24l-62.15,3.28Z"/><path class="cls-13" d="M-278,640.63q0,5.58,0,11.18l1331.61-74.22-339.6,72.33L-278,757.29q0,5,0,10L2039.44,632.65v-132Z"/><path class="cls-12" d="M-279.44,989q-.53,45.7-1.29,91.41H2039.44V785.67Z"/><path class="cls-14" d="M1623.14,822.17-279.44,989q-.27,23.57-.6,47.14L2039.44,806.38V785.67Z"/><polygon class="cls-15" points="150.56 1080.39 2039.44 933.03 2039.44 1080.39 150.56 1080.39"/><polygon class="cls-12" points="2039.44 665.52 110.84 806.38 2039.44 681.46 2039.44 665.52"/><polygon class="cls-12" points="2039.44 500.68 2.91 623.66 2039.44 515.45 2039.44 500.68"/><path class="cls-16" d="M-278.59,371.63l0,11.46L299.94,364Z"/><path class="cls-16" d="M-278.53,395.05q0,6.33,0,12.68.06,25.13.13,50.24l2317.8-70.07V338.13S894.54,357.71-278.53,395.05Z"/><path class="cls-16" d="M-278.72,324.9q0,7.28,0,14.56l2318.12-67.52v-52.5C1619.15,237.75,510.13,288.59-278.72,324.9Z"/><path class="cls-17" d="M-278.77,920.75c0,1,0,1.92,0,2.88l760.17-2.25,49.34-3.44Z"/><path class="cls-17" d="M-278.23,833.19q0,5.4,0,10.79l954.46,66.89,73.11-13.74Z"/><path class="cls-18" d="M-278.64,236.83c-.26,57,0,113.93.15,170.9q.19,74.25.38,148.53c460.25-4.37,918.89-4,1233.85,7.79,456.34,17.05,893.79,30.62,1210.59,39.77V104.4Z"/><path class="cls-19" d="M863.09,483.83,159.92,547.31l281.94-74.12L-46.49,547.31,133.67,397.05C9,393.72-134.84,399.92-278.48,410.76q.18,72.74.37,145.5c460.25-4.37,918.89-4,1233.85,7.79,456.34,17.05,893.79,30.62,1210.59,39.77V456.08Z"/><polygon class="cls-20" points="-56.89 554.55 -46.49 547.31 133.67 397.05 -29.41 456.69 -88.49 554.79 -56.89 554.55"/><polygon class="cls-20" points="1564.52 588.06 1621.6 471.62 1841.14 466.95 1827.32 598.1 1564.52 588.06"/><polygon class="cls-20" points="1847.4 598.94 1866.57 466.4 1887.48 465.96 1876.46 600.18 1847.4 598.94"/><path class="cls-21" d="M-278.64,353.79,1663.94,135.15l-842.87,56.4-1099.77,143Z"/><polygon class="cls-20" points="250.24 294.26 258.7 264.66 675.01 210.54 667.89 246.25 250.24 294.26"/><polygon class="cls-20" points="201.2 299.78 219.38 269.77 139.84 280.11 133.67 305.94 201.2 299.78"/><polygon class="cls-20" points="948.73 215.65 961.75 181.75 1027.45 177.74 1006.06 209.19 948.73 215.65"/><path class="cls-22" d="M-271.57-195.11c1.2,100.85-2.62,201.6-5.25,302.39-1.91,73.2-2.05,146.41-1.89,219.62L1788.05,90S1051,86.91,366.05-84.1C140.87-140.32-69.4-219.92-251.19-303.64h-23Q-272.28-249.4-271.57-195.11Z"/><path class="cls-23" d="M-273-32.81c-1.11,46.7-2.58,93.39-3.8,140.09-1.88,72.14-2,144.28-1.9,216.43L675,210S185.57,112.16-273-32.81Z"/><path class="cls-24" d="M-271.41-176.93c.58,94.78-2.94,189.47-5.41,284.21-1.64,63.11-2,126.22-1.94,189.34L675,145.31S186.72,15.52-271.41-176.93Z"/><polygon class="cls-25" points="1526.46 210.87 1478.41 214.89 1342.6 211.18 1484.12 207.18 1526.46 210.87"/><path class="cls-26" d="M1478.41,207s-17.38-47.08,0-92.45Z"/><path class="cls-27" d="M1484.11,207.18s13-69.15,9.23-111.8c0,0,13.11,50.14,0,112.77Z"/><path class="cls-28" d="M1470.69,207.18s-27.6-49.36-14.45-97.39c0,0,7.12,60.35,22.17,97.16Z"/><path class="cls-29" d="M1481.49,207.18s-4.53-86.54,15-121.69Z"/><path class="cls-30" d="M1495.22,207S1515.3,134.1,1511,95.38l-22.19,112.29Z"/><path class="cls-31" d="M1474.55,207.18s-21.81-66.47-9-113.68c0,0,4.56,84.32,14.92,113.68Z"/><path class="cls-32" d="M1495.22,207s25.13-45.8,31.24-78Z"/><path class="cls-33" d="M1470.69,207.18s-44.62-40.69-35.1-84.3Z"/><path class="cls-25" d="M-278.19,826l565.63-9-304.67-33L-234,779.54-278,782.28Q-278.09,804.15-278.19,826Z"/><path class="cls-34" d="M-89.93,764.8S137.55,465.42,315.55,560.43c0,0-157.89,129.65-315.51,204.37Z"/><path class="cls-35" d="M-117.58,799.53s70.45-551.47,255.13-663.19c0,0-32.28,413.77-227.48,663.19Z"/><path class="cls-36" d="M-52.69,53.18s40,477.89-59,746.35C-111.71,799.53,93.92,298.79-52.69,53.18Z"/><path class="cls-37" d="M-111.71,799.53S31.09,314-52.69,53.18c0,0,70.45,81.88,106.62,235.14S-89.93,799.53-89.93,799.53Z"/><path class="cls-38" d="M-111.71,799.53s258.78-315.46,354-633.72c0,0-15.46,449-317.13,633.72Z"/><path class="cls-39" d="M-74.86,799.53s402.8-98.35,535.61-239.1C460.75,560.43,310.58,765.26-74.86,799.53Z"/><path class="cls-40" d="M460.75,560.43s-328.82,122-550.68,239.1C-89.93,799.53,242.27,769.54,460.75,560.43Z"/><path class="cls-41" d="M10,158.78l-39.58,17.8L-52.69,53.18S-9.71,109.52,10,158.78Z"/><polygon class="cls-41" points="212.95 251.27 229.46 275.7 242.27 165.81 212.95 251.27"/><path class="cls-41" d="M227.61,542.28l58.33,41.48,29.61-23.33S269,535,227.61,542.28Z"/><path class="cls-42" d="M419.81,596.52c14-11.4,27.68-23.4,40.93-36.09,0,0-167.26,62.07-343.68,140.15,71.81-44.11,134.05-90,168.87-116.82h0l.56-.43c18.35-14.13,29.05-22.9,29.05-22.9s-5.51-3-14.3-6.61c-1.69-.69-3.37-1.36-5.06-2-17.38-6.61-43.85-13.92-68.58-9.55l.08.05c-32.12,2.27-64.36,13-95.38,28.49,56-105.07,83.6-216,97.15-295.12h0c11.29-66,12.81-109.88,12.81-109.88l-29,84.49C158.25,393.8,77.2,530.85,9.76,632.21c107.18-233,127.79-495.87,127.79-495.87-36.07,21.82-67.73,60.55-95.41,108.53A690.77,690.77,0,0,0,9.93,158.8l.05,0C2.86,141-7.31,122.24-17.4,105.56c-20-34.42-35.29-52.38-35.29-52.38s17.61,211,.41,431.33c-9,31.94-17,63.49-24,93.69C-69.16,428.5-90.61,265-112.21,144.86h0l0,0c-4.49-25-9-48.1-13.21-68.78h0l-.1-.46C-139,9.9-149.95-31.51-149.95-31.51s-22.66,28.43-32,73.77q-7.22,23.64-12.71,50.11l0,0v.25c-4.73,22.93-8.47,47.35-11.46,72.71C-241.22,66.38-272.72,6.53-272.72,6.53q-.86,5.82-1.63,11.72c-.82,29.67-1.7,59.35-2.47,89-1.29,49.73-1.78,99.46-1.9,149.19,8.69,129.33,31.35,259.2,52.49,359.07-15.82-37-33.53-74.58-52-111.42q.38,148.15.13,296.35c21.08.55,42.72.29,64.92-.94,0,0-7.35-.17-21-1.41,7.33.48,14.28.87,20.58,1.14l.47.27h7.08c27.48.9,43.13,0,43.13,0l-7.83-3.34,53.22,3.34h42.72c1.15-.7,2.2-1.49,3.34-2.2,3.51-.47,7.41-1,11.82-1.67-9.63,2.51-15.16,3.87-15.16,3.87,385.44-34.27,535.6-239.1,535.6-239.1A332.71,332.71,0,0,1,419.81,596.52ZM-32.67,770.34c2.44-1.86,5-3.65,7.35-5.54h3.9C-25.19,766.64-28.93,768.49-32.67,770.34Z"/><path class="cls-18" d="M680,720l-958.1,76.7q-.11,36.07-.32,72.14l395.92,3.21-187,30.68L465,917.94,527.53,945l1638.8,28.31V737.27Z"/><path class="cls-43" d="M518,944.82l-62.78-34-524.69-8.12,187-30.68-395.92-3.21q-.19,32.94-.47,65.87h151.53l-100.53,49.73,703.3,22.25s691.6,51.46,1312.11,73.68c130.86,4.69,260.28,6.71,378.8,7.15V973.32Z"/><path class="cls-44" d="M518,944.82l-84.31,60.57L228,998.88s91.5-15.77,227.19-88Z"/><path class="cls-45" d="M-278.41,868.86q-.18,32.49-.46,65l151.52.89,57.89-32,187-30.68Z"/><path class="cls-46" d="M1040,1043.11s430.12-26.2,549.91-75.67c0,0-82.74,49.36-350.26,87.09Z"/><polygon class="cls-47" points="95.32 953.46 59.11 1002.53 455.23 1012.04 504.61 939.79 117.51 958.13 95.32 953.46"/><path class="cls-48" d="M1379.76,1008.2l26,75s-766.93-8.64-1146.58-36.33c0,0,93.52-12.56,128.92-54.54C388.11,992.34,1061.56,1020.93,1379.76,1008.2Z"/><path class="cls-18" d="M1379.76,1008.2,571.32,967.44l-183.21,24.9S559,1022.48,1379.76,1008.2Z"/><polygon class="cls-49" points="1453.79 1065.62 1392.7 962.72 927.06 953.46 927.06 985.38 1379.76 1008.21 1398.73 1062.9 1453.79 1065.62"/><polygon class="cls-50" points="1571.22 1071.01 1552.21 966.65 1650.94 968.73 1624.94 1071.01 1571.22 1071.01"/><polygon class="cls-18" points="504.61 939.79 455.23 921.45 265.26 922.83 95.32 953.46 117.51 958.13 504.61 939.79"/><polygon class="cls-49" points="117.51 958.13 86.95 1003.2 59.11 1002.53 95.32 953.46 117.51 958.13"/><path class="cls-25" d="M796.47,767.56l-1074.59,39q-.06,16.15-.13,32.3l706.17-22.6-53.07,32.24,427.47,27.11,59.48,18.28,939,33.83,365.58-4.93V791.83Z"/><path class="cls-51" d="M210.16,115.61s-62.78-41.18-56.7-54.16,47-45.49,63.62-27.08S223,106.86,223,106.86Z"/><path class="cls-52" d="M203,122.5S162.89,73,114.39,86.74c0,0-2.64-25.53,27.61-39.42s68.16,68.29,68.16,68.29Z"/><path class="cls-53" d="M206.15,117.65s-12.9-53.35,4.5-77,57-3.68,59,5.34S225.53,72.4,223,106.86Z"/><path class="cls-54" d="M44.5,341.27s143.88,130.25,273.88-17.12c0,0,70.75-104.65,33.58-171S96.59,118.91,44.5,187.05,44.5,341.27,44.5,341.27Z"/><path class="cls-55" d="M312.38,99.32s17.35,108.91-49.13,240.59l24,10S382,217.17,339.14,116.7Z"/><path class="cls-56" d="M258.19,86s11.58,144-13.47,253.9l-15.16,10s7.72-199.66,0-263.92Z"/><path class="cls-57" d="M164.67,99.32s-4.7,175.52,14.7,255.16l-28.32,10.35s-39.2-170.45-32.67-259.21Z"/><path class="cls-58" d="M81.35,137.2S51.4,251.71,98.23,349.93l-7.62,14.9S16,247.2,54.12,147.55Z"/><path class="cls-59" d="M164.67,99.32l41.92,20S198.17,277.9,220,357.2l-40.58-2.72S150,164.9,164.67,99.32Z"/><path class="cls-59" d="M81.35,137.2l36.3,3.23s-1.37,115.09,23.68,209.5H98.23S38.88,251.56,81.35,137.2Z"/><polygon class="cls-60" points="346.55 139.79 423.87 86.01 349.57 158.99 346.55 139.79"/><path class="cls-61" d="M312.38,99.32,280,118.41s-5,135.72-21,194h17.15S325.94,214.27,312.38,99.32Z"/><path class="cls-62" d="M258.19,86,280,118.41s-.61,137.18-21,194l-10.68-.9S264.13,171,258.19,86Z"/><path class="cls-61" d="M229.56,86l-23,33.31V308.73l23,1.21S238,146.28,229.56,86Z"/><path class="cls-61" d="M118.38,105.62,112.91,140s4.74,148.92,24.53,194.13l11.07,11.08S111.48,211.62,118.38,105.62Z"/><path class="cls-63" d="M9.64,799.29S-113.68,542.67-2,383s558.81-32.9,637.31,105.55-26.63,317.22-26.63,317.22Z"/><path class="cls-64" d="M362.75,333.37s314.64,99.89,210.1,472l-23.46-.25S654.68,503.22,362.75,333.37Z"/><path class="cls-65" d="M300,318.28S499.25,462.05,457.1,805.33l-43.27-6S476.14,520.06,300,318.28Z"/><path class="cls-66" d="M300,799.29l-41-486.9-45.83-3.82S221.89,598.79,263.25,802Z"/><path class="cls-67" d="M110.76,802S41.88,393.07,183.05,307.07c0,0-170.18,21-91.83,490.26Z"/><path class="cls-68" d="M50.56,799.72S-89.68,373.62,142.32,311.5c0,0-240.33-7.86-132.68,487.79Z"/><path class="cls-69" d="M362.75,333.37S563.77,516.9,517,805.72l32.42-.64S647.42,478.35,362.75,333.37Z"/><path class="cls-69" d="M413.83,799.29s60.13-277-113.85-481c0,0,60.65,201,52,484.68Z"/><path class="cls-69" d="M213.13,308.57S150.73,656.15,263.25,802C263.25,802,216,581.22,213.13,308.57Z"/><polygon class="cls-60" points="516.21 440.32 594.13 339.91 532.24 460.87 516.21 440.32"/><polygon class="cls-60" points="94.9 542.71 160.55 480.75 96.58 575.5 94.9 542.71"/><polygon class="cls-60" points="279.98 561.81 306.76 554.54 282.19 588.06 279.98 561.81"/><polygon class="cls-60" points="381.47 450.59 351.95 432.4 390.56 477.75 381.47 450.59"/><polygon class="cls-60" points="454.65 607.75 478.44 588.06 459.39 643.06 454.65 607.75"/><polygon class="cls-60" points="664.46 587.36 708.42 571.3 664.46 605.23 664.46 587.36"/><polygon class="cls-60" points="160.55 158.99 184.27 137.2 160.55 179.13 160.55 158.99"/><polygon class="cls-60" points="25.47 225.42 -10.13 211.26 22.84 237.91 25.47 225.42"/><polygon class="cls-60" points="350.27 260.35 394.47 255.55 342.42 279.68 350.27 260.35"/><polygon class="cls-60" points="371.25 333.37 394.47 301.66 382.86 337.43 371.25 333.37"/><g class="cls-70"><path class="cls-71" d="M556.53,413.39l37.6-73.48-50.71,65.35c-61-36.56-141.89-66.82-223.63-83.27a335.39,335.39,0,0,0,22.64-42.32h0l52.05-24.12-44.2,4.8-.07.18c12.09-33.11,19.38-73.16,2.94-105L423.87,86l-77.32,53.78.19,1.23a133.67,133.67,0,0,0-7.6-24.32L312.38,99.32s1.08,6.83,1.67,19.15c-.38-6.33-.91-12.71-1.67-19.15L280,118.41,258.19,86H230.41C244,65,271.24,52.93,269.7,46c-1.78-8-33.39-24.7-52.58-11.53l0-.05c-12.8-14.16-39.9,1.79-54.52,15.82-6.9-4.33-13.92-5.92-20.56-2.87-30.25,13.89-27.61,39.42-27.61,39.42,35.09-10,65.76,13.2,80,26.78l-29.76-14.2-46.29,6.3L112.91,140h0L81.35,137.2,54.12,147.55a163.54,163.54,0,0,0-9.52,39.38l-.1.12A110.17,110.17,0,0,0,25.42,225.7l0-.28-35.61-14.16,33,26.65.06-.29c-8.5,53.83,21.6,103.64,21.6,103.65C25.76,352.12,10,365.89-2,383c-31,44.32-43.89,96.1-46.35,147.79l-120.66-16,120.21,36.88q0,7.1.3,14.16l-22.21-4,22.6,12.48c6.54,118.49,57.71,225,57.71,225l40.92.43h0l53,.57,7.17,1.72-.27-1.64L263.25,802h0L352,803h0l95.5,1,9.64,1.34c0-.41.09-.82.14-1.24l59.88.65c-.06.32-.1.65-.15,1l32.42-.64h0l23.46.25h0l35.87.39S713.85,626.94,635.35,488.5C620.57,462.44,592.73,436.79,556.53,413.39ZM207.16,118.48l-.57.84v0h0v0l-.2-.1Zm-89.3-2.91c-.27,7.81-.26,16.12,0,24.79l-.21.09v0h-.05C117.48,132.06,117.54,123.74,117.86,115.57Z"/><polygon class="cls-72" points="664.46 587.36 664.46 605.23 708.42 571.3 664.46 587.36"/><polygon class="cls-73" points="394.47 301.66 371.25 333.37 382.86 337.43 394.47 301.66"/></g><polygon class="cls-74" points="9.64 799.29 242.95 503.5 608.72 805.72 9.64 799.29"/><polygon class="cls-75" points="157.64 801.82 275.4 419.13 642 206.53 665.28 206.53 608.21 341.82 643.74 543.16 654.98 598.06 649.35 464.32 750.31 390.46 795.18 403.55 1032.64 723.27 1019.55 754.21 1060.68 741.6 1197.17 831.72 754.05 831.72 275.4 822.34 157.64 801.82"/><polygon class="cls-76" points="608.21 341.82 411.01 560.97 465.17 518.63 338.52 805.05 702.81 831.72 643.74 543.16 608.21 341.82"/><polygon class="cls-76" points="795.18 403.55 732.53 530.18 722.26 831.09 787.48 831.72 782.79 641.2 807.11 783.96 965.72 766.31 1032.64 723.27 795.18 403.55"/><polygon class="cls-76" points="1060.68 741.6 870.23 816.64 965.46 799.57 870.23 831.72 1197.17 831.72 1060.68 741.6"/><polygon class="cls-77" points="275.4 419.13 418.94 436.71 542.87 414.43 608.21 341.82 665.28 206.53 642 206.53 275.4 419.13"/><polygon class="cls-77" points="750.31 390.46 649.35 464.32 732.53 530.18 795.18 403.55 750.31 390.46"/><polygon class="cls-78" points="705.87 509.07 751.55 491.74 728.71 592.5 705.87 509.07"/><polygon class="cls-78" points="418.94 436.71 411.01 560.97 542.87 414.43 418.94 436.71"/><polygon class="cls-79" points="411.01 560.97 157.64 801.82 425.36 598.46 465.17 518.63 411.01 560.97"/><polygon class="cls-79" points="653.64 566.37 728.71 626.05 722.26 831.09 697.36 805.05 654.98 598.06 653.64 566.37"/><polygon class="cls-80" points="650.65 495.34 728.71 592.5 716.61 548.3 649.35 480.09 650.65 495.34"/><polygon class="cls-81" points="275.4 419.13 180.03 729.05 213.89 713.11 311.41 508.07 328.47 502.54 275.4 635.22 328.47 631.14 411.01 487.7 418.94 436.71 275.4 419.13"/><polygon class="cls-81" points="649.35 464.32 653.64 566.37 728.71 626.05 728.71 592.5 705.87 509.07 649.35 464.32"/><polygon class="cls-82" points="608.21 341.82 693.59 786.66 608.21 467.06 581.76 491.65 581.76 666.07 476.94 766.31 465.17 518.63 608.21 341.82"/><polygon class="cls-82" points="795.18 403.55 848.88 475.85 778.78 436.71 795.18 403.55"/><polygon class="cls-82" points="807.11 783.96 778.78 547.6 877.45 729.05 907.42 729.05 843.1 592.5 965.72 766.31 807.11 783.96"/><polygon class="cls-78" points="665.28 206.53 691.18 436.71 649.35 464.32 654.98 598.06 636.71 510.92 608.21 341.82 665.28 206.53"/><polygon class="cls-83" points="649.35 464.32 639.41 518.63 654.98 598.06 649.35 464.32"/><polygon class="cls-84" points="579.38 373.86 637.01 273.54 611.18 357.3 579.38 373.86"/><polygon class="cls-84" points="520.67 420.12 553.79 402.3 538.16 428.42 520.67 420.12"/><polygon class="cls-84" points="737.36 497.12 767.89 458.71 747.85 508.07 737.36 497.12"/><polygon class="cls-85" points="893.77 536.3 791.83 694.29 783.88 685.63 726.29 703.12 675.59 698.73 373.88 725.1 293.35 698.73 234.19 729.05 180.03 729.05 174.08 748.39 221 741.6 286.26 709.09 363.58 748.39 677.41 707.63 726.5 719.81 778.78 698.73 795.18 713.95 914.52 564.24 893.77 536.3"/><polygon class="cls-85" points="885.19 524.74 784.12 649.02 727.64 660.22 672.91 678.94 385.54 698.73 305.18 689.75 254.3 709.94 184.57 714.3 187.01 706.39 260.8 703.06 325.5 674.32 389.51 689.75 669.54 672.91 727.17 649.46 778.78 641.2 879.31 516.83 885.19 524.74"/><polygon class="cls-86" points="879.31 516.83 857.68 487.7 778.78 626.05 728.5 632.77 666.19 656.16 397.43 671.84 338.52 665.78 306.6 660.22 282.1 683.52 194.04 683.52 187.01 706.39 260.8 703.06 325.5 674.32 389.51 689.75 669.54 672.91 727.17 649.46 778.78 641.2 879.31 516.83"/><polygon class="cls-87" points="674.59 289.27 654.98 357.3 677.41 314.32 674.59 289.27"/><polygon class="cls-87" points="581.76 521.47 563.67 531.19 563.67 575.92 581.76 538.89 581.76 521.47"/><polygon class="cls-87" points="414.58 650.8 424.96 626.05 428.31 633.71 418.94 650.8 414.58 650.8"/><polygon class="cls-87" points="423.96 650.8 431 642.34 434.68 646.57 428.31 652.81 423.96 650.8"/><polygon class="cls-87" points="579.38 634.72 579.38 629.35 584.78 629.35 584.78 638.42 579.38 634.72"/><polygon class="cls-87" points="460.01 693.6 508.39 693.6 536.89 688.31 460.01 693.6"/><polygon class="cls-87" points="542.87 710.33 546.58 704.07 556.63 698.73 572.72 706.39 542.87 710.33"/><polygon class="cls-87" points="579.38 698.73 584.78 696.03 591.82 696.03 585.6 702.39 579.38 698.73"/><polygon class="cls-87" points="605.55 780.46 610.24 775.1 616.94 777.78 615.27 797.21 598.85 793.19 605.55 780.46"/><polygon class="cls-87" points="933.69 590.05 927.86 629.35 945.28 648.12 976.77 671.23 989.93 665.78 933.69 590.05"/><polygon class="cls-87" points="919.15 617.63 914.52 626.05 914.52 638.42 919.15 642.34 919.15 617.63"/><polygon class="cls-87" points="431.16 382.31 428.82 389.35 435.18 393.94 440.54 393.94 431.16 382.31"/><polygon class="cls-87" points="899.72 690.95 883.3 704.53 889.33 710.33 899.72 690.95"/><polygon class="cls-87" points="1002.24 714.3 1008.94 710.33 1008.94 702.39 1002.24 714.3"/><polygon class="cls-87" points="1143.96 806.25 1163.39 824.35 1192.64 828.72 1143.96 806.25"/><polygon class="cls-80" points="639.41 518.63 607.9 824.77 702.81 831.72 639.41 518.63"/><polygon class="cls-88" points="-11.23 992.34 -2 981.78 34.15 978.33 42.45 993.01 -11.23 992.34"/><polygon class="cls-89" points="542.41 901.49 591.71 850.9 652.97 844.23 709.6 877.52 725.33 901.63 542.41 901.49"/><polygon class="cls-90" points="591.71 850.9 644.61 879.08 692.17 885.3 709.6 877.52 652.97 844.23 591.71 850.9"/><polygon class="cls-91" points="-2 981.78 28.85 983.14 38.3 985.67 34.15 978.33 -2 981.78"/><path class="cls-92" d="M-278.69,338.13q.09,34.8.2,69.6c.57,224.29,1.56,448.72-2.24,673H2166.33V338.13Z"/><path class="cls-93" d="M224.24,759.11c-239.12-86.48-419.35-230.6-426.4-250.42S-82.7,438.29,33,462.56s68.16,77.06,68.16,77.06,49.06-23.42,25.18-64.24c-19.54-33.38-264-97.32-404.83-71,0,1.11,0,2.22,0,3.33.36,142.34.89,284.72.26,427.1,1.18,1.48,1.82,2.26,1.82,2.26L728.44,884.48S463.35,845.59,224.24,759.11Z"/><path class="cls-94" d="M-258.19,479c2.92-45.15,59.74-83.42,146.81-67.55,94.3,17.19,15.25,43.86,15.25,43.86S86.7,416.83-77.78,383.61C-134,372.25-210.7,396.37-278.41,437.73c.35,132.91.77,265.85.17,398.79l1.83.57,602,6.61S-267.38,620.62-258.19,479Z"/><path class="cls-4" d="M1.91,793.94c.59.7,1.07,1,1.94,0A3.86,3.86,0,0,0,1.59,793Z"/><path class="cls-4" d="M29.52,823.78a4.62,4.62,0,0,0-2.5,2.8c3.34.84,7.64.27,7.85-4a6.38,6.38,0,0,0-5.35,1.85Z"/><path class="cls-4" d="M16.82,803.78a1.87,1.87,0,0,1,2.81.24,5.33,5.33,0,0,1-3.12.4Z"/><path class="cls-4" d="M46.66,795.53a2.24,2.24,0,0,1,3.76-.4,3.77,3.77,0,0,1-3.12.08Z"/><path class="cls-4" d="M80,834.57c2.9,1.5-.53,4-.95.64Z"/><path class="cls-4" d="M88.88,807.91c-.72-1.8,2.68-2.8,2.88-.47.14,1.67-2.32,2.71-3.51,1.74Z"/><path class="cls-4" d="M83.17,787.59c.26-.34.64-.23.65-.83a7.36,7.36,0,0,0-.61,1.8c3.1,1.23,3.59-2.9.27-2.24Z"/><path class="cls-4" d="M96.18,774.26a3.31,3.31,0,0,1,.39-3.45,14.87,14.87,0,0,1,3,1.78,5.35,5.35,0,0,1-4,1Z"/><path class="cls-4" d="M81.9,779.66c-1,.9.17,1.67,1.86,1.21-.22-1.08-1-1.48-2.18-1.53Z"/><path class="cls-4" d="M122.84,823.15c2.52-1.13,1.29,2.28.24,3.44a1.66,1.66,0,0,1-.87-2.49Z"/><path class="cls-4" d="M124.43,801.56a9.52,9.52,0,0,1-1,1.28,1.91,1.91,0,0,0,2.54.24c-.2-.63-.67-.88-1.23-1.2Z"/><path class="cls-4" d="M67.61,827.91c.48-1.95,1.84-1.31,1.54.58a1.89,1.89,0,0,1-1.54-.27Z"/><path class="cls-5" d="M1.21,767.86c-.12.42-1.19.65-1.82,0,.42-.74,1.07-1,1.62-.4Z"/><path class="cls-5" d="M5.19,776c-.08-1.2-1.61-1-2.17-.24a9,9,0,0,1,2.36.44Z"/><path class="cls-5" d="M7.57,786.17C10,786,7.68,783.55,6,785a1.78,1.78,0,0,0,1.42.6Z"/><path class="cls-5" d="M33.25,771.24c-.29-.78-.8-1-1.41-.4.35.57.69.4,1.21.2Z"/><path class="cls-5" d="M32.25,818c.19.25.19.18,0,0-.82,0-.86,0-1.19.57.46.15.73-.1,1-.16Z"/><path class="cls-5" d="M27.87,830.35a7.44,7.44,0,0,1-.22,1c-.89,0-1.44-.46-1.33-1.33.67-.43.89-.21,1.16.36Z"/><path class="cls-5" d="M43.8,823.58c.39-1,0-1.49-1-.74A3.75,3.75,0,0,0,44,824Z"/><path class="cls-5" d="M5.19,836.12A2.57,2.57,0,0,1,4,838.24c0-1,.4-2.2,1.4-2.32Z"/><path class="cls-4" d="M10.06,735.48c.6.7,1.07,1,1.94,0a3.83,3.83,0,0,0-2.26-.94Z"/><path class="cls-4" d="M37.68,765.32a4.59,4.59,0,0,0-2.5,2.8c3.34.84,7.63.27,7.84-4A6.37,6.37,0,0,0,37.68,766Z"/><path class="cls-4" d="M25,745.32a1.87,1.87,0,0,1,2.81.24,5.38,5.38,0,0,1-3.13.4Z"/><path class="cls-4" d="M54.82,737.07a2.24,2.24,0,0,1,3.76-.4,3.79,3.79,0,0,1-3.13.08Z"/><path class="cls-4" d="M88.15,776.11c2.89,1.5-.54,4-1,.64Z"/><path class="cls-4" d="M.85,755.8c0-.88.39.65.39.92,1-.37,1.32.07,2.11.09a1.45,1.45,0,0,1-2.81-.7Z"/><path class="cls-4" d="M97,749.45c-.71-1.8,2.68-2.8,2.88-.47.15,1.67-2.32,2.71-3.51,1.74Z"/><path class="cls-4" d="M91.32,729.13c.26-.34.65-.23.66-.83a7.41,7.41,0,0,0-.62,1.8c3.11,1.23,3.6-2.9.28-2.24Z"/><path class="cls-4" d="M104.33,715.8a3.31,3.31,0,0,1,.39-3.45,14.94,14.94,0,0,1,3,1.78,5.36,5.36,0,0,1-4,1Z"/><path class="cls-4" d="M90.05,721.2c-1,.9.17,1.67,1.86,1.21-.21-1.08-1-1.48-2.18-1.53Z"/><path class="cls-4" d="M131,764.69c2.51-1.13,1.29,2.28.24,3.44a1.65,1.65,0,0,1-.88-2.49Z"/><path class="cls-4" d="M132.59,743.1a11,11,0,0,1-1,1.28,1.91,1.91,0,0,0,2.54.24c-.2-.62-.66-.87-1.23-1.2Z"/><path class="cls-4" d="M75.77,769.45c.47-2,1.83-1.31,1.54.58a1.88,1.88,0,0,1-1.54-.27Z"/><path class="cls-5" d="M4.38,714.77a7.44,7.44,0,0,0,2.21-2.19,5.92,5.92,0,0,0-3.17-1c-.72,1.73-2.09,3.51,1.16,3.15Z"/><path class="cls-5" d="M9.36,709.4c-.12.42-1.18.65-1.81,0,.41-.74,1.06-.95,1.61-.4Z"/><path class="cls-5" d="M13.34,717.56c-.08-1.2-1.61-1-2.17-.24a9.1,9.1,0,0,1,2.37.44Z"/><path class="cls-5" d="M3,727.71c-1.23.63-1.49-1-.4-1.61.46.18.33.4.4.81Z"/><path class="cls-5" d="M15.73,727.71c2.39-.18.1-2.62-1.62-1.2a1.75,1.75,0,0,0,1.42.6Z"/><path class="cls-5" d="M41.4,712.78c-.29-.78-.8-1-1.41-.4.36.57.69.4,1.21.2Z"/><path class="cls-5" d="M40.41,759.55c.18.25.18.18,0,0-.83,0-.87,0-1.19.57.45.15.72-.1,1-.16Z"/><path class="cls-5" d="M36,771.89a7.53,7.53,0,0,1-.23,1,1.13,1.13,0,0,1-1.33-1.33c.68-.43.89-.21,1.16.36Z"/><path class="cls-5" d="M52,765.13c.4-1,0-1.5-1-.75a3.71,3.71,0,0,0,1.16,1.14Z"/><path class="cls-5" d="M13.34,777.66a2.55,2.55,0,0,1-1.21,2.12c0-1,.41-2.2,1.41-2.32Z"/><path class="cls-4" d="M268.17,799.75c.46,0,.36-.51.93-.27-1.87,2.14-3.35-2.31-3.42-3.81,1.23-.5,6-.38,6.71,1.13.89,1.94-2.4,3.61-3.9,4.22Z"/><path class="cls-4" d="M253.57,795.94c-.59-.7-1.07-1-1.94,0a3.77,3.77,0,0,0,2.26.94Z"/><path class="cls-4" d="M208.81,794.35a2.24,2.24,0,0,1-3.76.4,3.79,3.79,0,0,1,3.13-.08Z"/><path class="cls-4" d="M292.19,712.07c.72,1.8-2.68,2.79-2.88.46-.14-1.67,2.32-2.71,3.51-1.73Z"/><path class="cls-4" d="M172.31,802.29c-.26.35-.65.23-.66.83a7.41,7.41,0,0,0,.62-1.8c-3.1-1.23-3.6,2.9-.28,2.24Z"/><path class="cls-4" d="M159.3,815.62a3.31,3.31,0,0,1-.39,3.45,14.94,14.94,0,0,1-3-1.78,5.37,5.37,0,0,1,4-1Z"/><path class="cls-4" d="M173.58,810.22c1-.9-.17-1.67-1.86-1.21.21,1.08,1,1.48,2.18,1.53Z"/><path class="cls-4" d="M132.63,766.74c-2.51,1.12-1.29-2.29-.23-3.45a1.66,1.66,0,0,1,.87,2.49Z"/><path class="cls-4" d="M131.05,788.32a9.52,9.52,0,0,1,1-1.28,1.92,1.92,0,0,0-2.54-.24c.2.63.66.88,1.23,1.2Z"/><path class="cls-5" d="M269.4,815.46c5.4-1.51,1.14,4.27.4.79Z"/><path class="cls-5" d="M276,814.46c-.27.7,1.18.77,1.17.28,0-1.09-.86-1.1-1.57-.48Z"/><path class="cls-5" d="M280.34,819c2.85-.63,1.34,2.46,0,.6Z"/><path class="cls-5" d="M281.74,803.12a1.89,1.89,0,0,1,2.21,1c-1,1.36-2.2-.49-3.38-.63a1.63,1.63,0,0,1,.21-.93c.44-.17.53.08.76.17Z"/><path class="cls-5" d="M259.25,816.65a7.56,7.56,0,0,0-2.21,2.19,5.92,5.92,0,0,0,3.17,1c.72-1.73,2.09-3.51-1.16-3.15Z"/><path class="cls-5" d="M254.27,822c.12-.42,1.19-.65,1.81,0-.41.74-1.06,1-1.61.4Z"/><path class="cls-5" d="M250.29,813.86c.08,1.2,1.61,1,2.17.24a9.1,9.1,0,0,1-2.37-.44Z"/><path class="cls-5" d="M260.64,803.71c1.23-.63,1.49,1,.4,1.61-.45-.17-.33-.4-.4-.81Z"/><path class="cls-5" d="M247.9,803.71c-2.39.19-.1,2.62,1.62,1.2a1.75,1.75,0,0,0-1.42-.6Z"/><path class="cls-5" d="M222.23,818.64c.29.78.8,1,1.41.4-.35-.57-.69-.4-1.21-.2Z"/><path class="cls-4" d="M89.21,786.73a13.38,13.38,0,0,0,0-2.83c-.51.41-3.14,2.35-3.14,3.14,0,2.06,2.44,1.68,3.19.33Z"/><path class="cls-4" d="M84.45,798.16c.46,0,.36-.51.93-.27C83.51,800,82,795.58,82,794.08c1.23-.5,6-.38,6.71,1.13.89,1.94-2.4,3.61-3.9,4.22Z"/><path class="cls-4" d="M69.85,794.35c-.6-.7-1.07-1-1.94,0a3.77,3.77,0,0,0,2.26.94Z"/><path class="cls-4" d="M134.61,758.48c-.66-1.26-2.72-.6-3.53.63,1,1.1,2.27.3,2.89-1Z"/><path class="cls-4" d="M128.57,767.37c-.1,1.44-.89,1.84-2.16,1.21,0-1.46,1.28-2.11,2.75-1.8.28.61-.18.63-.27.91Z"/><path class="cls-4" d="M42.24,764.51a4.61,4.61,0,0,0,2.49-2.8c-3.34-.84-7.63-.27-7.84,4a6.4,6.4,0,0,0,5.35-1.85Z"/><path class="cls-4" d="M54.93,784.51a1.87,1.87,0,0,1-2.81-.24,5.38,5.38,0,0,1,3.13-.4Z"/><path class="cls-4" d="M25.09,792.76a2.24,2.24,0,0,1-3.76.4,3.79,3.79,0,0,1,3.13-.08Z"/><path class="cls-4" d="M87,755.31A6.59,6.59,0,0,1,84.18,761,27.19,27.19,0,0,1,87,755.62Z"/><path class="cls-4" d="M98.1,757.53c-.33.53-1.95-.42-3.06-1.29a5.26,5.26,0,0,1,3.38.65Z"/><path class="cls-4" d="M79.06,774c0,.88-.39-.65-.39-.92-1,.38-1.32-.07-2.11-.09a1.45,1.45,0,0,1,2.81.7Z"/><path class="cls-4" d="M139.68,806.73c.09-.07.47-.09.27-1.22-6.06-1.8-1.32,9-.27,1.22Z"/><path class="cls-4" d="M4.14,760.38c-.47,2-1.83,1.32-1.54-.58a1.88,1.88,0,0,1,1.54.27Z"/><path class="cls-4" d="M27.13,820a13.06,13.06,0,0,0-2.5,1.34c.6.26,3.53,1.71,4.24,1.36,1.83-.93.37-2.94-1.18-3Z"/><path class="cls-4" d="M39.47,819c-.18-.43-.62-.09-.67-.71,2.77.68-.52,4-1.82,4.79-1-.87-3.09-5.18-2.07-6.49,1.32-1.68,4.32.49,5.54,1.54Z"/><path class="cls-4" d="M42.76,833.72c-.35.85-.41,1.42.89,1.73a3.77,3.77,0,0,0-.19-2.44Z"/><path class="cls-4" d="M60,734.58c2-3.78,7.84,5.21,2.66,8.28-4.83,2.87-4.57-5.66-2.94-8.13Z"/><path class="cls-4" d="M70.05,735.46a2.69,2.69,0,0,0-.58,1.72c1.52.92,3.59-.67,1.44-1.44Z"/><path class="cls-4" d="M40.83,851.49a1.87,1.87,0,0,1,1.07,2.61,5.29,5.29,0,0,1-1.78-2.6Z"/><path class="cls-4" d="M.2,836.33a6.59,6.59,0,0,1,6.33-.1,27.2,27.2,0,0,1-6.05-.05Z"/><path class="cls-4" d="M20.48,834.82c.77-.41-.41.65-.64.76.76.68.53,1.22.88,1.93a1.45,1.45,0,0,1-.67-2.82Z"/><path class="cls-4" d="M21.84,766c-.1-.05-.3-.38-1.21.31,1.18,6.22,8.62-2.93,1.21-.31Z"/><path class="cls-5" d="M14.64,765.93a7.83,7.83,0,0,0,1.56-.84c-.37-.17-2.21-1.07-2.65-.85-1.16.58-.24,1.84.73,1.88Z"/><path class="cls-5" d="M6.9,766.55c.11.27.38.06.41.44-1.73-.42.33-2.53,1.15-3,.63.55,1.94,3.25,1.29,4.07-.82,1.05-2.7-.3-3.47-1Z"/><path class="cls-5" d="M4.84,757.32c.22-.53.25-.89-.57-1.08a2.4,2.4,0,0,0,.13,1.53Z"/><path class="cls-5" d="M52.88,810.72c-3.81-4.11,3.28-3,.52-.71Z"/><path class="cls-5" d="M49,805.34c.75-.08.14-1.41-.29-1.18-1,.51-.58,1.28.29,1.62Z"/><path class="cls-5" d="M51.06,799.35c-1.86-2.24,1.58-2.32.53-.27Z"/><path class="cls-5" d="M43.4,783.15c.51-.73-.44-1.69-1.36-1.78-.33.87.48,1.34,1.36,1.33Z"/><path class="cls-5" d="M36.72,782.33c-.84.35-1.29,0-1.3-.86.82-.41,1.55.11,1.79,1-.26.33-.4.08-.58.11Z"/><path class="cls-5" d="M13.56,733.37a2.92,2.92,0,0,0,2.28.59c-.49-2.1-2-4.34-4.5-3.22a4,4,0,0,0,2.57,2.45Z"/><path class="cls-5" d="M6.05,746.18a1.17,1.17,0,0,1-.68-1.63,3.31,3.31,0,0,1,1.12,1.63Z"/><path class="cls-5" d="M31.52,755.69a4.14,4.14,0,0,1-4,.06,17.24,17.24,0,0,1,3.8,0Z"/><path class="cls-5" d="M33.47,762.52c-.39,0-.33-1.21-.16-2.08a3.27,3.27,0,0,1,.6,2.07Z"/><path class="cls-5" d="M18.8,756.63c-.48.26.26-.41.41-.48-.48-.42-.34-.76-.56-1.2a.91.91,0,0,1,.42,1.77Z"/><path class="cls-5" d="M18,799.81c.06,0,.19.23.76-.2-.74-3.9-5.4,1.84-.76.2Z"/><path class="cls-5" d="M36.26,805.39a1.89,1.89,0,0,1-.12-2.42c1.64.23.56,2.18,1,3.29a1.71,1.71,0,0,1-.92.24c-.36-.31-.18-.51-.2-.75Z"/><path class="cls-5" d="M58.58,819.21a7.64,7.64,0,0,0,3,1,5.92,5.92,0,0,0-.6-3.26c-1.87.15-4.07-.25-2.27,2.47Z"/><path class="cls-5" d="M65.63,821.17c-.43.09-1.12-.75-.82-1.61.84,0,1.33.52,1.09,1.26Z"/><path class="cls-5" d="M60.2,828.45c1-.62.11-1.87-.78-2a9.24,9.24,0,0,1,.69,2.3Z"/><path class="cls-5" d="M46.44,823.88c-1.12-.8.19-1.77,1.25-1.09.05.49-.21.48-.54.73Z"/><path class="cls-5" d="M52.26,835.21c1.26,2,2.38-1.1.33-2a1.78,1.78,0,0,0,.11,1.54Z"/><path class="cls-5" d="M39.59,753.1c-.45.25-.62.66-.94-.15.65-.55.8-.23,1.21.24Z"/><path class="cls-5" d="M6.74,855.92a2.53,2.53,0,0,1-2.44-.1c.88-.43,2.15-.65,2.71.19Z"/><path class="cls-4" d="M82.85,800.51a13.06,13.06,0,0,0-2.5,1.34c.6.27,3.53,1.72,4.24,1.36,1.84-.93.37-2.94-1.18-3Z"/><path class="cls-4" d="M95.19,799.52c-.18-.42-.62-.08-.67-.7,2.77.68-.52,4-1.82,4.78-1-.86-3.09-5.18-2.07-6.48,1.32-1.68,4.32.48,5.54,1.54Z"/><path class="cls-4" d="M98.48,814.25c-.35.85-.41,1.41.89,1.72a3.77,3.77,0,0,0-.19-2.44Z"/><path class="cls-4" d="M37,773.06c-.82,1.15.71,2.69,2.18,2.84.51-1.4-.78-2.15-2.17-2.13Z"/><path class="cls-4" d="M47.63,774.36c1.33-.57,2-.05,2.07,1.37-1.3.66-2.47-.18-2.86-1.63.41-.52.65-.13.93-.17Z"/><path class="cls-4" d="M55.92,816.85a6.59,6.59,0,0,1,6.33-.1,27.2,27.2,0,0,1-6,0Z"/><path class="cls-4" d="M52.81,806c.63,0,.53,1.92.26,3.31a5.21,5.21,0,0,1-1-3.31Z"/><path class="cls-4" d="M76.2,815.35c.77-.42-.41.64-.64.76.76.68.54,1.21.88,1.92a1.45,1.45,0,0,1-.67-2.82Z"/><path class="cls-4" d="M77.56,746.48c-.1,0-.3-.37-1.21.32,1.18,6.21,8.62-2.94,1.21-.32Z"/><path class="cls-4" d="M43,821c.73-.4,1-1,1.5.25-1,.87-1.27.37-1.92-.38Z"/><path class="cls-5" d="M70.36,746.46a9,9,0,0,0,1.56-.84c-.37-.17-2.21-1.08-2.65-.86-1.16.59-.24,1.85.73,1.88Z"/><path class="cls-5" d="M62.62,747.08c.11.26.38,0,.41.44-1.73-.43.33-2.53,1.15-3,.63.54,1.94,3.25,1.29,4.07-.82,1-2.7-.31-3.47-1Z"/><path class="cls-5" d="M49.77,800c-1.28,2.37-4.92-3.27-1.67-5.19,3-1.81,2.87,3.55,1.85,5.1Z"/><path class="cls-5" d="M43.44,799.45a1.62,1.62,0,0,0,.36-1.08c-.95-.57-2.24.43-.89.91Z"/><path class="cls-5" d="M73.67,780.34c.06,0,.19.23.76-.2-.74-3.9-5.4,1.84-.76.2Z"/><path class="cls-5" d="M92,785.92a1.89,1.89,0,0,1-.12-2.42c1.64.22.56,2.18,1,3.28a1.63,1.63,0,0,1-.92.25c-.36-.32-.18-.51-.2-.75Z"/><path class="cls-5" d="M102.16,804.41c-1.12-.81.19-1.77,1.25-1.09,0,.48-.21.47-.54.72Z"/><path class="cls-5" d="M108,815.73c1.26,2,2.38-1.1.33-2a1.78,1.78,0,0,0,.11,1.54Z"/><path class="cls-5" d="M62.46,836.45a2.56,2.56,0,0,1-2.44-.11c.88-.43,2.15-.64,2.71.2Z"/><path class="cls-4" d="M54.41,853.81a2.25,2.25,0,0,1-2.08-3.17,3.8,3.8,0,0,1,1.5,2.75Z"/><path class="cls-4" d="M73.89,806.31c0-3.26,3.82-1.36,1,.56Z"/><path class="cls-4" d="M46.12,810.6c-1.28,1.46-3.71-1.1-1.73-2.35,1.41-.89,3.47.83,3.15,2.33Z"/><path class="cls-4" d="M30.66,825c-.43-.07-.51-.47-1-.21a7.05,7.05,0,0,0,1.88-.27c-.32-3.32-4.22-1.87-2.11.78Z"/><path class="cls-4" d="M12.85,819.49a3.29,3.29,0,0,1-3.25,1.23,15.09,15.09,0,0,1,.23-3.47,5.4,5.4,0,0,1,2.75,3.09Z"/><path class="cls-4" d="M24.18,829.73c1.26.47,1.41-.92.23-2.22-.86.69-.85,1.59-.36,2.64Z"/><path class="cls-4" d="M44.14,773.43c-2.15-1.73,1.44-2.2,3-1.79,0,1.32-.61,1.83-1.81,1.92Z"/><path class="cls-4" d="M24.22,781.88a10.39,10.39,0,0,1,1.59.3,1.92,1.92,0,0,0-.95-2.37,2.24,2.24,0,0,0-.51,1.65Z"/><path class="cls-4" d="M73.62,820.37c-1.94.47-2-1-.18-1.64a2,2,0,0,1,.47,1.5Z"/><path class="cls-4" d="M89.21,742c0,.83.47,1.36-.9,1.22-.31-1.31.26-1.3,1.22-1.53Z"/><path class="cls-5" d="M143,800.33a8.15,8.15,0,0,0,0,1.78c.32-.26,2-1.47,2-2,0-1.29-1.53-1-2-.21Z"/><path class="cls-5" d="M146,793.17c-.28,0-.22.32-.58.17,1.17-1.35,2.1,1.44,2.15,2.38-.78.32-3.78.24-4.21-.7-.56-1.22,1.5-2.27,2.44-2.65Z"/><path class="cls-5" d="M104.78,757.54c-1.52-2.22,5.16-2.88,5.39.89.21,3.52-4.47.93-5.39-.69Z"/><path class="cls-5" d="M108.17,752.17a1.68,1.68,0,0,0,.79.81c1-.58.65-2.19-.39-1.21Z"/><path class="cls-5" d="M85.68,813.87c5.4-1.51,1.14,4.27.4.79Z"/><path class="cls-5" d="M92.25,812.87c-.27.7,1.18.77,1.17.28,0-1.09-.87-1.1-1.57-.48Z"/><path class="cls-5" d="M96.62,817.45c2.85-.63,1.34,2.46,0,.59Z"/><path class="cls-5" d="M114.54,818c.41.79,1.7.38,2.21-.39-.64-.69-1.42-.19-1.82.59Z"/><path class="cls-5" d="M118.32,812.47c.07-.9.56-1.15,1.36-.76,0,.92-.81,1.33-1.73,1.13-.18-.38.11-.4.17-.57Z"/><path class="cls-5" d="M144.39,820a4.14,4.14,0,0,1,1.76-3.57,17.15,17.15,0,0,1-1.76,3.37Z"/><path class="cls-5" d="M137.42,818.64c.22-.33,1.23.26,1.92.81a3.2,3.2,0,0,1-2.11-.41Z"/><path class="cls-5" d="M111.35,787.79s-.29.06-.17.77c3.81,1.12.83-5.65.17-.77Z"/><path class="cls-5" d="M98,801.53a1.89,1.89,0,0,1,2.21,1c-1,1.36-2.2-.49-3.38-.63a1.63,1.63,0,0,1,.21-.93c.44-.17.53.08.76.17Z"/><path class="cls-4" d="M3.56,670.21A3.33,3.33,0,0,1,4,666.75a15.47,15.47,0,0,1,3,1.79,5.36,5.36,0,0,1-4,1Z"/><path class="cls-4" d="M30.23,719.09c2.51-1.13,1.29,2.29.24,3.44a1.65,1.65,0,0,1-.88-2.49Z"/><path class="cls-4" d="M31.82,697.5a9.46,9.46,0,0,1-1,1.28,1.92,1.92,0,0,0,2.54.25c-.2-.63-.66-.88-1.23-1.21Z"/><path class="cls-4" d="M38.38,660.63c2.52-1.13,1.29,2.29.24,3.44a1.66,1.66,0,0,1-.87-2.49Z"/><path class="cls-4" d="M40,662.68c-2.52,1.12-1.29-2.29-.24-3.44a1.66,1.66,0,0,1,.87,2.49Z"/><path class="cls-4" d="M38.43,684.26a9,9,0,0,1,1-1.27,1.92,1.92,0,0,0-2.54-.25c.2.63.67.88,1.23,1.21Z"/><path class="cls-4" d="M36,663.31c-.11,1.44-.89,1.84-2.17,1.22,0-1.47,1.29-2.12,2.75-1.81.28.61-.17.64-.26.91Z"/><path class="cls-4" d="M47.07,702.67c.08-.06.47-.09.27-1.22-6.07-1.79-1.33,9-.27,1.22Z"/><path class="cls-4" d="M2.57,695.46c-.18-.42-.61-.08-.66-.7,2.76.68-.52,4-1.83,4.79-1-.87-3.09-5.19-2.06-6.49,1.32-1.68,4.31.49,5.54,1.54Z"/><path class="cls-4" d="M5.86,710.19c-.35.85-.4,1.42.9,1.73a3.8,3.8,0,0,0-.2-2.45Z"/><path class="cls-5" d="M-.63,681.86a1.89,1.89,0,0,1-.13-2.42c1.65.23.57,2.18,1,3.29A1.75,1.75,0,0,1-.7,683c-.36-.31-.17-.51-.2-.75Z"/><path class="cls-5" d="M9.54,700.35c-1.12-.81.19-1.77,1.25-1.09.05.48-.21.48-.54.73Z"/><path class="cls-5" d="M15.37,711.68c1.25,2,2.37-1.11.32-2a1.75,1.75,0,0,0,.12,1.54Z"/><path class="cls-5" d="M50.38,696.28a8.06,8.06,0,0,0,0,1.77c.31-.25,2-1.47,2-2,0-1.29-1.54-1.05-2-.2Z"/><path class="cls-5" d="M53.37,689.11c-.29,0-.23.32-.58.17,1.17-1.35,2.1,1.45,2.14,2.39-.77.31-3.78.24-4.21-.71-.56-1.22,1.51-2.27,2.45-2.65Z"/><path class="cls-5" d="M-.37,708.81c-.27.7,1.18.78,1.18.29,0-1.1-.87-1.11-1.58-.49Z"/><path class="cls-5" d="M4,713.39c2.85-.63,1.34,2.47,0,.6Z"/><path class="cls-5" d="M21.92,714c.41.79,1.7.38,2.21-.4-.63-.69-1.42-.18-1.81.6Z"/><path class="cls-5" d="M25.7,708.42c.07-.91.56-1.16,1.36-.77,0,.92-.8,1.33-1.73,1.13-.17-.38.12-.39.17-.56Z"/><path class="cls-5" d="M51.77,716a4.13,4.13,0,0,1,1.77-3.56,17.11,17.11,0,0,1-1.77,3.36Z"/><path class="cls-5" d="M44.81,714.59c.21-.34,1.22.26,1.92.8a3.22,3.22,0,0,1-2.12-.41Z"/><path class="cls-5" d="M18.74,683.74c-.06,0-.3.06-.17.76,3.8,1.13.83-5.64.17-.76Z"/><path class="cls-5" d="M5.4,697.47a1.89,1.89,0,0,1,2.21,1c-1,1.37-2.2-.49-3.37-.62a1.69,1.69,0,0,1,.2-.93c.45-.18.53.07.76.16Z"/><path class="cls-5" d="M75.53,815.06a7.44,7.44,0,0,0-2.21,2.19,5.92,5.92,0,0,0,3.17,1c.72-1.73,2.09-3.51-1.16-3.15Z"/><path class="cls-5" d="M70.55,820.43c.12-.42,1.19-.65,1.81,0-.41.74-1.06,1-1.61.4Z"/><path class="cls-5" d="M66.57,812.27c.08,1.2,1.61,1,2.17.24a9.1,9.1,0,0,1-2.37-.44Z"/><path class="cls-5" d="M76.92,802.12c1.23-.63,1.49,1,.4,1.61-.45-.17-.33-.4-.4-.81Z"/><path class="cls-5" d="M64.18,802.12c-2.39.19-.1,2.62,1.62,1.2a1.75,1.75,0,0,0-1.42-.6Z"/><path class="cls-5" d="M38.51,817.05c.29.78.8,1,1.41.4-.35-.57-.69-.4-1.21-.2Z"/><path class="cls-5" d="M39.5,770.28c-.18-.25-.18-.18,0,0,.83,0,.87,0,1.19-.57-.45-.15-.72.1-1,.16Z"/><path class="cls-5" d="M43.88,757.94a7.53,7.53,0,0,1,.23-1c.88,0,1.43.46,1.33,1.33-.68.43-.89.21-1.16-.36Z"/><path class="cls-5" d="M28,764.71c-.4,1,0,1.49,1,.74a3.71,3.71,0,0,0-1.16-1.14Z"/><path class="cls-5" d="M66.57,752.17a2.55,2.55,0,0,1,1.21-2.12c0,1-.41,2.2-1.41,2.32Z"/><path class="cls-4" d="M298.21,797.08a3.3,3.3,0,0,1-3,1.7,15.35,15.35,0,0,1-.29-3.47,5.39,5.39,0,0,1,3.18,2.66Z"/><rect class="cls-95" x="-280.73" y="-303.64" width="2447.07" height="1376.48"/></g></g></svg>