<svg id="Layer_3" data-name="Layer 3" xmlns="http://www.w3.org/2000/svg" xmlns:xlink="http://www.w3.org/1999/xlink" viewBox="0 0 439.86 434.31"><defs><style>.cls-1{fill:url(#linear-gradient);}</style><linearGradient id="linear-gradient" x1="25.9" y1="27.56" x2="428.13" y2="429.79" gradientUnits="userSpaceOnUse"><stop offset="0" stop-color="#f28705"/><stop offset="0.74" stop-color="#d7a400"/></linearGradient></defs><path class="cls-1" d="M330.44,434.81v.74l-.58.73-3.19-.16-2.86-.9h-3.2l-.68.26v.34l.06.6-1.7.33-2.51-.22-2.18-.16-2.51.32-.27-.6.82-.71,2.67-.11,1.73-.13-.34-1.07v-2.29l-1.23-1.15-.16-2.21-2.05-6.05-1.88-4-1.14-1.81-.17-2.37s-.16-2.78-.24-3.19-.25-2.79-.25-3.11,1.15-2.71,1.23-3a3,3,0,0,1,.41-.59h0v0l.15-.18h0c.78-1,2.11-2.45,2.26-2.62l0,0,.82-1.39-.08-1.23-1.23-.74-2.94-.41-1.81.25.58-1,1.8-.33,3.68-.33,2.7-1.64,1.64-.16,2.7,1,2.14,3.45h0l.4.65.57,1.39.08,1,1.89,1.88,1.06,4.1.9,6.71v1.64l.17,9.82-.58,3.44,0,.53h0l-.06,1.19,1.56,2.37.08.06h0ZM430.87,378.2l-3.9-2.6-3.63.61-1.95-2.08-8.13-3.1-7.44.49h-17.6l-3.05-.16-4.91-.49-2.54-1.14-3.89-1.79-1.3.06h0l-2,.09h-.29l-4.4,2.44L360,371.85l-5.92-.33-4.84-1.86h0l-1.93-.74-2.84-.38.22-.29.26-3.23,1-.5,5.42-1.14,8-2.81,2,.69h3.38l5.08-.33,2.54-1.14-.34-1.3-1.86.49-4.23.32-3.22-.65-1.25-.07,1.93-2.54,2-7.07,2.91-1.56,3.56-2.28,3.38-.49,3.05.65.34-1.3-1.69-1.15-2.71-.81L373,340.89l.34-2.93v-2l-1,.65-1,5.87-3.21,2-2.82,1.85-.91-6.24-1-.47v-7.85l1.35-4.23-.51-.49-2.2,3.42-1.35,5.05v2.87l-2.37-1.08-2.32-.61.12-1.83.51-3.58,2-2.12,1.52-1.14c-.34-.65-1.52-.17-1.52-.17l-2.2,1-2-2.12-1.36-1.3-.84.81,1.35,1.8.51,2.28-1,5.62-1.54-.41-3.72-1.46-1.36-4.24-.84.16-.34,4.89,3.89,2.61,7.45,1.95,4.74,2.28,1,6.68-3.38,8.31-3.73,1.8-5.58,1.3-6.1,2.12L340.32,365l-3.05-1.62-2.93-.39.39-3-.17-2.77-1-.32v1.3l-.68,3.1-1,1.49-2.82.17.94-2.48-.5-2.77-.85-3.42-.68-.16v1.46l.34,2.61-.68,2.77-1.86,1.79-.84-1.63-.85-3.09.17-3.1h-1l-.5,2.12v3.42l.26,1.78-1.45-.31-1-2.12-2-3.75-2-1.3s-.67.81-.17,1,2,3.26,2,3.26l.42,1.91h0l.59,2.65,3.05,1.46,8.46,1,7.79.33.95,2.77c-.43.21-.89.45-1.34.71h0l-.17.09-.06,0a3.79,3.79,0,0,0-.34.2l-.09.05-.32.2-.06,0-.29.19,0,0-.28.18-.06,0-.24.15,0,0-.19.12,0,0-.15.1,0,0-.09.06h0l0,0-1,2.12L332,375.6l-4.56,3.09-2.37,1-.34,1.3,1.52,2.45,1.86,1.46,1,1.14,1.45-.11h0l.58-.05,2.71-1.14,3.89-1.14,4.4.49,4.06,3.91,1.86,5,1.32,4h0l.38,1.17,1.35.82,1-.33,1,1.47,2.71,1.63,4.74,1.95,1.05,1.1-3.25,1.51-3.75,3.09h0l-1,.82-2.2,1-.34,2.61,1,2.6,3.89,8.48,1.35,1.63,3.56.81,4.74,1.3-.68-5-.46-.71h0l-1.23-1.89-.67-.21h0l-3.81-1.18h0l-.77-.24-1-2.45v-1.63l4.07-2.6,6.7-3,.07,2.55-.51,4.4,1.35,3.74.17,3.43-1.35,11.08-1.42,1.14h0l-.61.49L363.67,440h7.11l2.54-.65,2-.66-1.52-4.07-1-3.91.17-4.07.51-4.89,1.36-3.1.5-5.05,1.35-7.28,1.09,0h0l1.79,0,5.76-.49,5.41-1.14L400.4,402l2.72-.21,4.05,6.24,4.23,3.59,1.36,2.6-.34,1.47L406.66,423l-3.38,3.91-2.88,1.79-1.35,1-.51,1.31-.09.08h0l-2.28,2.2-.51,1.14,6.1.81,2.08-.6h0l1.3-.38,1.19-.81,1.52-5.21,1.56-2.21h0l1.65-2.36,5.59-5.21,2-2.61.22-1,.8,1.69-.17,1.63-2.88,8.64L414.11,432l-2,1.63-.85,1.31L409,436.7,407.68,439l6.09.81,3.73-1.3.88-.37,1.49-.61,1.52-1-.51-2.77-.67-4.73,1.69-4.4,3.72-7.49,1.69-3.26.17-1.31-3.55-3.74,0-.55h0l-.09-1.94h0l-.06-1.59,1.35-4.23,1.86-7.17-.33-7.17-.67-2.82c1.61.52,3.37,1,3.37,1l4.24.66.5-1ZM339.81,188.41l1.07-.38h0l1.7-.6,4.24-1.56,1.71-2.26,0,0h0l1.55-1.38,3.14-.74.37-.49,1.09-.56.35.62,5.39-1.39,9.77-3.85,5.57-1.47,2.83,0,4.54.91,5.54,1,6.1-1.17,6-2.15,8.38-1.95,6.17.33,7.5,3.42,6.19,3.66.79.87h1.42l3.23,1.32,2.14,2.71,1,4.1-.19,2.51-3-1.57,1.63,6.63-1.5,6.23.12,5.15.27,11.13.63,1.28h0l.49,1-.94,1.05-4.78.92-5.67-.36-4.46.58-2.84-.18.67-1.64-.62.09-2.61.36-6.82-.13-3.32.18,1.18-2.89,1.4-.52h0l2.35-.85-.36-6.61-.55-.14-1.3.25,0,.63L406,210.1l-.7,0,.34.51-1.17-.18-.64-.28-2.12.07,0,.77-1.15-.73-1.88.06-10.05-1.45-1.22,5.22-.36,2.51-1.38,2.24-1.26,1.23.73,1.12-.25,1.51-6.79.7-4.81.1-2,.1h0l-.35,0-.08-1.32,1.92-1.44,1.94-1.1.17-.62h0l.52-1.91-.12-.65L374.17,218l-1.34,2.89-6.74,1.37-4.52-.42.55-2.19,2.25-.56h0l2-.51.05-.12h0l.54-1.24.86-5.53-.68-6.45-1.23-7.52-1.36-.5-3.22-1-4.32-.09-4.68-.42-4-.8h0l-2-.39h0l-.56-.12-4.35-.43-.07-1.32-.14-.3h0l-1.37-2.95ZM423,217h0l-.43-5.13L421.19,208l-.43-.64-1,2.38.31,5.64.48,2.93.5-.16,1.95-.77ZM248.59,319.25l.54-.7-1.28-1.63-.78-.22.16-1.05-1.17-1.52L243.19,313l-5.49-.48-2.42-.06-.2-.89-2.73-2.67-5.07-3.84-4-3.63L209.38,296l-14.21-4.26-9.39-4.63-8.53-3.69-2.8-1.18-3.15-3.3-4.51-2.78h0l-.75-.46-6.69-1.21-4.23.56-1,1.41-.22-.26-.92.48-.69,2-.39,3.44.35.8-.56,1.67-.7,3-.8,5.13.29,4.76.76,3.52.27,0h.11l0-1.51.2-5.1.27-3.28,1.28-5.54.59-1.69.73.34h.47l-.64,1.93-1.1,3.89-.49,4-.35,4.42L153,302h.6l.11-3,.74-6.29,1.09-3.88,1-2.51.3,3.6-.09,5.09,1,5.3.56,4.08.74,3.63,2.1,6.4.56.56c-1,.2-2.86.61-2.86.61l-1.76.67-2.48,0-.27,1,1.56.29h3l3.36.31,2.09.24.72-.51.13,0h0l1.44.4-.24,1.1-.51,1.44.52.93.48.28h0l3.46,2,9.43,2.91,1.69,0,.38-.77-.53-.7.57-.2.61-1.1.81-.52.5-1.1-1.42-.86-3.13-.48.08-.33,6.41.8h0l.73.09,4.93.52,4.49.06,13.59-1.78,6-.62,7.66-1.21h0l2.62-.42,7,.32h0l1.63.28,4.6.43,1.33.51,2.1.78,3.24.59.37-.88,1.93-.25.18-.23h0l.36-.48Zm86.22,23h0l.57-1-.8-1.59-1.19-2.08-1.06-1.4.36-.23-.2-1.12-2.14-1.25-2-2.66-4.47-6.46-1.79-2.19a37.61,37.61,0,0,0-2-4.17c-.3-.2-2.88-3.78-2.88-3.78l-4.08-1.49-2.78-1.59-.3-.7-1.19-3.37L307,304.78l-2.29-1.09-3.18.19-2,.6-1.39,1.19-1.2,2.49-.2,2.88-.29,3.17h0l-.4,1.59.6.5-.9,6.36.4,2.28,1.39,2.59,3.38,5.86,1.49,1.49,1.29.1,2.09,2.49.65.4-.7-.06-.85.4-.05.45h0l-1.29.74-.09.33-.6.07-.75.6-.05.64.75-.39.69-.15.45.44.84.25.65-.25.7-.59,1.07-.08-.13.48.35.24.87.18.17,1.17.45-.75.09-.44.75-.06,1-.1.1-.49-.6-1h-.11l.31,0,3-.19.2-.8,2.29-.3,3-.3.73.22h0l.3.09h0l.66.19,4.17,2s1.42.88,1.83.56l.06-.06,2.19,2.08,1.59,1,.89-.1.7-.6,1.19.5,1.17.29h0l.8-.4-.4-1.29ZM437.66,355l-5.12-4.59-2.3-1.78-3-5.64-1.93-4.52-1.78-2.82-1.6-.84-1-1.46-2.81-.74-5.19.37-7.71-.29-4.16-1-2.07-.89-1.63-2.66-1.63-3.34-2.38-3L391.46,320l-1.7-.89-.26.05h0l-.22,0L388,317l-.82-.22-.51,1-.21,1.94-.76.14-3,2-.81,1.55-.45,1.19-.79.55h0l-3.29,2.27-.14.81.44.6.16.1h0l1.72,1.05,0,0h0l.37.23,1.19-.08,1.48-.22.37.07h0l1.18.23.75,1.85-.15,1.93.59.22-.15,1-.29.44.81-.29-.15.81.52-.15-.44,1.12.37,1.26.44-.08.52-.15-.15,1.11-.14,1.19.59-.07.44,1.7.52,1.71.67,1.11h.82l.29.74.64.64.4,6.18.07,6.23.23,1.93-1.26.44-.82,1,.15.81,1.15-.1,0,0-.15,1,1.56.37,2.67-.23.67-1.48.59-.81.59-5.49,1-3.56.81-1.93-.15-1.18.42-1.47h0l0-.09,3.33,1.48,3.12.3,4.15-.74,3.13-.19.58,1.3,2.07,3,1.78,1.85-.44,2.15-1.85,2.67-1.12.15-.66.22-.23,1.78,1.78.08,2.23-.08,1.55-3.19,1.93-3.11.45-.74-.64-1.07.93.55,1,2.45-1.34,4.52v0h0l-.21.35H418.9l-.74.52-.37,1.48,2.74.15,1.78-.59.52-1.71,1.11-3.93.74-1-.67-2.44-.81-3,.3-1.09c.28.63.49,1.1.51,1.16.08.22,1.93,3,1.93,3l2,1.41,1.81.52h0l6.65,1.92,1.85-.22.29-1.41Zm.89-91.05-.75-2h0l-1.27-3.45-4.76-7.3-4-2.67-1.63-.13-.18-.75-5.44-4.16-4.72-1.11-5,.46-7.86,0-6.66-1-2.58-1.36-1.68.09-2.58.49-7.9-.92-1.74-.61L377.07,238l-.93-.1-.49-1.6-1.57-2.2-.41.34-.37,2.1-.1.26-1.09-1.25-1.84-1.24-.38.73.58,1.58.17,1.64-.3.12-2,2.46-.81,2.25-.17,1.5-1.05,1.71-.12.14h0l-2.12,2.31-.22,1,.19.13h0l1.26.83,1.11.31.13,0h0l.67.19,1.35-.46,2.63-1.37,1.73.7,2.31,3.38,1.52,1.22,1.38-1.08,1,.41,1.13,1.53v.16l1.51,2.09,2.9,2.13.1.31,0-.26.59,1.58.94,9.58-.24,3-1.67,3.44-2,1.23-.41,1.21.26.1h0l.21.07h0l.39.14H383l.44,0h0l3,.15.55-.42.81-2.16,1.5-1.87,0-.79-.13-1.24h0l-.05-.46.6-3.24,1.13-4.89.08-.24.66,3.1.62,2.86h0l.17.8.22,2.75-.54,2-1.61.37-.76,1-.05,1.06,1.25.32h0l.33.09h0l.08,0,2.65-.05.41-1.21,1-1.77h0l.06-.12-.28-1.34-.15-4.24-.1-6.81-.21-2.8,2.11,0,8.14-.3,5.66-.54.8,3.77,1.9,3.47h0l.29.52,1.89,2.83,0,1.33-1.94,3.52-1,1.46-.56.5-1.88.52L408.8,280l.34.37,3.09,0L414,280l.46-2,2.61-3,2.07-2.54.68-1.29-.11-1.24-1.24-1.74.2-3.08,2.13,2.31,1.87,2.23h0l.3.35,2.89,2.26-1.54,6.1-.66,1-2.23.33-1.33,1.88.64.54h0l.13.11.16,0h0l1.17-.18,0,.12h0l.19.51h0l.84.12,2.06-.6.7-1.73.75-.76,1.67-5.3.53-3.59-.67-.65L427,268.36l-.5-2.5L427,263h0l.62-3.18-.37-6.73-.29-1.21.67.61,1.81,4.42,2.16,8.23L436,270l1.5.08,1.18-2.5ZM290.77,436.8l-1.55-1.26-2,.11h-2.78l-.25-1.16,1.27-.4.58.81,4.38-.11,3.53-.75-.75-.85-.7,0h0l-1.76-.08-1.59-2.19.42-.69,1.28-4.6.74-6.94,1.28-8,.21-3.31-.85-4.92L290,398.25l-3-2.35-2.89-.43-2.56.54-4.28,2.67-1.17,3.53-1.49,4.27-1.93,2.78-2.77.86-5.45,1.07-4.81.75-10,2.35-6.52,2.46-4.6,2.89-4.09,6.59h0l-.28.46-.7,1.48-5.18-.08-6,.75L220.29,430l.22,1.61,1.07,1,1.55.81L221,434.93l.12.29h0l.27.66h0l.26.65.86.22h0l.41.1.05.17h0l.16.58,1.6.32,5.24-1.07,3.59-1.55,0,.05,10.26.32,12.82-.22,9.09.1h10.79l1.2-.1.72,1.38.64.85,4.81.21h3.74l2.89-.21.32-.75-.16-.13Zm17.08-67.15-5.34-12.27-5.07-5.74-2.93-1.52-.67-.88-7.34-1.34-9.87.14-10-.94-1.46-1h0l-.28-.19-4-2.53-.83-.64h0l-1.44-1.1-4.4-7.2-5.73-4.54-.38-.06h0l-1-.15-1.47-3.39-1.4-.46s-.53.66-.53.86,0,1.73.05,2.77l-2,.84-2.67,1.86-.37.74h0l-.83,1.66-4.81.87h0l-.4.07-.4,1.07.17.68h0l.5,2.12,1.73,1.2,4.94,1.06,1.74,1.2.09,1.09h0l.31,3.32.61,1.95h0l.85,2.72,1.87,3.6,1.47,4.93,2.8,4.09c.49,2.76,1.47,7.92,1.47,7.92l1.06,7.07-1.46,3.6-2.54.54-.8,2,2.88.14-.21.12-.13,1.74,1.33.4,2.92-.1h0l1.22,0,1.2-3.21,1.33-3.46.4-6.14,1.07-6.14.58,0h0l3,.22,8-.67,9.88-1.73,2.66-.67,1-.19,2.31,4.73,2.4,2.93,2.13,2.54.14,2.8-.94,4.67-1.46.53-.8.4.13,1.33,3.87.14h1.07l.4-2.81,1.26-6.87,1.4,1.4-.26,3.07-1,3.67h0l-.12.46-1.73,1.08h0l-.4.26.53,1.73h2l3.07-.13L300.65,377v-1.2l-1.2-1.47L299,373h0l-.58-1.51-.13-2,.47-2.69.86,2.42,2.27,6.4,4,5.2,3.47,1.61s.4-2.14.4-2.54v-4.53Zm-24.78-58h0l.66,2,.8.43,1.17,1.11s1.16,2.27,1.16,2.46.19,2.08.19,2.08l-.43,2.71-.08.15-.72,1.44-3.13,3.14-5,3.25-1.89.76.85,1.64,2.08-.06,2.52-.07,2.4.37v.11l.55.08.09.25-.34-.09-.33,0,0,.24-.69,1.2h0l-.11.17.25.25.05.32-.51-.23-.2-.19-.94-.23-3.78-.12.19.39,1.76,0,.07.09.4,0,.19.23-.35-.06h-.09l0,.05h0l.48.62.46.92-.3.14h0l-.25.11.27.09.15.31-.07-.06-.43-.06-.33-.09-.06,0-2.35.51-.56.08.44.43-.35-.14-.52-.15v-.1l-2.59-1.18-.65-1-.18-.65-1.75-1.71-.22.1-1.41-.8-.37-.49h0l-.61-.8-1-.49L266,331l-3.14.79-3.31,2-1.11-.8-.8-1.41L260,329.5l.61-.92,1.42-1.84,3.13-2.65-.23.06c-.66.15-2.5.56-2.6.31l3.87-2.82.31-.56,1.41-2.27,4.12-3.62.24-.56.5-1.16,1.53-1.91.12-1.9.31-1.6,1.91-3.32,2-.8,1.72.13,2.29,1,.29.14.68.92v.06l1.22.31,1.59,1.16,1.11,1.41.37,1.6.06.92-.37-.24-1,.06-1.54.18-1.84-.35Zm-7.64,23-.37-.74-.64-2-1.33.62-.55.6,1.31,1.73.82.46,2.31.05h.78l-.25-.2-.39-.23ZM422.62,34.73h0l-.48.31-2,1.87-1.63.36-2.9-.3-1.39-.42-.24-.72,0-.09h0l.57-1.25.66-1.51-.36-.55-2.11-.06L411,31.9l-.37-1.14-1.21-6.28-.35-.86.33-.14,1.35.46L413,22.76l.48-.38h0l1.34-1.07v-.45H413.6l-4.8.45-1.34.83-3.85-1.77-4.31-3.22-4.8-3.63L391.78,12l-4.16-.55L384,12l-3.9,1.17-4.89,1.09L368,14.7l-9.86-1.27-6.07-2-1.36.09-7.06,2.72-6-.09L336,15.43l-5.8,7.87-.32,1.2h0l-.09.33h0l-.67,2.45.09,7.07,1.63,3.71.06.54.9,2.81L331.46,44l-1.27,4v1.72l1.24.58h0l.3.14.85,1.87h0l.42.94-.27,2.44.27.73,1,.07h0l5.59.44h0l1.46.12.1-.07h0l1-.65.18-.64-.63-1-1.36-.63-1.9-1.18L338,51.28l.9-3.71.17-1.2,0,0,1.09,2.08.27,3.53.27,1.18,1.27.54,1.81.72.91.82.45,2.53,1,.55,2.8.45,5.16.27,1-.63v-1l-1.53-1.8h0l-2.67-1.12h0l-.77-.33-1.45-3-1.81-5.26-.18-1.17V43.67l2.44-2.35.64-1.81,1,.18,7.7,4.25,4.61,1.9,9.6-.09,7.24-.54L382.55,43l.83-.16h0l.62-.11.05.1h0l.1.17.15.26h0l.87,1.55.82,1.08-.45,4.44.09,2.35.42,1.2h0l.12.34-.56,1.2h0l-.16.34v1L388,58.15l3.62.19,3.08-.46V56.07l-.3-.19,3.2-.08-.09-.9-.73-1.09-1.27-.72-.72-2.72.18-2.45.82-4.16.9-3.89-.22-.62,0-.2,1-.36,1.17.45.07,0h0l.66-.25.3-.93h.6l2.6,2.29,2.23.3.54.12.73.91,1.39,2.71L411.22,47l1.26.06,1.57-.57h0l1.94-.71.79-1.39.54-.72-1-1.51v-1l.08-.05h0l.45-.25h0l1.09-.6,2.47-.6,1.27-2.3,1.14-2.17v-.6ZM288.09,135.91l-.28-1.86-.82-1.38-2.64-2.42-1.85-1.58-1.83-2.82h0l-.77-1.2-8.2-3.25-5-1.65-5.61,1.32-5.77,1.49h-9.78l-10.34-.23-2.48-.49-2.47.11-1-.44-1.26.11-.83.61-1.21-.17-2.69.06-1.65.71-2.58.55-2.86,1.32-1.53.87-1,.13-.43.66-1.44.81-.14.14h0l-1.65,1.6-1.62-1.57-1.31-.33-.39.76h0l-.17.34,1.1,2.2,1.21.4v1.19l-2.08.55-.83.33-.22,1.65.72.55-.11.72-.17.38-2.86,3.19-3.13,2.8-.88,2.09.6,2.59,3.19,4.06,4.07.72,2.36.05.28-.27.6.38,1.27-.27,1.19-1h0l.57-.49.49-1.92,1.65-.61,1.82-.93.47-2.05h0L218,144h0l0-.18h1.65l2.42.55,1-1.65,0,.06h0l.34.51.61.92.46.26h0l1.63,1,.88-.28.65.36.12,4v2.85l.77,3.58-3.9,1.76-1.27,1.65v.49l2,.55,1.82.12-.19.43h0l-.42,1,.83.37h0l2.25,1,5.06-.88,1.43-1.92.19-.19h0l1.13-1.07.44-1.1.11-4.4.6-2.15.94-.49,2.58.27,5.61,1.21,9.29.61,7.92-.94,4.84-1.26.75-.6.29,1.26,1.43,2.25L271.26,156l-.49,1.38-2.53.38-.55.83v.88l2.38.27-.29.22,0,1.43,1.7.55,5.83-.82.9-.39h0l.64-.27.33-1.54,1.43-1.54.77-1.21-.33-1.32.82-4.51.5-.94,2-3.13,2-5.55-.35-4.87,1.17.69ZM290.64,105l-1-1.75-.16-2.06-.24-2.46-.79-1.11-.53.24-1.06-5.09.24-7.47-.48-5.4-.08-.25h0l-.28-.92,0-.14h0l-.38-1.22h0l-.24-.79h0l-.65-2.08L279.68,70l-.71-.31h0l-3.5-1.52-5.64.88-1.69,0h0l-1.7.06h0l-1.57,0h0l-.85,0h0l-5.08.15-3.42-.53h0l-.64-.1h0l-1.14-.17h0l-.9-.14-1.28-.2h0l-.32,0-.31-.17.78-1.18-.33-.19h0l-.83-.48h0l-.34-.2-.34-.31h0l-1.25-1.14h0l-.32-.3-1.1-1h0l-.74-.64h0l-.54-.48-.85-.57h0l-.44-.29h0l-1.23-.84L241.33,59h0l-1.06-.71-.5-.38h0l-1.07-.79h0l-.93-.69-1.87-1.4-.64-.12h0l-.23,0-2.38-.48-.47-.09h0l-.65-.13-.33,0h0L230.14,54l-1.47-.21h0l-.65-.09-2-.3-.91.35-.32.11h0l-1.38.52h0l-.15.06-1.69.63-3.27,2.18h0l-.53.35h0l-.49.33.79.48,1.24,1-.36.66-1,2-.55,1.12-.88,1.35L213.58,69l-.16,1.58.12.12h0l1.55,1.55.88.48.55.87.72-.24,1.27-.63.4-.64,1-1,.29-.1h0l.14,0,1.24-.42.32-.12h0l.1,0,.53-.2h0l1-.39h0l.73-.28.1-.11h0l.83-.91h0l.19-.21.31-.34h0l.39-.42.1.21h0l.7,1.47h0l0,.11.57,1.21.89,1.55h0l.9,1.58h0l1.39,2.44.29.37h0l2.52,3.24h0l.21.28,3.58,1.83L238.55,85h0l.53,1.3L240.27,88l.29.2.48,2.93.72,4-.32,2,.74,2.16.64.72.63,4.45.24,3.41-.16,1.43-1.43,1.43-.63.64-.24,1,1.51.56,1.16-.13-1,1.08-.08,1.35,1.43.16,2.54-.79.08-1.51,0-.07h0l.74-1.21.8-.55-.56-2.78-.24-8.1.4-.8v-5.4l.21-1.54h0l0-.13,0-.3h0l.29-2.16.11-.19h0l.1-.17.12-.22.22-.38,1.35-.23.95.45.15.08h0l1.61.77h0l.52.25L255,91l5.56.72.64,0h0l1.59-.1h0l1.86-.13h0l1-.06h0l1.37-.09.91-.06h0l1-.07.21-.1,1.61,2.25,2.54,2.78,1.67,1.19,1.43,1.67.4,3.09-1.35,5.49-.56,2.22-2.06.87-1,1.83-.07.64,2,.16,2-.16.63-1.67v-.48l1.27-.63.32-1.67.24-3.66.68-2.56.27.66.08,5.18h0v.14l-1.43,3.73-.55.8-1.12.87-.55,1.67,1.82.56,2.23-.64.32-1,.39-1.11,1-.48.39-3,1.59-7.47.24-1.27-.64-1-.55-1.47h0l-.06-.18-.58-1.53,0-.36v-.34h0l.13-3.51,2-3,1.21-3h0l.54-1.35v4.45l.71,4.37.89,4.21-.17.08-.4,1.75.95,3,1.43,2,1.67,1,.79-.32ZM359,262.24l-.38,0v-3.61l-.67-18.38-1.34-16-8-10.19-9.69-8.19-7.83-4.07h0l-4.7-2.44-13,.33-18.21,2.17-6.35-.17L276.24,197l-.58-.38-.42-2.13-5-6.24-3.9-2.45-2.12,2.34-1.71,1.35-3.8.82-15.32,3.73-2.56,2-2.17,2.12-.84,2.17-1.5,2.34L235,206.88l-.83,7.19-2.51,7.51-1.39,6.79h0l-.93,4.51L225,234l-6.35.83-2.17-.66v1.16l1.67,1.18,5.85.33,5-.76L228,245l1.84,8.69,5.68,7L243,259l2.68-5-.5-5.52-3-4-3.68.34h-2.67L236,248l2.34,3.68.83-.34-.33-1.17,1.33-2.34,1.34.67-1,4.51-2.51.34-2.67-3.68.17-6.68.66-6.18.93-3,1.41-.54,2.34-1.34h0l1.16.18,2.34-.5,4.34-3.68,2-.83,2.17,7.35,2,9.86,1,5.92-.69,8.33-1.45,13.26-1.11,10.8L250,288.19l.22,3.34,5.23.67h.39l-.16.45.55,4.24,5.46.66,12.92-1.33-.33-5.63-1.68-4.84-.83-13.86,1.17-9.7.17-4.68,1.33-5.17,15.21,6,12.86,2.84,14.33-1.45-.8,11.64-1.22,11.36-1.34,4.46-1.11,2.56,1,2.56.17,0h0l.52.08,4.1.67,12.36-.45.23-1.78-2-7,.11-4.8,2.12-8.35,1.8-2.28,4,11,.67,8.69-1.51,3.67L333,294.59l.67,2.34,2.34.34,2.38-.07h0l1,0h0l2.68-.08,3.17-.1h0l2-.06,4.85-1.34.5-2.33-2-3.85-1.51-9.69-.5-7.18,1.51-2.67,1.83-5-1.17-12,.5-6.69,3.18-11,.5-1.51,1.67,20.55.79,8.24-.62.06L356.1,268l1.11,4.9-.55,2.89-1,1.23,2.79-1.89L360,271.6l.33-6.13ZM445.4,154.62l-3.54-2.07-1.42,0-.36.26-.08.2-5-4.59-2.62-6-1.82-6h0L430,134.6l-3.31-4.52-2.56-2.19L420,125.81l-1.73-.19-5.12.54-5.33.15-9.22-.47h0l-1.42-.72-1.19-1.43-1.33-.85-2.16-2.2-3.4-3-3.22-3.49-1.75-.81h0l-.29-.13-3.21.42-5.12,1.56-.59,1.07-.36,1.28.66.9-1,1-1.35,1.24-.31.53-3.34,3,0,.45.62.85.52.89.5.33-.07,0,.17.24H371l.12.33.63,1.21.67,0,1.55-.68h0l.28-.12h0l.62-.27,1.1,1.43v1.33l.15,4v.06h0l-.21.87.53.32.84-.35.71,1.51.16,1.12.67.4.62.27-.32.71-.05.93.27-.3h.45l0,1,.35.89.32-.22.66.05.44,1.29,1.84,3.08,1,.86,1,1.74.15,4.09.09,5-.54,1.11-1.51.92-1.53,1.63,0,.63.93.07h0l.23,0,.22.4,4.18,0,1.6-.47.08-1.07,2.33,0,1.16-.71.23-1.82.81-.66.1-1.78-.48-1.25-.06-4.4.73-2.66,2.62,0,3,.51,1.65-.21.72-1.07,1.69-.21,3.52-1,3.74-1.57,3-1,3,.69,1.11.91h0l.08.08,1.45,3.83,1.08,3.56,2.64,3.54,0,1.06-3.71,3.53-1.11,0-.67-.23-.94.62-.53.17-.17.22h0l-.49.64h0l-.19.25-.23.58,2.44.46,2.05.1,2.71-.74,2.91-3,3.1-3.45-.79-2.18-.13-1.9,1.33,1.82.78,2.49-1.57,3.11-1,.26-1,0-1,.17-.67.93-.32,1.2,1.91.37,3.11,0,1.83-.92,1.45-4.44,1.66-1.41.27-1.2-.61-1.2-1.94-3.31-2.22-6.86,0-3.33-.2-2.34,1.73,5.06.94,2.54h0l1.33,3.61,3.49,3.45,2.65,2.13-.09.2,1.33,1.87,1.55.55,2.09-.3,1.91-.07ZM262.13,14.18h0l-.15-.57L259.66,12l-.87-.66-.31-.62-1.85-.77-1.2-.81.28-1.5-.31-.2-.93.75-.1-1.27-.3-.3-.82,1-.2.84-.16,0-2.52,1.64-2.05,3.08-2.51,5.13-1.65.88-.5.05h0l-.24,0-2.27.27h0l-.17,0h0l-.77.09-2,.55h0l-.52.14-.33.1h0l-.11,0h-.36l-.69,0h-.4l-.58,0h0l-.88,0h0l-3,.1H231l-.66,0h-.39l-.67,0-4,.1-4-.31-3.38.36-2.67,1.23-1.59,4.31-1.18,5.08-1,3.3-.23.76h0l0,.14L210,37.35l-1.82.7h0l-.44.17h-.05l-1.63-.4h0l-.22-.05-.74-.64h0l-.7-.59v-.15h0l-.1-1.8-.05-.72-.73-.2h0l-.61.52L203,36l.72,2.26,1.79,1.18,2.47.36,2.92-.56,1.44-1.85.92-1.9.12-.42h0l.45-1.64h0l.2-.73.15-.54.36-.62.77,2.82.05,2.82-.2,2.36-1.44,1.85.21,1.33.42.53h0l.86,1.06,1.23,3.8,1.18.57.41,1.18,3,.66,1-.29h0l.24-.07.05-.36.12,0h0l.39-.08-.3-1.23-.83-.82-2.1-.36L219,46h0l-.18-.37L218,43l.87-1.59.41-.26.16.31,1,.88,1.34,2.92L222,47l.52.77v.67l1.12.62,2.47.1.41-.28h0l.36-.23.51-.06-.26-1.33-.92-.46L225,46.48l-1.49-3.64.31-1.08,1.44-1.85L227,37.3l.4-2.91.16-.07,1.75.21L234.52,36H240l4.56-.82.89-.16.65,2.37.21,5.74v2.93l-.15.67,1.07.71v.77l.21.77,1.43.21h.3v.06L250,50l2.4.15h0l.36-.36,1.08.06.87-.31-.15-1.08-.77-.51-1.39-.72-.66-2.57.05-6.1.92-3.95,1.75-4.88.51-4.1-.16-1.49.57-3.28,1.23-3.49,1-.1,1.64.82,1-.1.77-.72,0-.59h0v-.23l.63-1.45h0l.06-.13.41-.51ZM435.85,66.49h0l-.08-.42-3.31-2.47-.66-1.5-.07-.37h0l-.06-.29-.88-.4h0l-1.4-.64-.14-1.2-.88-1.06-1.06.4-.73,1-.06,0-2,.31-2.6,1-1.79,2.07h0l-.15.17-2.25,1-4.18,1.32h0l-1.6.56-1.06.79h-7l-1.26,0h0l-1.78.05h0l-1.58,0h0l-1.1,0h-.49l-5.33.31-.42-.07h0l-.65-.1h0l-1.79-.28h0l-1.18-.19h0l-2.35-.37-1.4.27h0l-.7.14-2.17.42-1.24,1.16L378,69.63l-3.48,6.43-.25.93h0l-.08.3-.67,2.45,0,.16h0L373,81.51l0,.15h0l-.32,1.19-.2.72h0l-.33,1.2h0l-.9,3.28h0l-.12.43-.47.45h0l-2,1.89-2.6.39-2.64-1-1.32-2.56-1.24-.31-.39,1.1,1.67,4,3.43,1.14,3,.18L370,93l0,.24.92,1.1.28,1.1.09.32h0l1.53,6,.83.75.88,1.32,2.25.18,1.67-.07h0l.36,0,.09-.25h0l0-.1,1.32-.31L380,102l-1-.66-.53-.15h0l-1.57-.45h0l-.06,0-.57-2.24-.71-4.19.91-.83h0l.15-.14,3.53-2.93-.32,1.83-1.1,1.24.09,1.14,1.63,1.5,2.25,2.68,1.45,2.21.62.22,1,1.27,0,.53.57.31,1.94.13h2.25l.22-.57h.61l.71-.17-.13-.89-.84-1.45-1-.22-2.16-.44-1.68-1.45L384,95.35v-.7l1.1-.88,2.33-2.15h0L389,89h0l.64-1.07.28-.46.69-2.55,3.05,1.49,4.23.75,1.91-.39,1.5-.31h0l1.74-.36,3.53-.7,3.21.7,1.1,1,.13,1.43h0l.08.9.15,1.59,0,.69h0l0,1.21h0l0,1.32h0l-.09,3.52-.66,1.5.47.84h0l.15.26-.27,1.76.44.75,1.37.83.35.93,2.51.39,1.86-.24h0l.47-.06.09-.17h0l.13-.27.71,0,.17-1.19-.28-.25.55,0,.39-.23.71-.44v-.61l-1.28-1.45-1.1-.8-.17-.88.13-1.36.42-4.24,0-.36h0l.3-3,1-3.89,1.33-1.75.84-3.65,1.5-2.12,2.07-2.55.42-1.48h0l.2-.67.3-1.07.84-.91h0l.44-.49,2.51-.4,2,1,1,0,.3-.48.27-1,.06-.06h0l.19-.18h0l.54-.51.53-.79.26-.71.71-.92Zm-180.15,106h0l-.2-.89-.93-1.13v-.83l-.2-.52-2.07-.62-3.41-.51-2-1-3.31-1.75-4-.73-.44.27-.59-.89h-1.45l-.62,1.14,1,.74-1.72,1-3.93,6.71L229.47,179l-5.27,4.24-4.45,2.06-5.06.21-2-2.89L210,179.34l-.74-.34h0l-2-.9-4-.82-2.9-2.38-1.76-3.41-3-3.41-5.38-2-4.54-.62-3.1,1.55-1.76,3.1-3.41,2.37-2.89,2.38-1,2.38-.65,1.06L171,179.55l-4.34,1.55-1.75.83-1.24,2.89-.31.2-2.28,2.59-.34.43-2.55,1.32-1.24,3.41-1,7.24v12h-.52l-.62,2.59-.31,4.34.83,3.41H156l.1-1.14.21-2.27.83-3,.51-3.2L157,212h-.1l.1-10.74.42-5.17.72-3.93.47-.21-.78,7.34.93,10.23.41,6.62-.72,3.92v1.24l1.34,1.86,1.66,4,1.44,4.24-.51,2,.65.84h0l.07.09,1.34.73-.1,1.55,1,1.44,2.38.52,2-.11.81,0h0l.95,0,.21-.93-1.24-1.65-2.79-.83.1-1v-1.45l-1-1.13-2.31-5.67h0l-.17-.43-.52-2,.21-3.83.82-3.82,2.28-3.31.22-.82,1.53,2.79.83,3.72-1,4.54-.21,1.14.72,1.24,1.35,3.62-.21,2.48,1.55.51.62,1.34-.1,1.66,1.24,1.44,3.82.83.72-.72,1.86.1.21-.62-1.24-1.75-2.48-1-.52-.93-1.34-1.13L173.36,227l-.1-4.14.62-6.3,2.37-5.79.41-5.2,5.28,1.79,9.92-.2,8.06-1.76,1.67-.59h0l.08,0,.93,1.34,1.34,6.41-.61,3.51-.42,2.9,1.55,1.86-.21,9.19-.72,3-.2,2.38-.83,2,1,1.65,2.69,1h4.65l.2-.83.22-.24h0l.51-.59-.3-1.1,1.54.28.2-.52.83-.31v-.93l-1.14-1.24-2.58-1.45v-1.24l-.62-1.24-.31-4.75.93-7.34,1.34-2.79-.1-2.06.21-5.48.31-3.2,1-1.66,2.86-3.93.86-.41,6.3-2.06,5.58-3,6.1-5.27,4.44-7,2.17-5.58,1,.2,3.61-1.13,3.52-1.35,1.23.83,1.76.21,1.24-.62.17-.3h0l.34-.62h0l1.34-.73Zm83-62.15-1-3.78-.68-1.81-.9-.23-.08-.3-.23-3.86.6-6,.61-6-.15-7.25L336,76.92l-.42-1.11-.11-1.08-4.31-3.29-4.19-1.24-5.44-2.84-6.92-4.53L312,61.24l-1.82-3.51-1.47-4.65-1.8-.81-.81-1.12-1.93-1.59-2-3.28-2.94-8.39-2.38-8.39-3.41-9.86-1.24-4.08-1-1.13,1.66-1.29.37-2.12-.6-.38-1.59.68-1.72,1.21-1.68-1.17-.15-.94,1.29-2.5.6.08.53-.68L288.5,6.11l-1.74.07-.07.53.37.61L286.16,9l-.83,1.29-.33.09-.12-3.12h0v-.3l.61-.3L285.4,6l-2.79.08-.31.53.68.53V8.53l-.06,2.32-1.45-.06-1,.76-1.21,1.89-1.89.75-2.72,1.52-2.8,2.11-1.06,1.48.57,1.7.11.36h0l.05.15.18.62,1-.11,4.2-.57,2,.23H282l1.36-.46,2.15,2,1.7,8.51.68,9.75.48,1.69.74,2.65h0L290.31,50l2.61,9.29L293,68.5l-.8,5.66,1.25,6.24,1.1,1.42.41,5,.53,5.14,2,5.22.53,4.46.15,2.41-.15,1.74-.15,1.13.75,1.44.53,1.51.3,5v8.92l.15,1-1,1.44-.68,2-.38,2.42.46.46h1.3l0,0-.22,1.59,2.26.57,2.95-.46,1.13-.45v-.91l-.11-.4h0l-.45-1.53.51-.27h0l.73-.4.8-1.36-1-3.07-.8-8.95-.34-5.78.91-1.25-.07-.49h0l-.38-2.57,1.13-9.3L307.77,92l.51.38h0l2.55,1.89L318.54,96l1-.31.83,5.83,2.19,6,1.06,3.32-.53,2.57-2.42,10.28-.83,4-.83,1L318,131.19l.84.6h2.64l1.29-.38v-1.66l.6-1.13.45-.68-.6-1.82.38-3.47,2.19-6.2,2-4.46.46-1.61.26,1.76,1.13,2.83-.45,6.24-.8,6.8-.45,1.47-1.25,1.93,0,.09h0l-.66,2.41,2.38.34,3,.34.68-1.14-.57-2.49,1.14-.79v-3.06l-.11-4.54.45-6.12.06-.28h0l1-4.26-1.25-3.51.11-8.84,2.39-8.62.56-5.86.34,2.8-.45,4.54-.61,5.44-.07,4.31.64,2.67-.34.73.46,2.64.75,3,1,3.25.08,4.08-.45,2,1.2-1.59.76-5.06ZM214.21,400.12l-7-7.86h0l-1.87-2.09-8.74-7-3.91-.54-13.59,1.08L169,383l-11.44-2.56-3.63-.13-8.74,4.7-5.39,1.49-3.9-.41-4.84.94-.29.22-1-.42-1,.07-1.08.81-.47,1.21.12,1-.32.25-3.36,3.23-1.38,3.35h0l-.51,1.22-.49.46h0l-3.41,3.18-.12,0h0l-1,.36-.13,1.34.81.87h0l1.21,1.29.9.27h0l.85.26.67.95,1.21.13,4-.23h0l.71,0,3.37.14,2.55,2.15,4.58,1.61,3.23.41,1.34-2.83.79-.07.56,2.9.4,4.17,1.08,3.09-.27,4.44-.52,3.26h0l-.42,2.68-.41,3.49-1.07,1.21-2.56,1.22-1.08,1.07v1.48l3.23.54,4.31-.13,3.09-.81.68-2.15,1.48-.54.26-1.48.81-.41.27-1.34a15,15,0,0,1,.27-1.75l.15-.43h0l1.23-3.55.64,3,.81,4.84L154.74,435l-2.15.8L151,437v1.75l1,.3h0l.63.19h0l1.48.45,4.57-.26,2.32-.31h0l1.72-.23.67-3.1.28-.63h0l.26-.58-.41-1.08.54-1.61.41-1.34.94-.41.54-.81-.41-1.07.95-1.75.67-6.73V416l5,2.83,5.78-.81,5.25-.67,3.36,1.88,2.16-.35,1.34,3.85,2.16,3.9,1.74,3.37-.26,2.28-2.56,1.62-1.89,1.21-.67,1.48,1.89.67h4l-.76,2.56,1.47.27.16,0h0l.7-.07h0c1-.08,2.47-.14,2.64.22h6.19l2.29-.94,2.15-3.5,1.62-7.94,3.09-5.92.54-10.22ZM170.58,246.18l-.48-.64h0l-.08-.1-3.33-1.94-3.61-.65-2-.28-.93.56-3.05,1.3-1.49.37-3.24-1.39L147.52,242l-2.87.46-7.78,3-2.32,3-3.61,11.3-.65,2.5-1.85,1.57.07.31-3.87.62-6.39.46-7,.37-2.4.65-.54,1.32h0l-.3.72.93,1.2,6.3,1.85,7.22-.46,6.2-1.95L130,268l.06.09,2.88.1,2.5.18.19,0-.1.39.65.56,1.6.1h0l4.05.27,3.7.39h0l.57.06h.08l1.43-.45h0l.33-.1.65-1.3-1.67-.74-1.24-.05,3.55-.6,2.6-1.3,1.85-2.22,1.39.28.83-.09.28.42h0l.65,1,1.85,2.69-.28.93.47.37,1.34.12h0l2.55.25,1-.93-.09-.74-1.85-.28v0h0l-.27-1.07,0-.39h0l-.16-3.22.68-1.47,2.46.63.47,1.3,1.39,1.3,1.11.18.18-.74-.83-1.48-.65-2.13-1.29-.65-1.88-.9.67-2.71.56-2.59,2.41-1.48,2.13-.84.26-.66h0l.1-.24h0v0l.55-.37,1.11-2.6Zm-25.17,70h0l-.24-2.89-.22-.55h0l-1-2.56-2.05-2.87s-1.72-2.21-2-2.45-1.31-1.23-1.31-1.23a.39.39,0,0,0,.16-.41c-.08-.25-2.78-2.78-2.78-2.78l-.74-.66-.49-.49-1.47-1-.33-.49-1.39-1.56-2.92-1.86-.6-.84-1.13-.48h0l-3.29-1.4L116,291l-6.55-.65-1.64-.9-2.45-.25-1.31-.57-2.13-3.19-3.27-4.18-.51-.27,0,0L96.57,277l-.92-.43-.14.31h0l-1.21,2.7v.21c-.32-.62-1.09-2.05-1.09-2.05l-.93-.31-.18.67L92,279.31l0,1.27-2.39,1.78-.73,1.39-1.23,1.06-2.95,1.72.49,1.48,1.31,1,2.62-.25h2.05L92.7,290l1.72,5.4L95.65,300l1.64,2.7,1.22,1.48.22,2.75h0l.11,1.41.33,3.77.08,2-.57,2.13-1.07.41-.73.9.08.82,2.13-.08,1.06-1.07.55-2.09,0,.62.16,1.07-.57,1.88-1.07.24-.73,1.39.4.33,2.59-.26h0l.61-.07.81-3.11.15-1.88.18-1.84.58-1.68.75-5.85h0l.06-.53.28-.21h0l.79-.61,2.45.57,4.42-.08,4.56-.66L117,307.4l1,2.54,1.55,1.72,1.39,1.15.09.31h0l.16.59-.25,1.63-1.06,2.29-.33.33-.9.25-.82,1,.17.65h2.12l1.39-.08.17-1.14.41-.5.08-.81.9-1.72,1.31-2.38-.08-.25h0l-.25-.89-1.39-.74-.25-.85.41.36,3.69,1.88,1,.9-.45,4h0l-.13,1.11-1,.33-.9.73-.24,1.48.82.08h2l1.31-1.15.57-.49.17-3.11,1.23-4.34-2-2.45,0-.18h0l-.22-2,1.14-3.93.21-.81.69,2.45s.17,2.61.17,2.94.81.82.9,1.07,1.39,1.47,1.47,1.71,3.36,3.77,3.36,3.77l2,1.58h0l.7.55s3.43.57,3.68.73a13,13,0,0,0,2.13.41l.32-.9Zm-18,23-.18-.27h0l-.44-.63-1.32-2.71-.35-.21.69-.42.07-1-.9-.84-1.19,1.43-.41-.24-1.14-.41-.18-1.61-1-.76-1.25.9-.36,1.38-2.35.5-3.55-.28-5.07-1.67L104,330.08l-3.06-.42-6.11,1-9.31,4.73-3.27,3.4-.35,1.05-2.71,2.5-1,.7h0l-.72.52h0l-.92.66h0l-1,.77h0l-.66.47-1.11.51-.72.33h0l-1.17.54-1.31.6h0l-2.36,1.08-2.8,1.18h0l-1.64.7-.13.08h0L61.46,352h0l-.86.59L59,354.68l.06,1.05h0l.15,2.42,1.11.84,4.08.13h.16l1.68-.72h0l2-.84,1.08-.46h0l1.89-.81h0l1.16-.5.86-.6,1.14-.81h0l2.11-1.49h0l1.1-.78.2-.17h0l2.59-2.33L81.46,348l0,0h0l.29-.42a4.49,4.49,0,0,1,.09.83c-.07.21,3.9,4.73,3.9,4.73l2.29,1.32-1.53,1.39L86,357.46l1.67,1,3.56,1.39h0l.54.21,1.25.35.49.69h1.95l3,.07-.14-1-1.73-.77-3.27-.9-1.45-.83h0L90.55,357l.56-.35,1.46-1L94.51,357l1.88,1.46,1,.35.28.9,3.68.42.28-.7L100.56,358l-2.78-1-.46-.63h0L95.9,354.4l1.88-1.18,1.81-1.39.25-.84,1.06.42,5.5,1,2-.27.77.69,2.64,2.57,1.06,2.71h0l.19.49.34,1.67.91.41.41.7,3.15.17h0l.68,0V361l-1.11-.9-1.6-.7-.56-.9,0-1h0l0-.88.26-2.7,3.49,1.66.42.84-1.11,1.52.28.63,1.25-.14,1.67-1.74.14-1.39-1.26-1-.16-.15h0L117.79,352l-.82-1.32.89-1.39,1.88-3.27,1.59-1.31h0l.77-.64,1.36-.27h0l.73-.14,4.72-.21,1.32-.76.28-1.6Zm-35-90.82h0l-1-.71-4.11-2.42-.63-1.37-2-1.37h0l-1.81-1.26-2.34-.94-.29-2.95L80,235.55l.32-.32,2.84-.21,2.84-.84,3-3.48-.53-.63-2,1.79L83.55,233h-2l.73-2L85,227.13l.52-1.58-.84-.11-1,1.79-2.21,2.11-2.64,1.89-1.57.42L75.87,231l-.11-2.42,2.42-2,1.9-2.11.84-2-.63-.31-1.48,1.89-3.15,2.63L73.87,228l-3.06,1.15-1.36-1.68L68,222.81l-.52-3.16-.32-1.58-.74.21-.1,2.63.21,3.58v2.43l-1.37.94-1.49.36h0l-1.14.27-2.11-.84-1.68-1.37-2.53-3.89L53.66,219l-1.16-4.21-1.06.53.64,3.36s.73,2.32.84,2.64,1.16,2.84,1.16,2.84l.21,2.31L53.44,228l-4.1,4.63-3.58,2.63-1.47.53.19.34h0l.23.4,3.37-1.37,3.47-2.42,3.16-1.79,3.68-.85,6.11.85,8.63,1.79L76.29,235l1.58,3.79.46,1.09-1.65.24-2.18-3-2.11.64,1.16,2.52,1.68.76-1.78,2.51-4,7.47-2.32,3.79-2.32,1.58-3.26.11H57.87l-4.43,1.15L50.5,258l-9.27-.42-8.84-1.16-2.42-.1-4.11,2.1-7.68,6.95L15,267.55,12.7,268l1.69,1.61,2.67,1.13.75-.22.37,4,2.53,6.88-.57,6.31-2.38,3.65-1,1.83.7,3.36L17.06,305v1.82l.84.7.56,1.55.42,1.12,3.09.7,2.38-.28v-1.68l-2.52-1.27-.56-1.54-.85-.7L20.14,297l2.33-1.55L26,301.87l2,4.49-.28,1.82.42,1.27,1,.14v1.26l.7,1.54,4.77.57L34,310.71l-2.25-1.4-.35-.91-2.73-8.22-.43-2.94.85-2.11,4.21-3.89,3.37-3.9,1.13-4h0l.13-.46,2.84-.74,3.37.32,6.74.73,6.31,1.16,3.83-.3-.49,7.39-.14,4.21.42,2-.28,2.8L60,305.94l-.57,1.68.85,1.27.42,2,1,.7,3.65.28.42-.84-2.1-2.67-.71-.56.28-2.38,1.13-9.55s.27-.86.58-1.89l.51,1.93,1.36,2.1,1.53,9.87h0l0,.34-.31,1.9.31,1.26h1l.42,1.05.63,1.16,4,.11-.21-1-1.68-1.16v-.63L71,309.24l-.31-1.48L70.08,298l.63-1.47.74-4.53.94-7.37,1.28-1.06h0l.62-.52L76,280.5l3.27-5.9,4.31-4.84,2.84-6,.74-5.79L85,255.65l.21-1.89.38-.17h0l.93-.39h0l.9-.39,3.26.11.53-.95.84-.63.49-.54h0l.67-.72v-1.16Zm15.24,152.58-.61,4.79.92,2.16,1.7,2.17,1.08,1.23-.15,1.86-1.55,7L106.94,431h0l0,.1.31,2.78-.93.62-.77-.46-.06.05h0l-.87.72-.31,1.7-5.71.77-1.08-.31.15-.92,3.4-2.78,1.24-2.48,1.85-2.62,1.08-12.21-2.16-3.86-1.36-3h0l0-.09-.15,1.05.16,4.17.77,3.24-2.78,1.7-2.94,2.94-6.8,11.28-.61,2.16-1.24.93-.69-.31h0l-.7-.31L84.83,438v1.23l-6,.16,2.78-2.79.77-.34h0L83,436l.16-1.09,1.54-.92,2.48-3.71h0l.62-.93,5.56-10.66.47-3.55-.93-3.56-2.16-4.32-1.24-5.57-1.24-1.39-4-1.39-5.72,2-8.5.62-8,.15L59,400.94l-.78.07.92,8.14h0l.17,1.53v4.48L58.71,417l.31,4.17.62,6.8.62,2.17.93,2.93-.78.16-.92-.16-.62,1.24.31,2.62L58.71,438l-7-.16a.7.7,0,0,1,.06-.17l0-.09.08-.14.07-.11.11-.16a1,1,0,0,1,.09-.13l.13-.17.1-.14.15-.19,0,0-.56-.68h-.93l-2,3.56-.46.92-5.25-.15-.93-.47,2.63-2.78.46-.92,2-1.24L49,433.39l.31-2.63-.62-9.27-.31-2-.62-1.69.16-1.86,0-.62h0l-.26-3.09L46.35,406l.31-3.09-1.52-1.11h0l-.18-.13-1.85-2.47-.62-3.71-4-2.47L35.69,390l-3.24-3.4-.16,3.86-1.85,2.94-1.24,2.16-.62-1.39L27,392.91l-.31-4.33L25.18,386l-2.31-1.08-1.39.78-2.17,2-1.39.16-.8-.57h0l-.15-.11-.12-.09H15.6l-2.31.46-.78-.93-.15-2.47v-2.47l3.4-4.95,2.84-2.84h0l.09-.09-.15-1.55,1.08-1.7,4.85-3.67.67-3L22.71,362l-4.29-.46-5-2.55L8.8,354.36l-1.62-2.67-.58-2.08,1.05-.12,1.27,2.9.7-.12-.12-3.59.58.58,1.51,4.17,2.89,3L17,357v-1.39l-1.5-3.24-.12-1.86.93.35,1.5,2.78,3,2.2,1.62-.23.23-4.05-.81-3.37.46-1.62.93.58,1.51,6.95.58,3.25,1.16-.35,1.15-4.29,1.51-8.46L28,341l-.93-1.86,1.28-.34,2.09,3.24,1.15,4.52-.11,1.16h.93l1.27-3.13s.46-2.78.46-3.13.82-.34.82-.34l.57,3.36.47.81,1.27-1.05.7-3.47.58-.58,1.16,1.27V345l1.39-1,1.27-2.67.47.58-.82,2.67.58.81.81-.7.35-2.43.7.35L45,345.2l1.39.47a4.49,4.49,0,0,0,.93-1.05,14.48,14.48,0,0,0,0-2.2l-.58-1.51.93-.23,1,2.9.29,2h0l.52,3.75L46,354.59,41.37,358l-3.12,2.11.57,2.52-2.59,2.28,7.65-.38,7.88-.47,3.55,1.24,5.1,3.4L76,369.89l10.35-.16,4-1.7,5.41-.77,8.8,5.25,6.65,6.34,1.85,6.33-1.85,2.17-1.4-1-.61,6.27ZM52.38,432.46a16.91,16.91,0,0,1,.65,3.59c0-.06.11-.12.16-.19l.07-.08.24-.27h0c.77-.88,1.49-1.65,1.49-1.65l.93-2.31,1.24-1.86-1.08-4.63-1.55-6.49L54,416.13l-1,2.74-.62,5.56ZM65.24,316.62l-4-1.25-1.25.38h0l-.92.28h0l-.75.22-2.25,3.56-.26,2.09.57,2.4.27.34-.68-.13-1-.15-.7-.7h0l0,0-1.46-.78-.42-1.2-.74-1.29h0l0-.07-.81-.52.13-.32,0-1.14-.14-.85-.57,0-.85.76-.44-.62-.39.07-.36.53.18.86.09.81-2,1.13L45.9,322h0l-.55,1.13h0l0,.06-.1.41,0,.08h0l-.21.39.78,1.52h0l.32.12h0l.1,0,.21.42.47-.06,1.2-.05.73.63-.21.83-.89.47-1.09-.73-.84-1-.47-.05v.26l-.31-.05-.32.26.18.6h0l0,.13.21.84.68.26.26.36.73.94,2.62,1.41.83-.05v.08h0l.2,2.59,1,1.61.25.69.57.83-.58-.09h0l-.36-.06H49.66L49,337l-.26.94.37.21.1.37h1.94l3.18-.16,1,0h0l1,0,.19-.51.44.14,2,.11,1.15-.57,0-.14.16.12h0l.47.34,1.15-.11,1.3-2.14,1.52-3.92-.79-3-1.2-2.88.21-1.88.68-.26.52,1.26,1.36.83,2.14-.73.63-3.87Zm35.6-290.73-.31,4-2.9,1.83-1.83-.68-.45-.28-.1.09-.63-.42.07-.08-.49-.3-5-1.38-.66.07,0,.16-.74.06,0-.15-.2,0,.15,2.67-1,9.46L83.29,52.83l0,.2h0L83,58.4l-4.73,5.34-.84,6.95-.84,6.48-.07,4.21h0l-.08,5.41.84,5,1.9,2.14L80.54,97l-6.18.61L72.75,97l.31-2.45-1.37-1.29-1.76.15-3.05-.69.23-1.45-.46-1.14-.76-1.91L66,81.68h0v-1l.92-7.32-.15-7.56-1.17-2.67-4-.61-5.19-.46-9.77-.84L39.5,58.33l-4.22,3-3,4s-2.67,6.34-2.83,6.57A15.82,15.82,0,0,0,29,74L30.41,81h0l1.13,5.65,2.14,2.06.31.84.68.68,0,.12h0l1.11,3.16-.54.39-4.58-.46-2.51-1V90.83L29,89.54,29,88.16l-1.6-1.83.53-2.75L26.2,75.34l-1.45-2.61-.08.17-2,3.13,1,6.49,2.06,8.31L28,92.28l.36.56h0l.33.51.92,3.36-.84.46L24.52,96.1,21.39,95l.77-2L21.09,90.3l-.69-1-.61-4.58-.15-5.88-.36-1.51L19,79.62l-2.06,4.57-.69,2.68.61,1.9-.45.23-1.07-2.29-.23-2.36-1-1.91-1.3.69v-.69l.84-.92s.84-2.67.84-2.9-.61-7.55-.61-7.86a45.8,45.8,0,0,0-2.52-4l.92-3,.61-4-.61-7.25,1.29-10.3,2.83-5.19h2.86l0-.08,7.25-5.88L33.07,31l8.32,2.9S46,35,46.35,35l4.28,0h1.22l5.11,0H57l4.35-1.67,2.26-1.51,0-.4,2.9-5.8L69.11,21h0l.2-.36h0l3.44-6.08.7-.65h0l.18-.17.48-.45h0l.23-.21h0L76,11.56h0l.46-.42h0l0-.06.37-.06h0l.39-.06h0l.38-.06.18,0h0l4.67-.74h0l2.17-.34h.14l1.92-2.06.46.32L87,8.63h0l-.32,1.28L88.4,10l1.12,1.12,0,0h0l.66.67,1.22,1.68-2,1.14-.31.06L91,17h0l.77.95L95,20.85l3.34,2.31,0-.23.57.63,0,.08.82.72ZM72,82.1l0-1V73.89l-.73-4.1L71,73.21l-1.15,6.48-.1,4.57h0l0,2.22.23,2.6,1.83,1.16v0L72,82.11Zm85.32-6.18-.14.55-1.76,2.84h0l-.13.22h0l-.37.59-.37-.33-.13-.32-2.36.23-1.47.55-2.4.46-3.32-1.06-3-1.1-.79.6-.5,1.24.18,1-.51,3.18.46,3.23a3.47,3.47,0,0,1,.42.74c0,.14.46,1.61.46,1.61l1.57,1.75-.32.51-1.83-.28h0L140.2,92l-1.43-.51.23-.83-.78-1.52-.37-1.34-1.34-3.65-.65-.68-.46,3.31,0,1.34,1.57,1.2,0,.6h-1.52l-1.75-.18-.56-.7L132.4,82l-.41-.51-.79-1.23-1.52.73-3.32,1.43-3.74,0-1.79-.69-4-1.25-2.31-1.07h0l-.09,0L113.26,81l-.37.92.23,2.3-.55.65-1.34,1.8.14,1.29.14,2.08,1.43,1.66V92l-3.49.18h-.11l.09-.69-.55-.74L109,89.2l-.09-.3-1.34.07-1.3-.74,0-1.47-.79-1.43-1.2-5.08-1.15-2.12-.3-2.31L102,74.9l-.6-4.15L101,69.37l-1.13,2.07-.69.19-1.57,1.52-2,.55-.74-1,1.07.14,1.29-.27.92-.79-.6-.09-1.11-.55L95.13,68,98,66.65l1.8,2.53.84-1.31-.24-1,2-3.5,4.2-2.77,3.86-1.4h0l4-1.46,7.33.18,3.23-.09L129.45,59h9.6l5.21,2.08,1.52,1.55h0l.69.71,1.16,1,1.29-.72,1.29-1.43,4.15-.88,0,1-1.62,1.15-.7,1.25-.13.55L151.36,67l-.11.28.3.23.6,1.75.32,1.9,1.94,2L156,74.58l.87,1.15ZM99.15,69.55l-.51-1-.92-.83-1,.51-.14.65,1.16,1.84,1.1-.32ZM225.69,90l-.16-.31-.56-.38-.89-.42-.14-.41h0l-.07-.2-.47-.51-.29-.85h0v0l-.62-.36-.29-.33-.43-.83-1.06-.54-.29.57h0l-.18.33-.76-.8-.83.22-.4.73-.39.09h0l-.23.05.18,1.42L217,89.2h0l-.32.68-1.67,4-.5.58-2.79.26-3.66.61L206.84,95,205,93.8,204,91l-2.14-1.2-.53.41h0l-.2.16h0l0,0,0,.8-.32.3-.17.16h0l-.63.59-.06,0h0l-.07,0-.63.27h0l-.33.58.22,1v1.23l-.25,1.24.43.9.76,1.09.95,2.75h0l.32.94,1,2.11,2.32.79.47.77,2.68,1.44,1.67.8,1.92,1.92.4.16h0l.14.06.58,2.25v1.59l-.83.25-1.34.55-.18.14.09.06h0l.09,0,.58-.14.5.07,1.71-.32h0l.22,0,1.19.61,1.31.29,1.05.44.36.29h.14l-.29-.47-.16-.14h0l-.42-.34-1.52-.72.58-.18,1.56.07.36-.14.87.32.11-.22-.94-.5-.4-.33-.91.22-1.05.07-1.52-.14-.51-.91-.18-2.79.12-.07h0l.6-.33.9-1.37,1-1.82,2.39-.9,2.5-1.38,1.09-1.52.83-.8.11-1.09.54-1.12-.21-3.88.1-1.19-1-2.1-.26-1.42.06,0,.27,1.1.68.11.44-.4.45.24.33-.84.1-1.24.87-.12Zm-37.6,63.65,1.15,2.3-.65.66-2.8-3-1-10.6.49-1.56-1.56-6.91L183.33,120l-3.87,16.73.91,3.37.41,3-2.88,3.61.33,7.81.08,1.48-1.8,1.56-.33,1.48v0h0l-1.06,2H169.6l-.24-.65,2-2.88.49-1.07,1.48-1.15-.74-8.79-.16-2.06-.52-1.11-1.12,4.89-1,3.46.33,2.87-.91-.24-.65,1.47.08,2.22-1.56.42-3.87-.5.09-.82,2.71-3.12.49-3.37.74-8.22-.22-1.15-.6.33.33,2-.91.41-1-1.73-1.56.58-.58,2.88-1.31.08-.17-2.39-1.31-.57-1.56,1.89-.74-1.07.49-2-2.05-1.56-1.45-2.4-3.65-.4-11.34,1.89-10.67.25h0l-1.32,5.26-.66,3.37,1.24,8.38-.91.33-.33,1.15-.74.82v3.45l-4.85,1-.16-.82-1-.17.94-2.92-.77.13-2,.16-1.57-.73,1.65-2.63,1.64-.91-.41-1-1.23-7.24-1.23-2.87-.79-5.72-2.42-1.1-3-5-3.45-6.74-6.08-4.1-4.44-2.88-1.89-3.12L94,114.46l-4.61.9H85.2l-.74-.9-1.56.08-1.15-1.4L81,109.86v-1.15l2.22-.83,6.25-4,.16-.74,7.94-4.91,0-.11-1.64-.33-3,.42H91.12l-1.23-2,.08-2,1.31,1.64,2.88.74,3.53-1.06,2.63.74,1.07,1.89v.24l.5-.74,4-1.39.74,1.06.08,1.32-2.65,1.56,1.91,1.07,1.65.33,5.23.42.84.06h.09l5.59-.9,2.71-.75h0l3.54-1,2.54.49,7.07,2.22L139,103l1.15-.07h0l7.64-.5,6.72.57h0l6.85.58,3.77-1h4.36l8.14,3.12,5.25,5.4h0l1.07,1.1,0,.86.69,1.19.66,20,1.81,7.32,2.71,4.76Zm-64.84-.74-.74-7.73-.06-.08,0,2.88.16,6.57.31.65ZM70.71,122.7l-.21-3,.33-2.51-.57-2.29L68,113.35,66.6,111.7l-6.06-1-5-.53-7.19-.09-5.49-.28-5.59.46L34.83,109l-1.28-1.54L30,106.24h0l-.06,0,1.1-1.38.13-1.59-1,.16-3,1.45-1.29-.22-1.13-1-.85-.7-3.43,1-2.12,2.09-.36.63-.66,1.15.95,1.06-3.51,3.79-.94.8-.09.79.22,1,0,1,.57.33h0l.23.13.84,1.06,1.5-.42,1.6-1.16,1.23.14,1.58.06.53,2.72,1.26,1,.07,1.94,1.06.63.68,1.86H27l.56,3.39,1.54.55.25.78h0l.3,1s1,3,1,3.13,2.83,4,2.83,4l2.25,1.5L36,140.1l.5.47.25,3.28-.4,2.39-.86,1.37L35,148h0l-1.11.93v.78h0v.43l1.77.12,1.52-.12.1-.28h0l.45-1.26,0-.73.45-.18h0l1.29-.5-.28-.9.14-1.1.43-4.83h0l0-.43,2.81-1.2.07-1.53.39-.93,3.78.16,6.49.79,3.61-1.05,2.35.94,2.93,1.78,1.05,2,1,1.49-.1,2.13-.64,2.34-1,.47-.59.75h0l-.1.13-.79.21-1,1.84h0l-.29.52.31.17.79,0-.16.5,1.22.13,3-.42.12-.36h0l.32-.93-.08-.55,1.32-.41-.12-1.7L66.9,145l.92-3.15h0l.21-.73-.34-1,1.38-3.64.85-6.49.87-6.07-.08-1.2ZM194.59,82.4l-.85-1.7L192,76.6l-.75-.94L191,73.4l.55-4.44-.05-2.35-1.4-2.5h-.4l-.1.35-1.25,3.45.3,2,1,3.54-.2.56-.75-.53h0l-.45-.33-.46-.57h0l-1-1.24h0l-.66-.83-3.1-2.1-2.5-1.1-.5-.25-.94,1.15.7,1.8,2.39,1.69,3.55,3.3.25.6-.4,1-1.15,1.4-.24,0h0L183.19,78h-1.4l-6.64-1.5-4.55,1-2.27.76h0l-2.68.89-2.3,6.25-.55,5.55L165.05,93l.9.5-.25,1,2.05.2,2,.35,4.3.85h1.2l.1-.5h.4v-1l1.7-.55,1.66-.63h0l.08,0h0l.11,0,0,.35,1.94.65.8.75,2.2.3,2.25.45.71-.35h0l.19-.1-.15-.7-.08-.09,1,0h1.55v-.6l.35-.3-.25-.4-1.55-.85-1.2-.38,1.3-1.57,1.5-2.19.35-1.9.75-.5.05-.7H193l1.2-1.25,0-.09h0Zm-3.21-36.06-1,.55-.27-.55-1.33.55L186,45.29,181.87,42l-4.21-3.59-2.87-2.49-4.59-1.5-1-1.88V30.69l2.1-8.13,1.44-6.64L172.46,13l-2.21-3.15-.44-.39-.94-.11L164.56,9h0l-.55.11-.88,1.11-.83,1.27-2.55.39-.72.66,0,.47h0v.17h0v.08l1.33,0,1.64.31h0l.69.13.38.07h0l.27.05,1.5,1.44,1.54.77,1.11,1.71.44,1.83-1.27,5.31-2.32,5.48-3.15,4.37-.45,2.59v3.54L162,43.3l.61,2.82.17.75h0l.61,2.73,2.66,3,4,2.54,1.55,1.71,2.1,1.11-.05,3.38-.83.93-1.22-.27-3-.44-.43.52h0l-.29.36-1.66.94.11.67,1.44-.39h2.44l1.38.33,2.71-.22.28-.78.38-.77.61.28.28-.72-.44-1,0-1.82.22-1.28.4-.27h0l1.76-1.22,5.2-1.6,4.81-3.43,2.32-1,1.22-2.1.39-1.11ZM156.87,171.51l-1.44-.75-2.12-1.23-2.73-2-1.84-1.3-3.28-2.35-.67-.07-.32-1.68L142.66,160h0l-.86-1-5.63-2.46-.34.42h0l-.07.09,4.2,2.15,1.95,3.08.38,1.49-3,1.24-2.46,5.19-3.55,3.28-2.77,2.12-3.79.61s-2.25,1.64-2.56,1.74-7,1.13-7,1.13l-8.09-1.33-3.79-1.23-4.31.41-5.43,1.74-.92,1.44-3-.11L88.62,178l-.91.46h0l-.31.15,1,4.3,2.15,1.23,2.67-1,.82,1-.31,2.46,1,2.77,1.54,4-.86,5.06h0l-.16,1-2.16,1.84.11,1,1.53,3.59.92,7.07-.2,1.33,1.43,1,.11,1-.33.91h0l-.19.52L100.2,219l1.44-.41.1-1.13-1.43-2.15-1.23-1-.52-4.41.31-5.94,1.85-1.64.24-.21.37,2.57.41,4.3-.31,3.18.92.82v1.23l-.71,1.22,2.56,1.23,2.15-.2.31-1-1.23-1.74-1.13-1.43-.31-1.33-.71-5,.31-.93,1.22-1.87v1.26l1.23.1.52-1.13.92.21.2,1.43.92-.4.52-.93,2.46-3.17.67-2.24.66.08,7.07,1.34,8.61-2.26,1.94-.72.09.18h0l.83,1.67-.2,4-.41,2.15L132,207l1,.93,1.44,7.58-.41,1.33.35.25h0l.67.47.62,1.43,2.86.51,1.85-.2-.1-2.26h0l-.94-.43,1.9-.58-.92-1.74-1.44-.82v-1.33L137.6,208l.21-3.18.71-4.2.24-5.07,1.51-1.38,1.33-3.9.1-3.28,3.79-8.09,1.54-3.25,1.78.14,3.14-.07-.41,1.3.27,3,1,1.84.28,1.09.55-.41v-1.29l.88-3,1.1-2.53,1-.2.48-1.78ZM18.12,168.07l.5,4.15h0l.08.65.39,3.18,0,.19h0L20,183.6l-.33.56.22.72,7.44,1.44.23,3.22-3.62,1.62-.83.05-.28.45.45,2.55,4.33,1.28.61.61,3.23-1,3.44,3.78,6.39,3.83,2.83.56,1.26.82h0l1,.62V207l-2.67.67L42,207.49l-.61.78-.89.33-.17.56.83-.22,1.28-.17L43,209l2.17-.05,2.67,1.11,4.16.83.45.45.78,0,.22.39.28-.61-.32-.51h0l-.52-.82-2.5-.67-2.22-.78h3.95l2.27-.11.89.33h.56l.24.21h0l.15.13-.11-.95-1.84-.83-1.66.22-3.39-.33-.62-.45v-2.33l.72-.26h0l3.73-1.35,7.61-3.06L66,195l2.45-2.83,1.41-6.51h0l.53-2.44-1.44-3.94-2.12-3.56-.65-.72h0l-.57-.61L64.62,172l-1.45-1.61-.94-1.62-.11-2.94L62,164.71l1.54-.53h0l.07,0,.5.89-.11,3.5.56,2,1.11-.17-.39-1.45.44-2.27-.33-2.78.16,0h0l.62-.08-.22-.5-1.89-1-.5-.67L63,160.15l-.71-.47h0l-1.12-.75-1.73-.78-.38.28H57.62l-.06.55-1.33.5-.89,2.28.28,2L57,168.26l1.89,2.62,0,.85h0l0,.42-.69.7h0l0,0-4.33-2.78L48,164.76l.12-.37h0l.11-.35-1.17-.33L40.64,166h0l-.19.07-1-.11-2.83-1.45-2.78-2.61-1.28-2.5v-.72l-3.89-.44H23.5l-.12.07h0l-3.83,2.26-.46,2.16h0l-.19.91-.85,3.93.07.53ZM286.84,273.71l.09.07h0l.35.26h0l.32.23.55.53,1.2.66h0l.11.07.06,0h0l.39.31h0l.52.41h0l.18.14h0l.12.1.85.67h0l.14.11h0l.73.57h0l.65.51h0l.17.14.7.83.28.95.16.14h0l.14.12h0l.09.08-.84,1.36-.58.92-1.09,1-.95.95-.11.16h0l-.22.34-.14.56.19-.06,0,.28-.16.28.16.14.79-.61.8-.67.14.14,1.37-.92.92-.28,1.06-.17.32-.14V284l.32,0,.24-.27.5-.22-.05.14.14.08.23-.33v-.05l1.25-.85.78-.47.7-1.09.33-.86.41-1h0v0l.62-.08,1.06-.5.5-.5v0h0l.17-.17.38,0,1.63-.09,2.18.09,1,.12.73.25.33.17,0-.06h0l0-.07-.3-.27-1.1-.31-2.34-.38-1.53-.19L304,277l-.08,0v0l-.36-.33-.56-.53-.61-.53-1.26-.11-.67.05-.72.59-.78.58h0l-.21-.47h0l-.36-.79-1-1.23L296,273.1l-.56-.31-.53-.47-1.75-1-1.57-.45-1-.16-.64,0-.14.36.27.46h0l0,.07,0,0h0l.21.29h0l.2.28h0l.09.12h0l.05.07.7.58.42.42-2.51-.61-1.81.11-.64.36,0,.17h0l0,.25.11.08Zm-179-112.25-.07-2.36-.42-3.47-.83-2h0l-.74-1.82-1.42-2.24-1.08-.59h0l-1-.52-1.17-1.12-1-1.06.16-.12h0l.26-.19h0l.39-.29.67-.64.6-.36.55-.75v-.09l.45-.15h.21l-.12-.24-.63-.14-.06-.14h0l-.19-.45-1-.57-1.6-.55-1.09,0-.88.26h0l-.27.08-.39-.12h0l-.84-.24h0l-.06,0H96.2a7.82,7.82,0,0,1-.84-.36l-.54-1.06L94,139.6l-.33-.14h0l-2.87-1.19-1.13-.42h0l-4.36-1.66L81.81,135l-.12.17h0l-.16.23.25.33.63.39-.18.27.33.39.63.37.4.06.54.48.84.74h0l.12.11h0l.28.25.57.5,0,0h0l.06,0h0l.29.23h0l.24.19.45.34.39.24,0,.36.15.24.1,0h0l.11,0,0,0h0l.06.16.16.4-.07.17-.08.18h0l0,.05,0,.12h0l.13.36.22.3.15.39-.09.7h0v.09h0a3,3,0,0,0-.07.72.28.28,0,0,0,.13.16h0l0,0h0l.05,0h0l0,.27a.16.16,0,0,0,0,.06v0a0,0,0,0,0,0,0h0a1.66,1.66,0,0,0,.07.67l0,.07v0a.19.19,0,0,1,0,.07v0l0,.1h0l0,.11h0c0,.09,0,.15,0,.15l-.27.43h0l-.12.19h0a.25.25,0,0,0,0,.07h0a.17.17,0,0,0,0,.05,3.55,3.55,0,0,1-.39.38h0c-.19.17-.39.35-.45.39h0l-1.28.91h0l-.29.21-.46.23h0l-1,.46-.29.11h0l-.87.31-.06,0h0l-.79.29h0l-.16,0-2.2.79-1.85.67-.15.3.12.21,2.3-.84.79-.22.22-.06h0l.94-.26h0l.22-.06.82-.22.52,0h.13l.66,0h.19l.22.4h0l0,.05-.13.32h0l-.14.35-.72,1h0l-.32.43h0l-.14.19-1.78,2.08-1.27.78-.27.34.24.21,1.06-.67,1.47-.93,1.51-1.87,1-.79h0l1.41-1.07h0l1.06-.8,1.38-.63,1.17,0h.16l.55.06.3-.3.24.24.57.33.69.06h0l.27,0,.72-.12.26.18h0l0,0,.16,0h0l.24.08h0l.06,0,.38.07h0l.14,0h0l.32.06.65-.09h0l.12.14h0l.09.1,0,0h0l.44.32h0l.08.05,0,0h0l.13.09,0,0h0l.78.34.17.07h0l.07,0,.16.07h0l.31.13.42.25h0l0,0v0h0l.08.42.39.5.11.14h0l1.17,1.48.3.54,0,0h0l.43.75.27-.06h0l.09,0,0,.08h0l.17.29h0l.18.33.06.16h0l.09.23h0l0,.08.13.34.36.09.74.5h0l.16.11.61,1.12.31.19h0l0,0h0l.15.09h0l.86.53h0l0,0,0,0h0l.07,0,.38.32h0l.82.71ZM41.54,227.2l-.06.26-.31-.14-.61-.17h-.67l-.12.35-.91.76-.72.42-.42.84-.11,1.33.88,1.69,1.23,2.18.17,2.74-1,2.08-2.48,2.67-1.64,1-.91.86-.22,1-.36,1,.18,1.12h-.07l.48,1,.75.23,1,.09.86-.12.49,0,.5.45h0l.22.12.08.26-.3-.22-.13,0-.12.11-.47,0-.72-.16-1.41.08-1,0-1.5-.15h-.86l-.58.28-.38-.19-.25.06-.32.25.06-.33.48-.22v-.1h-.15s-1.18.13-1.25.15-.81.05-.81.05l-.28.23-.22.05-.08-.16-.16.07-.25.15,0-.25.32-.17.17-.35.43-.08.6.05.6-.18.59,0,.29-.28.13-.4-.09-.4h-.11l-.27-.51-.47-.9-.48-.7-.61-.21-.31,0h0l-1.56-.16-.13,0-2.31.39-2.75,0-1.16,0-.3.3-2.32,1.24L14.18,248l-1,.42-.26-.26h0l0,0-.73.16-.25-.23.67-.61,2.84-2.62h-.56l-.73.12-.08-.31h0l-.07-.28,1-.42.66-.22-1.27-.35.08-.59,1-.32,1.2-.37h0l.95-.3h0l.28-.08,2-.84,1.48-1h0l.18-.13.17-.12.6-1.29L24,236.26l.14-.12h0l.77-.61h0l3-2.42,2.38-1,.71.14.07-.06,1.18-2,.8-3,1.7-2.42,1.6-.51h1.82l1,.66.71,1.06v0h0l.86.35Zm-8.86,20.08-.17,0-.35-.33h0l-.36-.34-.76-1-.26-.27,0,.74,0,.92h-.12l.09.31.2.57.81.05s1,.2,1.09.2l.19.07.18-.08-.14-.34ZM439,311.35l.2-.23-.87-1.12-.08-.07.07-.53-1.57-1.56-.41,0,0-.24-1.68-.34-1.6.38-1.35.67h0l-.35-.47-2,.34-2.62.9-.39.09,1.92-1.19.43-1.12v-.43l1.53-.15,1.6-.21.32-.77,1-.15.84-.95,1.09-1.54-.1-.5-.14-.16.2-.14.18-.44-.09-.18h.32l1.09-4.27-.15-.19h-.07l0-.88-.45,0v.89l-.32,0-.8,2.38-.3,1.42-.17-.08-.19.16-.12.49-.91.07-.89,1.49-.8,1.38-.55-.31-.34.16-1,.7-.75.18v-.74l-.12-.15,1.36-.36,1.39-2.06.36-1.25-.1-1.12-.31-.32-.23-.06.21-.56-.9-1.77-3-2.64-1.48-1.06-.31-.07-.08.1-3.64-3-2.17-.88-3.29.53.12.63h.93l1.93.54,2.09,1.44,1.44,1.53,0,.62-.95-.39-1.59-.09-1.78.25-1.1.41,0,.28.08,0h0l1.75.6,2.48,1.2,3.17,2.06,1.54,1.12.46.08.27,1.06.08,1-.21.33-1.6-2-2.12-.88-3.18-.74-1-.38-.94.5-1.06-.87-.87.93-.56-.56H415l-.75.56-1.31-.06-2.56,1-2.55,1.66-.35-.4v-.26h0l-.05-.71.12-1.08.44-.15,1.37-1.33,2.85-2.48,2.28-1.54,1.65-.84h0l.07,0v-.28l-1.15-.26h-1.8l-1.56.32-.88.51-.05-.62,1.21-1.71,1.87-1.72,1.83-.8.92-.15v-.36h0v-.28L413.3,287l-2,1.18-3.18,3.49-.09-.09-.3.12L406.4,293,403.76,296l-.64,1.87.29.53-.22.09-.26.36L403,300l.54,1.18,1.66,1.85,1.61.18-.37,1.06.21,1.2-.81-.36-.84-.87-.31-.22-.6.2-.52-1.51-.6-1.62-.87-.25,0-.5-.16-.19-.18,0,0-1.44-.35-2.5-.3-.09.17-.88-.44-.12-.21.86-.06,0-.19.16.28,4.39.31.07-.12.15.09.47.18.17-.18.14-.18.47.78,1.72.65,1.09.95.34.18.81,1.52.5,1.5.44h.62l.1.59,1.25,1.55-2.7-.56-2-.1-.28.52h0l-1.43-.5-1.64-.18-1.63.54V309l-.4.09-1.36,1.75.13.52-.07.07-.72,1.22.23.21h0l0,.53.28.83.22-.13,0-1,.16.05.82-1.23.1.06,1-.51,1-1.06h0l.34,0h0l.31,0,2.05-.34.65-.05v.61l.41.14,5,.28,2.66-.57.65.33-1.19.53-1.94,0-3.58.19-1.16.08,0,.3H404l-1.65.47-.51,1.59.16.11-.87,2,.27.07,0,.07.77.89,2.08,1,.1-.2.9.51.1-.23-.83-.58.13-.23-2-1.38.68-1.25.22,0,.94-.31.8-.93.22.11.26-.1h0l.41-.15,2.52-.5,2.67-.29,1-.59.47-.39.33.53-.95.51-1.92.31-2.69.31h0l-.32,0-.09.22.05.1-.62.46-.42.92.13.08-.11.49.69,1.34,1.2,1.07.21,0,.8.88.33-.23-.7-.86.21-.28-1.34-1.94.41-.47v0l.5,0,.95-.39,3.33-1,.94-.49.32.57,1.19.06h3.12l2.49.07.61-.7.7.5,3.14,1.53.83.49h0l.05,0,.49.09h0l.34.52-1.6,1.73.17.3-.82.75.29.28.92-.76.2.05,1.35-.88.87-1.23,0-.5.14-.05-.29-1-.55-.55.07-.08,0-.23-2.93-.79-1.86-.58-.77-.58.25-.39.75.45,1.08.45,2.68-.1,2.57.13.69.16.21-.15.92.81,1,.17.21-.06.86,1.14-1.75,1.64.15.21-.74.69.14.21L432,317l.13.17,1.91-1.3.64-1-.05-.06.26-.11-1.14-1.82.14-.13-.73-1.5-1.69-.23-.07,0-.07-.29-1.15.08-3.58.33-1.92.25-1.18-.34.31-.21,2.79.23,4.74-.85h0l.19,0,.39-.19-.08-.6.66,0,2.07.09h.66l0,0,1.08.93,1.07.39.09-.07,1,1.11.16-.07.1,1,.23.1.18-.85-.11-.53ZM251.61,400.82l-.9-.34-.81,0,.22-.22.42-.9,0-.3h0l-.1-.8L249,396.56l-.58-.71h0l-.16-.2-1.83-2-1.13-1-.8-.14-2.37-.14-1.69-.44-1.79-1.17-2.38-.69-1.48-.14-.44,0-.55-.86-1-.09-.74.19-.25.62-3,.44-1.13.69,0,.06h0l-.22.6.37.65.87.38.06.62,1.18,1.35,1.14.86-1.77.93-1,1,.07.31.52-.24,1.55-.83.31.18-.31.82-.31.9.48.07.55-1,.38-.58.52.27.72-.1,0,0,.5.65.83.7,0,.44-1.28.72L231.52,401l-.36.56-.43-.32-.35-.93-.89-.38-.24.21.45.24.48.62.17.83.16.52-1.06-.73-.75-.72-.69-1.07-.42-.07-.2.38.27.24.73,1.21.6.87-1.43-.56h-.76l-.21.27.69.52,1.11.31.82.69.86.38,1.49,0,1-.34,1.34-.55,1.42-.79,1.62-1.11.54-.5h0l.25-.23.89.46,3,.5-.66,1.26h0l-.28.55.31.67-1.58.29-.42.31,0,.21.38-.18,1.1-.1.84-.18.46.13-.68.19-1.55.38-1.79.69-1.24.58,0,.2-.31.11-1.27.66-1,.76.2.2.83-.48,1.52-.48,2.41-.66,1.79-.44-.72.3-1.31.45v0h0l-.41.71.38.2.66-.55,2.55-.41,4.2-1,2-.62,1.66-1.24,1.75-1.75.49-.48ZM388.27,301.3l-.65-.89-2.92-.5-.89.15-2.49,1.07-.09-.24-.8.13h0l-.32.06-1,.29-.24.1-.53-.4-.64-.48-2.9-2.42-2.27-1.59-.64-.14h0L370,296l-4.06.18-3.83,1-2.84,1.89h0l-.28.19-3.53,4,0,0-1,2-1.42,1.1h0l-.51.39.07.93h.2c.05.34.11.79.13.86a19.74,19.74,0,0,0,1.82,1.11l-.59,1.19.08,1.34.59.56.76,0,.21.62.33-.07v-.57l.8,0,.21.49.26,0,0-.47h.26l.7-.07.19.4h.3v-.62l.45-.72-.59-.55h0l-.16-.15,0-.28.64.13,3,.44,1.56-.18,7.18-.15,2.79-.52,1.77-.42-.17.6-.44,2.13.12,0-.24.78.23.15.36-.84.27.08-.22.8.26.11.36-.81.31.09-.23.72.23,0,.29-.68.45.12.09-.06L377,314l.26-.15.14-.7.31-.2.06-.17h0l1.31-3.57.15,1.47.52,1.53h.21l.16.67.34,0,0-.65h.43l.16.59.22-.08v-.52l.48-.45.15.6.23-.15-.15-.68.22-.21.11-1.93-.41-2.24-.3-.29-1-.19.1-.11-.23-.14,3.24-1.2.17-.12h0l.31-.22,0-.24,1.4-.47,1.79-.75.39-.44,0-.78.46.08Zm-161.2-27.47h0l-.22.43-2.77-.88.34,1.62h0l.06.25.16.79h0v2l-.79,2.36-1.8,2h0l-.25.27-3.31,2.76-2.29.55-3-.71-3-2.13-1-2.52.87-4.18,3.15-1.26h2.53l1.81,2.21.55,1.89-.39,1.81-1.42,1.26-1.5.16-1.34-.47-.47-1.26V279l.79-.55,1.26.16.79,1.18-.32.71-.47.24-.71-.79.21-.5-.37-.05-.37.42.26.94.64.74.94-.16.79-1.1-.16-1.21-1.15-1.21-1.27-.16-1.31.53-.21,2.21.47,1.94,1.32.58,1.79.21,1.73-1.16.79-1.52-.05-3.21-.93-3.05-.76.11-3.26-.37-3.94-.32-.44-.11-1,1.06-.58-.16.08-1.3-1.45-.38-3.89-1.37-.66-.31.14.52-.48-.15-.43-.73-.56-.26v0l.15.53-.63-.21-.47-.64V270l-1.53-.49-2.05-.37-1.36,1.15-1.63,1.21-.74-.21,1.26-1.63.66-1.11h0l0,0-1.63-.58-1.79.37h-2.73l-3.48-.5h0l-.21,0,.74-2.68,2.21.21,2-.21.81-.25-.06-.29h0v0l.63-.89,1.26-.21,1.42-.21.13.12,1.71-1.17,1.73-.79.82-.18-.24-.19-2.36-1-.06.08-1,.47-1.1-.32-2.68-1.36-3.16-1.42-1.68-1.44h0l0,0-.16-.52h0l-.26-.84,0-.09h0l.28-.81,1.58-.84,1.42-.73.79-.48.06-.12h0l.41-.77.69-.32,0-.07h0l.31-.5.48-1.21,1.36-1.16,1.16-1.42.84-1.73,1.95-.48.11.05h0l.83.37.9,1.53.26,3.84-.23,1.4,1.16-.62h0l.57-.31,1.2-.65.2-.11h0l.62-.33h0l.9-.49,2-.24h5.68l1.67.27h0l.22,0,2.52.4,2.33,2h0l1.92,1.68,2,2.76,1.43,5.11h0l.12.46.19.66.55,2.68v3.08l-.2,1.13h0l-.08.48h0l0,.2.6,2.1,1.17,0,2.83,1.37Zm-31.87-8.19,4.55,1.74.18-.27.84-.74-.16-1.47.06-1.24-.49-.37-1.14.77-2.58.68h-2l.1.16-.08.19Zm7.67,2.94,3.19,1,0-.34,2.31-.58.63-1.52.22-.45-3.11-.5-1.88-.72-.06.35-.85,1.63v.06h0l-.14.68-.7.25Zm7.73,2.68,3.47.16,2.52-.31-.31-1-.65-.93-.93-.33-1-.79-.19-.86-.54-.35h-.09l-.91,1.69-1.63,1.78,0,.67Zm-110-31.72.44,1.27.92,1.16,1.34.47,2,.43,1.41.27-1.57,1-1,1.43,0,1.69.91,2.3,1.66,1.44,2.84.55,2.59-.73,3.53-1.85,1.08-.23.87.46,1.58.95,2.69.67,2.79-.28,1.33-1.25.48-2.77-.64-3.28.36-1.4.85-4,.83-5.26.14-3.14-.64-2.12,1.31-.41.52-.63.05-.53.33.13.76.5.74.83.62,1.1.4,1.1.15-.07-.5-1.35-.17-.43.18,0,.4.47.63,1,.06-.14-.49-1-.82-1-1-.87-.83-.55-.34-.21.3.06.23-.6-.33-.68-.9-.4-.76-.31h0l-.84-.35-2.12.62-2.6.52-1.31.46-.49.52-.73.16-1.69,1-1.22,1.19L116,230l-.1,4.31,1.09,3.18,2.33,4.29.62.95h0l1,1.59h0l.09.14.12.81-1.51-.34-1.44-.69-1.25-.15.32-1.72-.22-1.38-1-1-.7-.3h0l-1.14-.5-1.84-.3-2.23.31-2.51.56-2.76.5-.46-.15h0L104,240l-.69-.48-.19-.76.33-.2,1.13-.54,2-1,.83-.88.24-1.7s0-1-.07-1.16a13,13,0,0,1,.17-1.3l.79-.91-.15-.26-.94.78-.73,1.28-.45,1.41-.58,1-1.21.89-2.32.83-1.49.92ZM234.82,367.37h0l-.06.5,0,0-.86,6-.72,2.32L231,378.72l-6.8.48-6.59,1-9.72-1.16-7.79-.69-.16-.89,1.58-1.23,7.8-1.34,7.84-1,1.18-.42.44-.75.51-.16.32.46,1-.35.32-.75.41-.18.5.5,1.07-.38V371l.66-.2.45.64.89-.39-.11-1,.45-.21-1.23-.53-8.45-1.48-4,.72-.89.13.61,1.12s-.26,1.42-.28,1.56a.43.43,0,0,1,0,.05h0l0,0,0,0a1.47,1.47,0,0,0,.31.17l-.22,1.47-.81,0-.33,1.22-.62-.09-.09-1.11-1,0-.2,1.2-.56-.13-.16-1.05-.93,0-.11.61-.83.07v-.7l-.91-.45-.28.94-.72-.06-.07-1.41-.69-.35.7-1.72h0l0-.11v-.3l-2.53.39-11.48.8-6.89.09-.38,1.05-1.32.65-3.24,1-3.31-.12h-.29l-.12.14h0l-.49.54-.46.11-.79,1.39-.51-.07.28-1.22-.93-.25-.79,1.13-.61-.22.25-1.23-.94-.31-1.06,1.1-.6-.28.55-1.19-.84-.28-.94,1-.48-.26.5-1.08-.08,0v-.85l.76-1.24,2.14-.92,1.07-.75-2.45-.48.13-.33-3.42-.08-2-.29-.56.95-1.55.42-3.19.19-3.31-1.25-3.84-.24-2.53.54-2.67.14-4.45-1.81L135,364.33l-1.6-.94.07-1.41,1-.75-.2-.82.06-1.44.29,0,.65,1.67.42-.17-.18-1,.13-1.58.44,0,.24,1.34.39,1.12h.57l1.75-.22-.18-2,.11-.42.37.11.38,1.12.53,1.12h1.29l.62-.1-.12-.7.08-1.2.4-.09.56,1.44.25.36.44-.07.76,0-.14-.54,0-.92.33,0,.43,1.08.13.28h.12l1.67.2.43,0-.09-.36.13-.9.34,0,.21.85.19.31.45,0,1.45-.31-.12-.52.24-1,.38,0,.12.85.19.44h.13l.14,0,1.55-.65,1.86-.46,1.56,0-.19-.57.16-1.53L154.9,356l-.86.06-.18,1-.27.25-.38-.74v-.42l-1.39.1-.64,0-.19.9-.32.14-.23-.71,0-.35h-.26l-.8-.45-.2.29-.22.79-.28,0-.05-1,.08-.38-1-.58-.51-.3-.12.21-.21.79-.3.06-.13-.8.15-.61-.78-.46-.85,0-.11.34-.12.85-.31.15-.22-.85.05-.48-1.16,0-.76-.07-.29.69-.21,1.18-.28.2-.26-.86,0-1.16.1-.49-.66-.5-.28.48-.12.8-.3.06-.09-.36v-.92l.16-.55-.61-.47-.46.94-.3.05,0-.78.24-.64-.74-.53-.32.81-.27.16-.22-.47,0-.55h-.76l-.13.51-.14,1-.35.05-.17-.85,0-.7h-.45l-.13.57-.17.84-.3.06-.23-.76.05-1.1-1-.66.11-.88h0l.3-2.36L135,345l1.89-.12.44,1,5.53,1.51,6.13,1.4,1.25-.14.88-.71.87-.26,2.26,1.36.8-.15,1.05-.1,1.12,1.13,3.51.76.37.5,1.1.13.65-1,.88.13.45,1.09,2.64.32,1.39-.54.13-1.11.68-.39.83.87.1,0,.2-.91.79-.12.2.83.5-.08.09-.83.74-.14.59.74.39-.06-.07-.93.44,0,.49.84.4-.07,0-1,.58-.06.37.89.24,0,.52,0,.28-.88.74-.08.48,1.1,1,.08.49-1,.85.17.12,1,1.12.09.36-.77.52.08.18.78.75.07.34-.57.42.11.14.54.63,0,1,.23.39-.56.6.24.08.56,2.49.54.25-.55.32.14v.54l.53.12.32-.44.37.15,0,.45,1.64.36.22-.53.46.16.15.55,1.26.28,3.7,1.1.45-.55.45.26v.55l3.07.91.76.09.25-.67.42.06.14.71,5.68.67.31-.83.56.08.23.87.95.12.4-.81.61.09.2.9,2.47.42.38-.93.51.12.2,1,1.19.2.57-1,.42.11.28,1.1.68.12.25-.9.75.2.17.89,1.63.28.23-.83.68.05.27,1.1,1.5.57.56-.75.49.31,0,.82,1.54.59.54-.68.88.27-.1.91.71.28.48-.69.45.21-.07.8.78.3.69-.36.64.57-.12.64.76.66.65-.48.57.76-.27.54.71.62-.36,3.31Zm-8.61,3.09.24-.1-.57-.25Zm-4.11-24.7h0l-.08-.14-1.47-.25-.65-1-.91-.61-1.67-.45-1.6-.27,1.2-1,1.41-1.77,0-.64.36-.67.05-1-.15-1.32-.4-.8-.44-.07-.27-.69-.83-.55-.33-1.17-1.11-1.21-2.3-1.07h0l-.07,0-2.51-.37h0l-1.28-.18-3.33.65-1,.52h0l-1.7.84-.2.36h0l-1.61,2.72-.81,2.43.21,1.24h0l0,.23-2-1-2.57-1.66-1.37-.56h-.48l-.35-.53-1.29-2-1-1.83.14-.29-.08-.43-.33-.07-.33.07-.12.33.15.4.23.16,0,0,.45,1.21.58,1.52.8,1.69-.46.34-.15-.24-1.7-1.36L189.28,334l-1.1-1.1-.14-.14,0,0,.05-.26-.1-.22-.28-.1-.3.1-.11.2.13.33.2.12.17,0,1,1.09L190,335l1.06,1.14.72.71.42.45-.84.73s0,0,0,.07l-.87.58-.9.82h-.41l-.2.41.05.4.35.05.41-.1v-.37l1.62-.94v.8l.61.16-.24.58-.27,0-.2.45.2.31.21.15.3-.05.2-.5-.13-.14.33-.48.41.56.7,1.42.26.91.15.6.6.41-.05.4.1.76,1.21.15,1.2-.15,0,.05.8.6,1.06.2h3.23l3.29.51,3.88-.1L213,346l1.56.06,4.65.2,2,.1,1.06-.41ZM151.83,22h0l0,.49-.12.2h0l-.06.1.09.31-.26.54-.26.46-.45.86-1.23,1.48-1.34,1.1-2,1.17-1.07,1.17-1.2,1.69-.16.5-.77-.31-.9-.48-.22-.55-.7,1.59-.57.27-.08.25-1.88,1-1.35.26.15.18.87.07h1.29l.44,0,.36.36.1.75.16.42.49.33-.09.47-.17.1-.08-.49-.25-.12.14.32-.1.51-.18.26-.07-.51-.09-.45-.49-.46-.15-.35-.85-.07-.87-.31.36.32.67.17.61.16.26.93,0,.44-.37.5V37s-.4-.22-.39-.32a3.39,3.39,0,0,0-.22-.59l-.81-.17-1-.42-.62-.68-.6-.46-1.28.24-4.2.37-2.6-.48a1.4,1.4,0,0,1,0,.31c0,.1-.27,1.49-.27,1.49l1.73.79.58.71.43.36,1.86.9,2,.81.42.42.14-.84.24-.13.06.24,0,1.33-.08.3.18.45,0,.28h.1l.33-.81.2-1.32h.2l.11.58v1l-.19.66.43,0,.19-.39.41-1.58.21,0-.1,1.36s-.09.35-.17.64h0l2.88.46.5-1.53h.27l0,.41-.28,1.2,2.21.35.4.21.61-1.42.21,0-.1.51-.29,1.09.41.22.14-.28.54-1.27.2.08-.22,1.08-.21.62.34.18.85-1.5.24.11-.33,1.11-.21.57.35.18,0,0,.08-.12.53-1.33.21,0,0,.48-.15,1-.15.3.22.17h0l.7.52.74.95-.28.29-1.23-.77-2.25-.54-3-.48-3.65-.37-2.83,0-2.76,0-2.45-.08-3.92.26-4.75.3-7-.83-1.61-.55-.82-.61-.36-1.76-.12-1.68h0v-.13l.85-2.07,1-1.4,0-.15.72-1.14.86-.66,1.49-1.52-.06-.1-.26-.52,0-.85.1-.05.17.31.26.52.26.27.44-.45-.19-.24-.24-.59-.16-.79.1-.11.18.33.25.56.4.49.47-.48-.21-.24-.23-.88-.06-1,.11-.06.19.69.25.76.27.43.3-.33-.17-.35-.23-.93-.1-1.06.12,0,.21.64.23.9.24.49.24-.25-.11-.14s-.11-.58-.13-.63l-.16-1,0-.62.1-.06.09.38s.19.93.19,1,.22.52.33.78l.38-.42-.17-.25-.16-.64-.22-1.37.1-.07.14.37.29,1,.34.63.44-.48-.35-.52L119,26.33l.07-.18.4.93L120,28l.56-.61-.35-.55-.42-1,.08-.13.28.24a5.1,5.1,0,0,1,.43.54,3.48,3.48,0,0,0,.36.47l.47-.51-.17-.32-.36-.54-.33-.39.06-.12.24.06.46.28.48.61.26-.28-.1-.49-.24-.77-.31-.63.09-.07.32.26.43.68.26.61.66-.15,0-.79-.09-.94,0-.5.11-.11.32.42.36,1.21.07.54.7-.16v-1l-.27-1,.11-.06.41.67.28.69.15.62.61-.14.33-.07.06-1-.11-1.3.1,0,.2.4.36,1.23,0,.6.31-.06,0-.43,0-1.22-.19-1.13h.12l.11.19s.34.78.35.83.18.9.18.9l.07.73.28-.05,0-.41,0-.73,0-.75.1-.05.22.39.22.86.05.57.38-.07.14-.65.09-1.25-.07-1,.13,0s.23.52.27.59.22,1,.24,1.05,0,.78,0,1.09l.78-.15,0-.39.05-1-.14-1.11.09-.08.32.54.33,1,.14,1h.58l.08-.45.12-1.14,0-.94.14,0,.11.4.23,1.08,0,1.09h.49l.25-1.3h.15L134,23l.09.68H135v-.68l-.15-1.18.07-.08.25.18a10.4,10.4,0,0,1,.44,1s.12.53.18.77h.33l.61-.06,0-.27.07-.71-.07-1.11.12,0,.31.61.3,1,.13.45.69-.07,0-.26.1-1-.22-.88.11-.05.43.5.4,1,.17.5.28,0v-.38l0-.94-.2-.91.12-.05.44.64.42.81.22.73.3,0v-.5l-.1-.86-.33-.95.13,0s.48.83.49.88l.29.71.14.5.18-.09-.07-.25-.12-.77-.29-.76.13-.06.49.43.38.53.25.48.3-.17-.06-.19,0-.65-.19-.69-.39-.83.14,0,.6.61s.5.6.52.65.17.43.25.65l.2-.12h0l-.11-.47-.15-.81-.29-.45,0-.14.19.1.34.37.38.48.25.7.13-.05,0,0h0l0-.43-.16-.67-.28-.63h.12l.41.43.32.4.12.5.21-.17-.13-.66-.25-.49h.12l.41.46s.18.28.27.44l.62-.25.73-.34h.72l.56.37.22.28,1,.25,1.27.37.74.27.18.55ZM129.4,39.43l-.43,0,.14.15.49.43,1,1.44,0,.1,1.46.06-1-.89-1.62-1.06Zm-3.06,2.14h.41l0-.11.18-1,.12-1.29.12,0-.12-.19-.29-.08-.94-.28-.27-.4h0l-.31-.45-.34-.72-.62-.44-.34-.87v-.85l-.83.47-1.38.42-.65-.1-.22-.4-1,.38-2.29,2.19-1.3,1.53.06,1,.24.29.1,0,.17-.29.31-.87.21-.84h.17l.07.62-.18,1-.14.55.42.12.38-1.08.22-1,.2,0,0,.59-.07,1-.16.64.55.11.09-.22.24-.84.12-.95h.23l.09.45,0,1.12s-.06.3-.1.55l.44.08h0l.31-.94.15-1,.21,0,0,.41,0,1.06-.1.53,2.53,0,.3,0,.2-.57.23-1.18.2-.06.08.51s0,.92,0,1,0,.16,0,.3l1.55,0,.05-.14.28-1,.14-.88.18-.09s0,.37.08.48,0,1,0,1.15A2.12,2.12,0,0,1,126.34,41.57Zm1.08-.73c0,.07,0,.45-.06.72h.54l0-.24.21-1v-.28l-.8-.61.05.28S127.42,40.74,127.42,40.84Zm1.25.16c0,.06,0,.31,0,.53h.81l-.07-.22-.8-.8C128.64,40.74,128.67,41,128.67,41Zm5.46.43c0-.17,0-.35,0-.35l-.58-.78-.29-.09v.65l0,.21.21.18.05.48.56.07Zm-1.29-1.34-1.49-.47-.06,0,.26.17,1.18.9.05-.16ZM332.57,186.67l-.86-.36-.75-.75-.52-.44.11-.07-.35-.85-.82-1,.11-.54-1.05-1.21-1.06-1.61h-.46v-.2l-1.36-.81-1.81-1.11-1.19-1,0-.47-1.26-.35-.79.4,2.12-3.15,1-2.27-.2-.29h0l-.3-.46.55.12,1.56-.75,1-1.46.5-1.26-.9-1.33.09,0,.41-.81.15-1.66-.1-2-.46-1.61-.3-1.06-.56-.28.16-.43-.3-2.06-.61-1.47-.8-1.26-.81-.7h0l-.65-.2-.32.13,0-.44-.45-1.46-1.62-2-2-1-2.22-.51-.56.06h0l-.55.06-.27.2,0-.15-.81-.36-2.57-.15s-1.56.66-1.76.71-1.92,1.06-1.92,1.06l-.8.75-.05,1.21.22.25-.41.24h0l-.37.22-.2,1.56.45,1.81,1.16,1,1.31.25.91.46.1,1.06-.6.85-1.57.66.51.25,1.51-.5,1.16-.71.5-1.61,0-1.51-.55-1.72-.17-.21h0l-.24-.3,1.27-.39,1.28-.55-.07.19.25,1.06,1.16,1.11,2.22,1.26,1.69.27-.13.13-.15,1.11.6,1.11,1.26,1.16,1.36,1-.3.84.45,1.16,1.5,3.09-.4.19h0l-.39.19-.25,1.16.15,1.87.16.53-1-.18-2.27.83-3.1.6L311.42,171l-2,.3-1.12.17h0l-.35,0h0L305,172h0l-.17,0-3.1.46-1.43.4-.06-.28-.55-.35-.22.06-.24-.72s-1-.2-1.16-.2h-2.37l-3.34.49-.08-.14-1.31-.15-2.32.41-1.72.75-2.77,1.36-2.27,1-.05.51,1.31-.61,1.57-.45,2.06-.51,1.56-.45.45.53-1,.38-2.77.75-2.67.56.6.25,2.52-.3,2.52-.41,2.1-.51.22.11,2.07-.5.34-.65.06.09,1.71.2h.06l-.36.32.14.47-1,.51v.24l-.65.29.05.91.45.9.54-.27.07.2.73,1-1.14.8.26,1.06.75.65.85-.46.21.36,1.61.2,2.17.05,1.43,0-.37,1.22-.3.95h0l-.36,1.12,0,.25-.65-.1-.14.54-1-.19-2.42-.1-2.27.71-3.07.75-2.42.41-.4.7,1.81-.45,2.82-.35,2-.05.63.81-.58,0-2.42.05-1.82.15h-2.26l.25.51,2,.05,2.17.3,2.32.15,1.83-.11.24.16h2.11l1.11-.5.81-1,0-.37.4.22.45-.29-.15-.69.8-.28s1.51-2.82,1.56-3,.12-.74.21-1.37l.8.26,2.52.35,1.84,0-.17.54-.51,1.62.2,1.16.32.2-1.17,1.66-1.11,1.36-.05.51.19.15-.09,2.52h.55l.25-1,.12-1.14.49,0,.76-1.16.87-2.67h.39s.6-1,.65-1.11a9.25,9.25,0,0,0,.1-1.66c0-.07-.08-.58-.14-1.14l.24,0,1.57-.05,1.36-.46,1.76-1,0,0,1.41-.62.23,1.09.51,2.27.55,1.51.76.91.29.13-.14,0-.76,1.76-.45,1.21.06.09-.36.37-1.06.75-.56.3.26.31,1.31-.31.95-.95v-.09l.42-.06.85-.86.81-1.72-.1-1,.15-.56-.65-1.16-1.16-2.37-.71-1.81-.09-.37.34-.16.42-.5,3.21-.83.32-.2.44.65,2.42,2.27,1.16.35.4-.25.25.7,1,1.77,1.06.85.12-.16.38,1.27.51.36.11-.07.14.27.76.85,1.15.21s.61.45.81.25Zm40.65-31.44-.15,1.24-1.43.15-2.21,1,.37,1.6-.8.33-1.19-.53-.09.34,1,3.11,1.06,2.78.66,1.52-.46.26-1.13.73-1.39,1.06-1.92-.33-1.78-1.13-1.06-.39s-1.26-2.25-1.39-2.52-1.39-4.1-1.46-4.3c0,0-.05-.2-.09-.43l-2,.48-1.3.6-.22,0-.17.7-.38,0-.12.59-.45.89-.74.3.2-.6.35-.89-.14-.53-.09-.08h0l-1.84,1.14-1.44.5-1.88.45-.9-.14-.25.53-.74.3-.37-.18-.08.08-.89-.49-.12-.6h-1.87l-.69-.35-.2-2.43,2.08.05,1.89.15-1.38-.11.78-.78,1.1-.75,1-.5.79-.39.75-.15,1-.15v0l-.06-.23-.6-.89-.64-1.19-.05-.31-.5-.54-.24-1.49,0-.52-.23-.32-.53-2.37-1.39-1.39-2.91-6.68-.47-6.75,1.79-3-.27-1.59.13-.52-.79-.14-.92-.73-.4-1-.33,1.35.53,1-.15.1h0l-.25.17-.53-.6-.73-1.45.07-2.39,1.06-2.31,1.43-1.27-.17-.19-.4-2.12.46-1.72,1.86-2.58,1.05-2.25,1.39-5.1.12.53.08-.86-.46-1.26-.86-1.25-.07-.93.73.07,1.46,1.92.72,2.18-.26,3.18-.86,2.18-.47.85.14-.12.19.5,1.2-1.63.79-1.52.66-3,.14-2.12-.2-2.12-.33-.6.56-.15h0l.17,0,.59,1.25.33,2.72.13,2.31-.26,2.06-.79,2-1,1.39-1.06,1.32-.32.7.25-.23,1.19-1.46.05,0,.55-.63,1.2-1.25,1-2.52.53-3.51-.2-2.12-.07-.66.53.4.4,1.32-.07,2.52s-.19,1.79-.26,2-.53,2-.53,2L353.18,116v0l.61-.68,1.26-1.72,1.45-2.45.67-2.91-.07-1.2.66.2.08.12h0l.52.81L358,111l-.86,2.25-1.44,2.35,2-.43,2.45-.93,1.39-.59.66-1.13h.46l-.13,1.59L361,115.78l-2.85,1.06-2.19,1-.72.53,1.32-.13h2.32l1.72.13,1.72-.59.79-.8.35.18h0l.05,0-.73,1.26-2,1.06-2.38.79-1.92-.13-1.46.07-.6.34h0l.79-.15s2,.52,2.18.52,2.06.27,2.26.27l1.58.07.2.46-1.72.66-2.84-.46-.75-.15,1.54,2.66.4,1.33.92,2.51.93,1.19,1.13,1.2-.07.53,2,1.91-.34.47,2.78,6.15,1.13,3.51.66,1.66a4.54,4.54,0,0,0-.26.86c0,.19,1.58,6.95,1.58,6.95l.6,1.39-.4.33.27,1.06,1.5-.58.85-.65,1.59-.25Zm-22,3.12.4.15.89.15h.24l.76-.41,1.58-.34,1.79-.4,1.44-.2,1,.37c0-.12,0-.24-.06-.34l-1.62-1.45-3.25-1.75.07.59-.35.22-.05.42-.55,1.1-.49,1.14-.22,0-.13.36-.89.14Zm-.28,1.1-.66-.15-1.72.71.5-.09,1.29-.35Zm-2.76,3.66-.6-.1,0,.23h0l.33.08Z" transform="translate(-6.6 -6.03)"/></svg>