<svg xmlns="http://www.w3.org/2000/svg" xmlns:xlink="http://www.w3.org/1999/xlink" viewBox="0 0 513.63 543.07"><defs><style>.cls-1{isolation:isolate;}.cls-10,.cls-11,.cls-12,.cls-13,.cls-14,.cls-15,.cls-16,.cls-17,.cls-18,.cls-19,.cls-2,.cls-20,.cls-21,.cls-22,.cls-23,.cls-24,.cls-25,.cls-26,.cls-27,.cls-28,.cls-3,.cls-4,.cls-5,.cls-6,.cls-7,.cls-8,.cls-9{fill-rule:evenodd;}.cls-2{fill:url(#Áåçûìÿííûé_ãðàäèåíò_3);}.cls-3{fill:url(#Áåçûìÿííûé_ãðàäèåíò_47);}.cls-4{fill:url(#Áåçûìÿííûé_ãðàäèåíò_23);}.cls-5{fill:url(#Áåçûìÿííûé_ãðàäèåíò_23-2);}.cls-6{fill:url(#Áåçûìÿííûé_ãðàäèåíò_53);}.cls-7{fill:url(#Áåçûìÿííûé_ãðàäèåíò_23-3);}.cls-8{fill:url(#Áåçûìÿííûé_ãðàäèåíò_23-4);}.cls-9{fill:url(#Áåçûìÿííûé_ãðàäèåíò_55);}.cls-10{fill:url(#Áåçûìÿííûé_ãðàäèåíò_55-2);}.cls-11{fill:url(#Áåçûìÿííûé_ãðàäèåíò_53-2);}.cls-12{fill:url(#Áåçûìÿííûé_ãðàäèåíò_2);}.cls-13{fill:url(#Áåçûìÿííûé_ãðàäèåíò_2-2);}.cls-14{fill:url(#Áåçûìÿííûé_ãðàäèåíò_2-3);}.cls-15{fill:url(#Áåçûìÿííûé_ãðàäèåíò_2-4);}.cls-16{fill:#927c45;}.cls-17{fill:#424243;}.cls-18{fill:url(#Áåçûìÿííûé_ãðàäèåíò_299);}.cls-19{fill:#ffcf9d;mix-blend-mode:soft-light;}.cls-20{fill:#ef7f58;}.cls-21{fill:#54193b;}.cls-22{fill:#b89c7e;mix-blend-mode:color-dodge;opacity:0.15;}.cls-23{fill:#b25460;}.cls-24{fill:#c9726d;}.cls-25{fill:#d6794f;}.cls-26{fill:url(#Áåçûìÿííûé_ãðàäèåíò_299-2);}.cls-27{fill:#de895f;mix-blend-mode:multiply;opacity:0.46;}.cls-28{fill:#ffb854;}</style><linearGradient id="Áåçûìÿííûé_ãðàäèåíò_3" x1="-1463.91" y1="877.08" x2="-1096.34" y2="877.08" gradientTransform="translate(2870.28)" gradientUnits="userSpaceOnUse"><stop offset="0.04" stop-color="#9aab72"/><stop offset="1" stop-color="#5b5945"/></linearGradient><linearGradient id="Áåçûìÿííûé_ãðàäèåíò_47" x1="-1096.34" y1="903.42" x2="-757.36" y2="903.42" gradientTransform="translate(2870.28)" gradientUnits="userSpaceOnUse"><stop offset="0" stop-color="#5b5945"/><stop offset="0.96" stop-color="#9aab72"/></linearGradient><linearGradient id="Áåçûìÿííûé_ãðàäèåíò_23" x1="-1180.86" y1="930.83" x2="-1180.86" y2="493.96" gradientTransform="translate(2870.28)" gradientUnits="userSpaceOnUse"><stop offset="0.01" stop-color="#424243"/><stop offset="0.96" stop-color="#544f4a"/></linearGradient><linearGradient id="Áåçûìÿííûé_ãðàäèåíò_23-2" x1="-1051.84" y1="930.83" x2="-1051.84" y2="493.96" xlink:href="#Áåçûìÿííûé_ãðàäèåíò_23"/><linearGradient id="Áåçûìÿííûé_ãðàäèåíò_53" x1="-1225.66" y1="929.04" x2="-1225.66" y2="521.61" gradientTransform="translate(2870.28)" gradientUnits="userSpaceOnUse"><stop offset="0" stop-color="#5b5943"/><stop offset="0.96" stop-color="#547c68"/></linearGradient><linearGradient id="Áåçûìÿííûé_ãðàäèåíò_23-3" x1="-1026.44" y1="923.74" x2="-1026.44" y2="484.55" xlink:href="#Áåçûìÿííûé_ãðàäèåíò_23"/><linearGradient id="Áåçûìÿííûé_ãðàäèåíò_23-4" x1="-1132.5" y1="929.04" x2="-1132.5" y2="484.55" xlink:href="#Áåçûìÿííûé_ãðàäèåíò_23"/><linearGradient id="Áåçûìÿííûé_ãðàäèåíò_55" x1="-1164.08" y1="930.83" x2="-1164.08" y2="405.13" gradientTransform="translate(2870.28)" gradientUnits="userSpaceOnUse"><stop offset="0" stop-color="#5b5943"/><stop offset="0.32" stop-color="#58665a"/><stop offset="0.97" stop-color="#518188"/></linearGradient><linearGradient id="Áåçûìÿííûé_ãðàäèåíò_55-2" x1="-1094.38" y1="929.04" x2="-1094.38" y2="471.12" xlink:href="#Áåçûìÿííûé_ãðàäèåíò_55"/><linearGradient id="Áåçûìÿííûé_ãðàäèåíò_53-2" x1="-1022.33" y1="930.83" x2="-1022.33" y2="484.55" xlink:href="#Áåçûìÿííûé_ãðàäèåíò_53"/><linearGradient id="Áåçûìÿííûé_ãðàäèåíò_2" x1="-1251.52" y1="940.27" x2="-1251.52" y2="649.79" gradientTransform="translate(2870.28)" gradientUnits="userSpaceOnUse"><stop offset="0" stop-color="#5b5945"/><stop offset="0.98" stop-color="#6f8372"/></linearGradient><linearGradient id="Áåçûìÿííûé_ãðàäèåíò_2-2" x1="-1036.74" y1="940.27" x2="-1036.74" y2="665.58" xlink:href="#Áåçûìÿííûé_ãðàäèåíò_2"/><linearGradient id="Áåçûìÿííûé_ãðàäèåíò_2-3" x1="-1293.56" y1="938.35" x2="-1293.56" y2="813.89" xlink:href="#Áåçûìÿííûé_ãðàäèåíò_2"/><linearGradient id="Áåçûìÿííûé_ãðàäèåíò_2-4" x1="-1023.31" y1="940.27" x2="-1023.31" y2="813.89" xlink:href="#Áåçûìÿííûé_ãðàäèåíò_2"/><linearGradient id="Áåçûìÿííûé_ãðàäèåíò_299" x1="-1257.75" y1="948.58" x2="-1257.75" y2="870.33" gradientTransform="translate(1463.91 -405.13)" gradientUnits="userSpaceOnUse"><stop offset="0" stop-color="#52113b"/><stop offset="0.97" stop-color="#8d2f3b"/></linearGradient><linearGradient id="Áåçûìÿííûé_ãðàäèåíò_299-2" x1="-1041.08" y1="948.1" x2="-1041.08" y2="807.76" xlink:href="#Áåçûìÿííûé_ãðàäèåíò_299"/></defs><g class="cls-1"><g id="Layer_3" data-name="Layer 3"><path class="cls-2" d="M1406.37,813.89s306.64,73,367.57,126.38C1773.94,940.27,1618.77,940.27,1406.37,813.89Z" transform="translate(-1406.37 -405.13)"/><path class="cls-3" d="M1920,866.58c-49.64,18.63-101.57,42.85-146.06,73.69,0,0,66.31-17.93,146.06-45.32Z" transform="translate(-1406.37 -405.13)"/><path class="cls-4" d="M1608.15,494s-44.62,337.79,127.32,436.87h40.44S1664.28,802.92,1608.15,494Z" transform="translate(-1406.37 -405.13)"/><path class="cls-5" d="M1886.1,494s35,323-110.19,436.87L1747.08,929S1842,696.79,1886.1,494Z" transform="translate(-1406.37 -405.13)"/><path class="cls-6" d="M1581,521.61s26.86,296,146.41,394.75L1719.35,929S1496.37,766.87,1581,521.61Z" transform="translate(-1406.37 -405.13)"/><path class="cls-7" d="M1920,502.75c-13.9,69.22-68.32,317.53-152.31,421l27.21-7.38s103.75-164,125.1-377.15Z" transform="translate(-1406.37 -405.13)"/><path class="cls-8" d="M1767.71,484.55S1667,761,1719.35,929h27.73S1782.49,692.76,1767.71,484.55Z" transform="translate(-1406.37 -405.13)"/><path class="cls-9" d="M1719.35,929S1618.77,693,1727.41,405.13c0,0,5.37,406.47,8.06,525.7Z" transform="translate(-1406.37 -405.13)"/><path class="cls-10" d="M1747.08,929S1716.67,678,1801.29,471.12c0,0,37.61,315.4-43,457.92Z" transform="translate(-1406.37 -405.13)"/><path class="cls-11" d="M1920,520.19c-26.24,210.52-144.09,410.64-144.09,410.64,88.8-62.56,128-156.58,144.09-242.21Z" transform="translate(-1406.37 -405.13)"/><path class="cls-12" d="M1716.4,938.11s-188.16-111.86-252.81-288.32c0,0,44,49.48,85.8,86.3,53,46.67,224.55,204.18,224.55,204.18Z" transform="translate(-1406.37 -405.13)"/><path class="cls-13" d="M1920,793c-86.47,87.36-172.92,145.38-172.92,145.38l26.86,1.92s91.09-30,146.06-83Z" transform="translate(-1406.37 -405.13)"/><path class="cls-14" d="M1747.08,938.35s-123.22-17.21-340.71-124.46c0,0,106.94,106.29,310,124.22Z" transform="translate(-1406.37 -405.13)"/><path class="cls-15" d="M1920,885.82l-146.06,54.45s65.76-10.41,146.06-35.74Z" transform="translate(-1406.37 -405.13)"/><polygon class="cls-16" points="321.04 0 302.09 56.58 306.08 79.43 311.56 73.16 322.66 119.38 321.04 0"/><path class="cls-16" d="M1805.05,511.2,1785,569v34.25L1809.7,668S1807.66,556.21,1805.05,511.2Z" transform="translate(-1406.37 -405.13)"/><polygon class="cls-16" points="361.32 212.19 364.94 184.47 367.57 206.18 361.32 212.19"/><path class="cls-16" d="M1562.79,607.66l35.61,25.92-34.05-41.24,30,20.62-5.9-34.35-12.24-42.21S1563.53,571.31,1562.79,607.66Z" transform="translate(-1406.37 -405.13)"/><polygon class="cls-16" points="155.45 228.46 167.94 257.64 156.42 243.05 155.45 228.46"/><polygon class="cls-16" points="78.2 292.16 112.61 302.57 125 314.49 84.19 303.32 78.2 292.16"/><polygon class="cls-16" points="69.84 275.09 104.91 294.95 57.22 244.67 69.84 275.09"/><polygon class="cls-17" points="289.32 445.14 351.93 523.91 351.93 523.91 294.67 467.01 289.32 445.14"/><path class="cls-17" d="M1849.76,858.39s-62.39,54-91.45,70.65l99-81.32Z" transform="translate(-1406.37 -405.13)"/><polygon class="cls-18" points="303.17 543.07 291.34 477.25 223.66 451.54 166.42 529.21 142.23 520.8 109.15 543.07 303.17 543.07"/><polygon class="cls-19" points="223.66 451.54 233.95 536.02 303.17 543.07 291.34 477.25 223.66 451.54"/><polygon class="cls-20" points="223.66 451.54 291.34 477.25 274.45 453.08 223.66 451.54"/><polygon class="cls-20" points="142.23 520.8 144.67 523.43 156.38 536.02 192.29 542.36 166.42 529.21 142.23 520.8"/><polygon class="cls-21" points="195.7 489.49 230.36 506.51 233.41 531.58 189.93 497.31 195.7 489.49"/><polygon class="cls-21" points="210.7 469.13 226.79 477.25 225.8 469.13 214.19 464.39 210.7 469.13"/><polygon class="cls-22" points="296.64 506.75 210.7 469.13 195.7 489.49 230.36 506.51 298.55 517.37 296.64 506.75"/><polygon class="cls-23" points="214.19 464.39 227.87 486.1 267.66 468.25 223.66 451.54 214.19 464.39"/><polygon class="cls-24" points="223.66 479.42 242.76 479.42 227.87 486.1 223.66 479.42"/><polygon class="cls-25" points="273.52 514.25 278.78 520.8 299.17 520.8 298.55 517.37 273.52 514.25"/><polygon class="cls-25" points="270.77 495.42 273.52 494.17 286.35 502.24 270.77 495.42"/><polygon class="cls-26" points="513.63 400.07 470.31 378.14 374.16 395.6 332.04 542.28 513.63 540.38 513.63 400.07"/><polygon class="cls-19" points="513.63 452.8 436.91 447.5 374.16 395.6 402.49 527.66 405.22 421.29 460.46 542.07 513.63 541.22 513.63 452.8"/><polygon class="cls-20" points="513.63 400.07 470.31 378.14 374.16 395.6 436.91 447.5 513.63 452.8 513.63 400.07"/><polygon class="cls-21" points="403.41 491.85 452.15 523.88 434.73 485.8 404.37 454.5 403.41 491.85"/><polygon class="cls-22" points="513.63 515.03 452.15 523.88 402.94 510.25 398.76 510.25 343.51 502.32 339.28 517.07 400.22 517.07 403.41 520.5 455.53 531.28 513.63 523.75 513.63 515.03"/><polygon class="cls-27" points="513.63 523.75 455.53 531.28 403.41 520.5 339.28 517.07 335.2 531.28 402.49 527.66 460.46 542.07 513.63 538.09 513.63 523.75"/><polygon class="cls-23" points="405.22 421.29 468.54 449.68 434.73 485.8 405.22 421.29"/><polygon class="cls-24" points="455.53 443.85 484.42 450.78 464.93 453.55 455.53 443.85"/><polygon class="cls-25" points="513.63 505.12 497.56 517.35 513.63 515.03 513.63 505.12"/><polygon class="cls-25" points="488.31 518.68 484.42 513.95 473.95 517.35 469.97 521.32 488.31 518.68"/><polygon class="cls-25" points="513.63 483.49 504.56 476.86 498.71 482.46 513.63 483.6 513.63 483.49"/><polygon class="cls-28" points="327.43 543.07 303.17 530.03 250.51 543.07 327.43 543.07"/></g></g></svg>