<svg id="Layer_2" data-name="Layer 2" xmlns="http://www.w3.org/2000/svg" viewBox="0 0 332.23 88.09"><defs><style>.cls-1,.cls-4{fill:#fff;}.cls-2{fill:#efc807;}.cls-3{fill:#f28705;}.cls-4{font-size:48px;font-family:Poppins-SemiBold, Poppins;font-weight:600;}</style></defs><rect class="cls-1" width="88.09" height="88.09" rx="12"/><path class="cls-2" d="M49.79,233.28l-24-13.86a2,2,0,0,1-.65-2.83,29.77,29.77,0,0,1,24.67-13.1A29.77,29.77,0,0,1,49.79,233.28Z" transform="translate(-13.1 -196.35)"/><path class="cls-3" d="M76.58,246.29a29.8,29.8,0,0,0-26.79-42.8,29.77,29.77,0,0,1,0,29.79l24,13.87A2,2,0,0,0,76.58,246.29ZM60.4,224.83A5,5,0,1,1,67.18,223,5,5,0,0,1,60.4,224.83Z" transform="translate(-13.1 -196.35)"/><g id="body"><path class="cls-3" d="M89.17,264.21A29.79,29.79,0,0,1,37.7,234.5a2,2,0,0,1,2.79-.85l15.41,8.89a19.86,19.86,0,0,0,33.44,21.37C89.29,264,89.23,264.11,89.17,264.21Z" transform="translate(-13.1 -196.35)"/></g><path class="cls-2" d="M89.34,263.91h0A19.86,19.86,0,0,1,55.9,242.54l32.62,18.83A2,2,0,0,1,89.34,263.91Z" transform="translate(-13.1 -196.35)"/><path class="cls-2" d="M87.9,228.56h0a19.24,19.24,0,0,1-8.62.29,29.39,29.39,0,0,0-2.93-9.13,19.44,19.44,0,0,0,11.5,6.91A1,1,0,0,1,87.9,228.56Z" transform="translate(-13.1 -196.35)"/><text class="cls-4" transform="translate(115.66 58.99)">Zootopia</text></svg>