<svg id="Layer_2" data-name="Layer 2" xmlns="http://www.w3.org/2000/svg" xmlns:xlink="http://www.w3.org/1999/xlink" viewBox="0 0 328.97 88.09"><defs><style>.cls-1{fill:#fff;}.cls-2{fill:#efc807;}.cls-3{fill:#f28705;}.cls-4{fill:url(#linear-gradient);}</style><linearGradient id="linear-gradient" x1="131.16" y1="242.86" x2="342.07" y2="242.86" gradientUnits="userSpaceOnUse"><stop offset="0" stop-color="#efc807"/><stop offset="1" stop-color="#f28705"/></linearGradient></defs><rect class="cls-1" width="88.09" height="88.09" rx="12"/><path class="cls-2" d="M49.79,233.28l-24-13.86a2,2,0,0,1-.65-2.83,29.77,29.77,0,0,1,24.67-13.1A29.77,29.77,0,0,1,49.79,233.28Z" transform="translate(-13.1 -196.35)"/><path class="cls-3" d="M76.58,246.29a29.8,29.8,0,0,0-26.79-42.8,29.77,29.77,0,0,1,0,29.79l24,13.87A2,2,0,0,0,76.58,246.29ZM60.4,224.83A5,5,0,1,1,67.18,223,5,5,0,0,1,60.4,224.83Z" transform="translate(-13.1 -196.35)"/><g id="body"><path class="cls-3" d="M89.17,264.21A29.79,29.79,0,0,1,37.7,234.5a2,2,0,0,1,2.79-.85l15.41,8.89a19.86,19.86,0,0,0,33.44,21.37C89.29,264,89.23,264.11,89.17,264.21Z" transform="translate(-13.1 -196.35)"/></g><path class="cls-2" d="M89.34,263.91h0A19.86,19.86,0,0,1,55.9,242.54l32.62,18.83A2,2,0,0,1,89.34,263.91Z" transform="translate(-13.1 -196.35)"/><path class="cls-2" d="M87.9,228.56h0a19.24,19.24,0,0,1-8.62.29,29.39,29.39,0,0,0-2.93-9.13,19.44,19.44,0,0,0,11.5,6.91A1,1,0,0,1,87.9,228.56Z" transform="translate(-13.1 -196.35)"/><path class="cls-4" d="M154,227l-15.07,22.66H154v5.66H131.16v-5.18l15-22.66h-15v-5.67H154Zm17.52,28.75c-7.68,0-13.49-5.37-13.49-13.73s6-13.73,13.68-13.73S185.4,233.64,185.4,242,179.26,255.77,171.53,255.77Zm0-5.85c3.55,0,7-2.6,7-7.88s-3.31-7.87-6.86-7.87-6.77,2.55-6.77,7.87S167.93,249.92,171.53,249.92Zm30.62,5.85c-7.68,0-13.49-5.37-13.49-13.73s6-13.73,13.69-13.73S216,233.64,216,242,209.88,255.77,202.15,255.77Zm0-5.85c3.56,0,7-2.6,7-7.88s-3.31-7.87-6.86-7.87-6.77,2.55-6.77,7.87S198.55,249.92,202.15,249.92ZM222,234.27h-3.16v-5.52H222v-6.58h6.77v6.58h6v5.52h-6v12.86c0,1.78.72,2.55,2.83,2.55h3.13v5.66h-4.23c-5.09,0-8.5-2.16-8.5-8.26Zm29.38,21.5c-7.68,0-13.49-5.37-13.49-13.73s6-13.73,13.68-13.73,13.68,5.33,13.68,13.73S259.13,255.77,251.4,255.77Zm0-5.85c3.55,0,7-2.6,7-7.88s-3.31-7.87-6.86-7.87-6.77,2.55-6.77,7.87S247.8,249.92,251.4,249.92Zm34.32-21.61c6.82,0,12.15,5.33,12.15,13.64s-5.33,13.82-12.15,13.82a10.84,10.84,0,0,1-8.78-4.22V268h-6.73V228.75h6.73v3.84A10.6,10.6,0,0,1,285.72,228.31Zm-1.78,5.91c-3.6,0-7,2.78-7,7.82s3.4,7.83,7,7.83S291,247,291,242,287.59,234.22,283.94,234.22ZM302,221.64a4.13,4.13,0,1,1,4.13,3.94A3.94,3.94,0,0,1,302,221.64Zm.72,7.11h6.72v26.59h-6.72Zm23.76-.44a10.5,10.5,0,0,1,8.78,4.23v-3.79h6.77v26.59H335.3v-3.89a10.47,10.47,0,0,1-8.83,4.32c-6.72,0-12.1-5.52-12.1-13.82S319.75,228.31,326.52,228.31Zm1.73,5.91c-3.6,0-7,2.69-7,7.73s3.41,7.92,7,7.92,7.05-2.79,7.05-7.83S331.94,234.22,328.25,234.22Z" transform="translate(-13.1 -196.35)"/></svg>