<svg xmlns="http://www.w3.org/2000/svg" xmlns:xlink="http://www.w3.org/1999/xlink" viewBox="0 0 1169.46 824.92"><defs><style>.cls-1{isolation:isolate;}.cls-2{fill:#932f31;}.cls-10,.cls-11,.cls-12,.cls-13,.cls-14,.cls-15,.cls-16,.cls-17,.cls-18,.cls-19,.cls-2,.cls-20,.cls-21,.cls-22,.cls-23,.cls-24,.cls-25,.cls-26,.cls-27,.cls-28,.cls-29,.cls-3,.cls-30,.cls-31,.cls-32,.cls-33,.cls-34,.cls-35,.cls-36,.cls-37,.cls-4,.cls-5,.cls-6,.cls-7,.cls-8,.cls-9{fill-rule:evenodd;}.cls-3{fill:url(#Áåçûìÿííûé_ãðàäèåíò_83);}.cls-4{fill:url(#Áåçûìÿííûé_ãðàäèåíò_168);}.cls-5{fill:url(#Áåçûìÿííûé_ãðàäèåíò_56);}.cls-6{fill:url(#Áåçûìÿííûé_ãðàäèåíò_113);}.cls-7{fill:url(#Áåçûìÿííûé_ãðàäèåíò_113-2);}.cls-8{fill:url(#Áåçûìÿííûé_ãðàäèåíò_168-2);}.cls-9{fill:url(#Áåçûìÿííûé_ãðàäèåíò_56-2);}.cls-10{fill:url(#Áåçûìÿííûé_ãðàäèåíò_83-2);}.cls-11{fill:url(#Áåçûìÿííûé_ãðàäèåíò_83-3);}.cls-12{fill:url(#Áåçûìÿííûé_ãðàäèåíò_83-4);}.cls-13{fill:url(#Áåçûìÿííûé_ãðàäèåíò_113-3);}.cls-14{fill:url(#Áåçûìÿííûé_ãðàäèåíò_19);}.cls-15{fill:url(#Áåçûìÿííûé_ãðàäèåíò_56-3);}.cls-16{fill:url(#Áåçûìÿííûé_ãðàäèåíò_174);}.cls-17{fill:#9d3d3a;}.cls-18{fill:url(#Áåçûìÿííûé_ãðàäèåíò_71);}.cls-19{fill:#75272c;}.cls-20{fill:url(#Áåçûìÿííûé_ãðàäèåíò_78);}.cls-21{fill:#bd4c3a;}.cls-22,.cls-23{fill:#fff;}.cls-22,.cls-32{mix-blend-mode:soft-light;}.cls-24{fill:url(#Áåçûìÿííûé_ãðàäèåíò_34);}.cls-25{fill:#ff9f30;}.cls-26{fill:url(#Áåçûìÿííûé_ãðàäèåíò_71-2);}.cls-27{fill:url(#Áåçûìÿííûé_ãðàäèåíò_78-2);}.cls-28{fill:url(#Áåçûìÿííûé_ãðàäèåíò_34-2);}.cls-29{fill:url(#Áåçûìÿííûé_ãðàäèåíò_71-3);}.cls-30,.cls-31,.cls-33,.cls-34,.cls-35,.cls-36{mix-blend-mode:multiply;}.cls-30,.cls-31,.cls-34,.cls-35,.cls-36{opacity:0.6;}.cls-30{fill:url(#Áåçûìÿííûé_ãðàäèåíò_149);}.cls-31{fill:url(#Áåçûìÿííûé_ãðàäèåíò_149-2);}.cls-32{fill:#ffc763;}.cls-33{fill:#ce777c;opacity:0.8;}.cls-34{fill:url(#Áåçûìÿííûé_ãðàäèåíò_119);}.cls-35{fill:url(#Áåçûìÿííûé_ãðàäèåíò_119-2);}.cls-36{fill:url(#Áåçûìÿííûé_ãðàäèåíò_149-3);}.cls-37{fill:url(#Áåçûìÿííûé_ãðàäèåíò_113-4);}</style><radialGradient id="Áåçûìÿííûé_ãðàäèåíò_83" cx="596.07" cy="733.36" r="134.23" gradientTransform="translate(921.5)" gradientUnits="userSpaceOnUse"><stop offset="0.02" stop-color="#ffc772"/><stop offset="1" stop-color="#ffc381"/></radialGradient><linearGradient id="Áåçûìÿííûé_ãðàäèåíò_168" x1="-18.81" y1="493.12" x2="-18.81" y2="312.92" gradientTransform="translate(921.5)" gradientUnits="userSpaceOnUse"><stop offset="0.38" stop-color="#9a4327"/><stop offset="1" stop-color="#592930"/></linearGradient><radialGradient id="Áåçûìÿííûé_ãðàäèåíò_56" cx="-43.34" cy="420.71" r="60.89" gradientTransform="translate(921.5)" gradientUnits="userSpaceOnUse"><stop offset="0.02" stop-color="#ffc772"/><stop offset="1" stop-color="#ff9d48"/></radialGradient><radialGradient id="Áåçûìÿííûé_ãðàäèåíò_113" cx="676.2" cy="545.61" r="261.47" gradientTransform="translate(921.5)" gradientUnits="userSpaceOnUse"><stop offset="0.02" stop-color="#ff8e27"/><stop offset="1" stop-color="#ff6543"/></radialGradient><radialGradient id="Áåçûìÿííûé_ãðàäèåíò_113-2" cx="177.88" cy="457.51" r="304.43" xlink:href="#Áåçûìÿííûé_ãðàäèåíò_113"/><linearGradient id="Áåçûìÿííûé_ãðàäèåíò_168-2" x1="324.43" y1="444.98" x2="324.43" y2="252.39" xlink:href="#Áåçûìÿííûé_ãðàäèåíò_168"/><radialGradient id="Áåçûìÿííûé_ãðàäèåíò_56-2" cx="293.19" cy="353.7" r="70.09" xlink:href="#Áåçûìÿííûé_ãðàäèåíò_56"/><radialGradient id="Áåçûìÿííûé_ãðàäèåíò_83-2" cx="290.38" cy="409.33" r="59.37" xlink:href="#Áåçûìÿííûé_ãðàäèåíò_83"/><radialGradient id="Áåçûìÿííûé_ãðàäèåíò_83-3" cx="-51.99" cy="468.41" r="61" xlink:href="#Áåçûìÿííûé_ãðàäèåíò_83"/><radialGradient id="Áåçûìÿííûé_ãðàäèåíò_83-4" cx="167.94" cy="785.09" r="225.53" xlink:href="#Áåçûìÿííûé_ãðàäèåíò_83"/><radialGradient id="Áåçûìÿííûé_ãðàäèåíò_113-3" cx="932.72" cy="126.39" r="259.38" xlink:href="#Áåçûìÿííûé_ãðàäèåíò_113"/><linearGradient id="Áåçûìÿííûé_ãðàäèåíò_19" x1="747.57" y1="162.23" x2="947.46" y2="162.23" gradientTransform="translate(921.5)" gradientUnits="userSpaceOnUse"><stop offset="0.02" stop-color="#ffc772"/><stop offset="1" stop-color="#ffa252"/></linearGradient><radialGradient id="Áåçûìÿííûé_ãðàäèåíò_56-3" cx="-45.45" cy="592.34" r="97.11" xlink:href="#Áåçûìÿííûé_ãðàäèåíò_56"/><radialGradient id="Áåçûìÿííûé_ãðàäèåíò_174" cx="221.57" cy="586.08" r="113.98" gradientTransform="translate(921.5)" gradientUnits="userSpaceOnUse"><stop offset="0.02" stop-color="#ffec72"/><stop offset="1" stop-color="#ffbd8c"/></radialGradient><linearGradient id="Áåçûìÿííûé_ãðàäèåíò_71" x1="1899.78" y1="492.52" x2="1899.78" y2="333.05" gradientTransform="matrix(-0.97, 0.25, 0.25, 0.97, 2851.28, -261.89)" gradientUnits="userSpaceOnUse"><stop offset="0" stop-color="#fff"/><stop offset="0.98" stop-color="#fbc9ce"/></linearGradient><radialGradient id="Áåçûìÿííûé_ãðàäèåíò_78" cx="1750.06" cy="463.99" r="49.09" gradientTransform="matrix(-1.16, 0.3, 0.33, 1.26, 2986.61, -464.04)" gradientUnits="userSpaceOnUse"><stop offset="0.02" stop-color="#ffc710"/><stop offset="0.77" stop-color="#f70"/><stop offset="1" stop-color="#ae4b00"/></radialGradient><radialGradient id="Áåçûìÿííûé_ãðàäèåíò_34" cx="2022.62" cy="509.08" r="45.44" gradientTransform="matrix(-0.97, 0.24, 0.24, 0.97, 2802.26, -238.3)" gradientUnits="userSpaceOnUse"><stop offset="0.02" stop-color="#9a4327"/><stop offset="0.95" stop-color="#8b3b30"/></radialGradient><linearGradient id="Áåçûìÿííûé_ãðàäèåíò_71-2" x1="1911.62" y1="603.17" x2="1911.62" y2="485.25" gradientTransform="matrix(-1.07, 0.12, 0.14, 1.21, 2851.23, -256.97)" xlink:href="#Áåçûìÿííûé_ãðàäèåíò_71"/><radialGradient id="Áåçûìÿííûé_ãðàäèåíò_78-2" cx="2624.13" cy="561.81" r="49.09" gradientTransform="matrix(-0.67, 0.06, 0.1, 1.24, 2580.21, -174.62)" xlink:href="#Áåçûìÿííûé_ãðàäèåíò_78"/><radialGradient id="Áåçûìÿííûé_ãðàäèåíò_34-2" cx="70.75" cy="772.13" r="60.36" gradientTransform="translate(921.5)" xlink:href="#Áåçûìÿííûé_ãðàäèåíò_34"/><linearGradient id="Áåçûìÿííûé_ãðàäèåíò_71-3" x1="100.08" y1="803.68" x2="100.08" y2="757.98" gradientTransform="translate(921.5)" xlink:href="#Áåçûìÿííûé_ãðàäèåíò_71"/><linearGradient id="Áåçûìÿííûé_ãðàäèåíò_149" x1="-31.55" y1="816.94" x2="-31.55" y2="733.36" gradientTransform="translate(921.5)" gradientUnits="userSpaceOnUse"><stop offset="0.02" stop-color="#e08893"/><stop offset="1" stop-color="#fff2ef"/></linearGradient><linearGradient id="Áåçûìÿííûé_ãðàäèåíò_149-2" x1="107.44" y1="724.2" x2="107.44" y2="452.9" xlink:href="#Áåçûìÿííûé_ãðàäèåíò_149"/><linearGradient id="Áåçûìÿííûé_ãðàäèåíò_119" x1="337.44" y1="917.36" x2="337.44" y2="785.71" gradientTransform="translate(921.5)" gradientUnits="userSpaceOnUse"><stop offset="0.02" stop-color="#ac6393"/><stop offset="1" stop-color="#fff2ef"/></linearGradient><linearGradient id="Áåçûìÿííûé_ãðàäèåíò_119-2" x1="783.56" y1="893.79" x2="783.56" y2="780.17" xlink:href="#Áåçûìÿííûé_ãðàäèåíò_119"/><linearGradient id="Áåçûìÿííûé_ãðàäèåíò_149-3" x1="250.66" y1="862.96" x2="250.66" y2="741.58" xlink:href="#Áåçûìÿííûé_ãðàäèåíò_149"/><radialGradient id="Áåçûìÿííûé_ãðàäèåíò_113-4" cx="-58.14" cy="842.7" r="48.41" xlink:href="#Áåçûìÿííûé_ãðàäèåíò_113"/></defs><g class="cls-1"><g id="Layer_2" data-name="Layer 2"><path class="cls-2" d="M935.52,816.12s-99.88-7.9-121.25,1.64-12.75,81.39-12.75,81.39h378.15L1316.23,778.2Z" transform="translate(-750.54 -92.44)"/><path class="cls-2" d="M1541.52,849.32s-6.31,19.82,7.66,33l95.6-2.47,70-47.26-72.27-179.21-46.93-14Z" transform="translate(-750.54 -92.44)"/><path class="cls-3" d="M1398.73,874.82s53,9.53,132-20.89,110.15-106.86,110.15-106.86,14-141.41-37.81-155.79-210.45,170.58-210.45,170.58Z" transform="translate(-750.54 -92.44)"/><path class="cls-4" d="M973,379.24s-8.81-55.12-30.19-64.16-101,9.42-109.23,73.14,28.22,104.9,28.22,104.9Z" transform="translate(-750.54 -92.44)"/><path class="cls-5" d="M924.75,411.66s-15.54-55.88-55-63-57.82,82.65-8,144.43Z" transform="translate(-750.54 -92.44)"/><path class="cls-6" d="M1737.86,882.67c-20.57,16.47-86.3,9.77-86.3,9.77s-13.6-19.07-8.66-32.35,30-45.62,27.53-58.37-32.86-18.1-47.7-49.33-16-113.44-16-113.44-73,100.75-171.61,146.17a3.66,3.66,0,0,0-.13.59c-1.11,7.42-13.8,82.71-58.19,108.09-46.66,26.75-286.67,23.43-286.67,23.43s-19.78-49.33,6.12-70.28c0,0,28.37-3.71,137.71-33.33S1376.79,639,1376.79,639s40.48.39,82.4-30.07,65.73-73.15,122.47-89.61,113.44,4.62,148.78,59.87,10.67,153.91,17.24,171.94c4.23,11.65,11.2,21.21,15.88,29v.06c2.54,4.3,4.43,8.07,4.69,11.26C1769.09,800.48,1758.42,866.27,1737.86,882.67Z" transform="translate(-750.54 -92.44)"/><path class="cls-7" d="M1429.7,714.57l-31,6.19s-56.3,51.8-136.87,83-181.24,18.87-207.53,23.82-83,35.34-83,35.34-41.92-27.53-46.86-46c0,0-90.85-4.1-144.28-85.51l-29.61,9.89s56.75-48.48,79.78-121.7S857.46,496,869.76,469.23C890,425,1012,344.27,1070.34,341.8l-16.47-22.19s156.19,43.6,211.7,96S1352.19,639.41,1429.7,714.57Z" transform="translate(-750.54 -92.44)"/><path class="cls-8" d="M1281.45,441s50.71-68.14,42.7-121.37-79.33-81.19-123.11-60.22-33,100.19-33,100.19,45.35,72.35,64.26,81.4S1281.45,441,1281.45,441Z" transform="translate(-750.54 -92.44)"/><path class="cls-9" d="M1168,359.57s-5.41-85.19,34.67-92.58,64.12,54.87,58,101.73S1232.28,441,1232.28,441,1220.28,446,1168,359.57Z" transform="translate(-750.54 -92.44)"/><path class="cls-10" d="M1168,359.57s32.2-29.7,58.1-19.83S1255.71,410,1255.71,410l-33.91-36.14s35.14,50.32,33.91,107.05C1255.71,480.93,1184.52,424.42,1168,359.57Z" transform="translate(-750.54 -92.44)"/><path class="cls-11" d="M924.75,411.66s-76-28.76-110.48,13.78l70.9,4.93s-45.54,12.95-53.6,38.23,20.81,66.08,20.81,66.08,8.74-45.74,17.37-65.47S924.75,411.66,924.75,411.66Z" transform="translate(-750.54 -92.44)"/><path class="cls-12" d="M1398.73,720.76c-.46.45-1,.91-1.44,1.3-3.18,2.8-11.45,9.89-23.81,19.2-.13.13-.33.19-.46.32-24,17.9-63.32,43.67-111.16,62.22-80.56,31.24-181.24,18.87-207.53,23.82s-83,35.34-83,35.34-41.92-27.53-46.86-46c0,0-90.85-4.1-144.28-85.51,90.46,16.86,108.74-2,108.74-2,66.58.59,124.37-22.19,124.37-22.19C1228.28,756.55,1398.73,720.76,1398.73,720.76Z" transform="translate(-750.54 -92.44)"/><path class="cls-13" d="M1920,208.14c-12.21-28.42-32-51-55.24-68.41a212.68,212.68,0,0,0-18.35-12.3c-34.49-20.5-73.93-31.5-107.77-34.69-78.1-7.42-107.65,126.58,3.32,120.79,34.36-1.76,56.68,5.92,70.48,18.48h.06c30.65,28,18.61,80.11,1,105.69-37.94,55.19-142.2,49.33-171,93.71-3,4.69-5.79,9.38-8.13,13.87-17.38,32.93-18.35,60.06-18.29,67a15.75,15.75,0,0,0,.07,1.69,9.11,9.11,0,0,0,1.43.72c21.34,11,51.15,9.7,51.15,9.7,6.57-32.8,24.73-65.8,141.42-83.3,56.47-8.46,92.23-51.13,109.84-98.08Z" transform="translate(-750.54 -92.44)"/><path class="cls-14" d="M1812.5,232h-.06c-13.8-12.56-36.12-20.24-70.48-18.48-111,5.79-81.42-128.21-3.32-120.79,33.84,3.19,73.28,14.19,107.77,34.69l18.35,12.3C1886.76,224.07,1815.36,231.75,1812.5,232Z" transform="translate(-750.54 -92.44)"/><path class="cls-15" d="M817,678.53c2.66,18.92,50.08,42.1,72.75,37.11,16.78-3.7,44.7-11.53,45.32-73.8s-29.29-170.52-51.79-173.43-27.44,89.28-38.84,131.51S815.82,669.88,817,678.53Z" transform="translate(-750.54 -92.44)"/><path class="cls-16" d="M1050.45,544.23c-18.68,17.63-26.39,109.49-3.13,134.24,35.58,37.85,173.12,30.65,198.61-4.7s-21-190.13-58-202.46-60.83,17.48-83.85,37.1S1065.26,530.25,1050.45,544.23Z" transform="translate(-750.54 -92.44)"/><path class="cls-17" d="M1033.11,603.57s2.7-41.06,24.28-58.93,47.27-18.86,66.69-34.74c11.65-9.52,28.52-34,53-37,26.51-3.24,52.41,59.27,52.41,59.27s-15.65-67.57-58-71.29c-24.56-2.16-47.28,32.8-77.37,53s-39.77,18.5-52.1,37.3S1033.11,603.57,1033.11,603.57Z" transform="translate(-750.54 -92.44)"/><path class="cls-17" d="M844.48,599.92s19.58-112.52,37.81-115.09c27.75-3.9,48.3,88.37,52.82,157,0,0,0-168.11-51.79-173.43C872.53,467.31,859.89,486.06,844.48,599.92Z" transform="translate(-750.54 -92.44)"/><path class="cls-18" d="M1194.89,630.76c-3.23-33.86-28.62-73.64-67.37-85.22s-67.94,8.87-77.17,29.93-10.06,84.55,29.42,112.24C1114.44,712,1200.88,693.63,1194.89,630.76Z" transform="translate(-750.54 -92.44)"/><path class="cls-19" d="M1194.89,630.76s1.25-50-44.78-84.93S1049.85,542,1046,593.38c0,0,3.37-38.75,50.1-49.31C1140.13,534.12,1184.3,577.16,1194.89,630.76Z" transform="translate(-750.54 -92.44)"/><path class="cls-20" d="M1052.89,629.36c8.93,34,41.59,55,73,46.76s49.58-42.49,40.65-76.53-41.59-55-73-46.76S1044,595.32,1052.89,629.36Z" transform="translate(-750.54 -92.44)"/><path class="cls-19" d="M1054,631.11c8.08,30.8,37.63,49.74,66,42.3s44.85-38.44,36.78-69.25-37.63-49.74-66-42.3S1046,600.3,1054,631.11Z" transform="translate(-750.54 -92.44)"/><path class="cls-21" d="M1191.79,656.12s-7.73,30.8-51.26,43.5-72.6-22.51-72.6-22.51,26.55,27.07,68.71,19.5S1191.79,656.12,1191.79,656.12Z" transform="translate(-750.54 -92.44)"/><path class="cls-22" d="M1162.35,683.28s-13.66-33.84-33.4-39.15a118,118,0,0,1-31.38,13.17l11.33,39.83S1142.05,712.09,1162.35,683.28Z" transform="translate(-750.54 -92.44)"/><path class="cls-23" d="M1140.94,607.34a12.43,12.43,0,1,0,8.87-15.17A12.43,12.43,0,0,0,1140.94,607.34Z" transform="translate(-750.54 -92.44)"/><path class="cls-24" d="M1012.24,725.08s5.11-7.06,1.26-13.69c0,0-72.49,18.09-121.64,16.07,0,0,11.76,19.76,31.16,30.52l14.73-1.44s20.17-23.61,62.3-24.34Z" transform="translate(-750.54 -92.44)"/><path class="cls-25" d="M1014.73,711.91l10.48-11.24s-30.74-40-89.55-20.79c0,0-34.09,32.14-42.57,48.1C893.09,728,951.26,732.5,1014.73,711.91Z" transform="translate(-750.54 -92.44)"/><path class="cls-19" d="M1014.73,711.91a323.62,323.62,0,0,1-75.42,19.18c-41.25,5-47.45-3.63-47.45-3.63S939.54,730.17,1014.73,711.91Z" transform="translate(-750.54 -92.44)"/><path class="cls-19" d="M1000.05,732.2s-38.16-6.57-62.3,24.34C937.75,756.54,962.58,732,1000.05,732.2Z" transform="translate(-750.54 -92.44)"/><path class="cls-26" d="M898.18,706.21a6.71,6.71,0,0,0,1.1-.42h.07c9.19-3.24,16.15-9.65,21.07-18.07,9.61-16.23,11.88-39.83,8.89-62.89a148.5,148.5,0,0,0-2.82-15.52c-3.49-14.57-8.73-24.87-14.61-31.89-7.17-8.69-15.31-12.47-22.3-13.48C875,561.84,857.71,588,853.49,630.19S870.34,715.25,898.18,706.21Z" transform="translate(-750.54 -92.44)"/><path class="cls-19" d="M928.74,664.27s5.22-60.14-19.85-87.54S858,590.58,855.47,616.06c0,0,8.56-50.31,29.53-61.24C885,554.82,939.1,556.19,928.74,664.27Z" transform="translate(-750.54 -92.44)"/><path class="cls-27" d="M856.47,634c2.77,33.53,19.66,59.5,37.73,58s30.45-29.89,27.68-63.42-19.66-59.5-37.73-58S853.7,600.44,856.47,634Z" transform="translate(-750.54 -92.44)"/><path class="cls-19" d="M856,633.66c2.47,29.83,17.5,52.94,33.57,51.61s27.1-26.59,24.63-56.43-17.49-52.94-33.57-51.61S853.52,603.82,856,633.66Z" transform="translate(-750.54 -92.44)"/><path class="cls-23" d="M908.65,632.83a8.18,8.18,0,1,0,5.84-10A8.19,8.19,0,0,0,908.65,632.83Z" transform="translate(-750.54 -92.44)"/><path class="cls-22" d="M903.82,702.38l-21.27-26.47,7.24-11.41,35,8.94S922.16,696,903.82,702.38Z" transform="translate(-750.54 -92.44)"/><path class="cls-28" d="M916.57,799.68s21.58-9,52.33-9.87,46.28-6.57,63.79-14.38S1064,732.66,1064,732.66l3.93,2s-22.26,73.21-46.92,76.5S984.84,796.6,962,796,922,807.49,922,807.49,916.31,807.28,916.57,799.68Z" transform="translate(-750.54 -92.44)"/><path class="cls-21" d="M1049.78,731.62a57.51,57.51,0,0,1,40.34,17.09,31.8,31.8,0,0,0-15.26-22C1061.29,718.91,1049.78,731.62,1049.78,731.62Z" transform="translate(-750.54 -92.44)"/><path class="cls-29" d="M988.44,792.28s32.38-4.21,44.46-11.45c16.88-10.13,21.82-22.85,21.82-22.85s-9.47,30.76-26.31,42.11S988.44,792.28,988.44,792.28Z" transform="translate(-750.54 -92.44)"/><path class="cls-30" d="M893.09,733.36s-24,46.58,19.21,70.32l9.66,3.81,2.47,9.45s-32.69-1.76-69-19.53C855.47,797.41,861.56,754,893.09,733.36Z" transform="translate(-750.54 -92.44)"/><path class="cls-31" d="M956,686.7s38.58,38.54,68.66,37.48,62-30.74,71.69-51.61,14-165.29-52.46-219.67c0,0-9,1.31-15.53,16.31S991.93,642.53,956,686.7Z" transform="translate(-750.54 -92.44)"/><path class="cls-17" d="M1070.34,341.8s-86.13,58.49-97.18,222c0,0-26.07-80.69,6.37-188.35C979.53,375.46,1039.1,332.76,1070.34,341.8Z" transform="translate(-750.54 -92.44)"/><path class="cls-17" d="M1110.74,337.73s-81.31,41.47-94,162.92c0,0,79.33-109.9,145.56-143.42Z" transform="translate(-750.54 -92.44)"/><path class="cls-17" d="M953.47,391.36s-21.16,39.63-10.2,98.81c0,0-31.89-39.3-27.42-71C915.85,419.19,942.24,394.28,953.47,391.36Z" transform="translate(-750.54 -92.44)"/><path class="cls-32" d="M905.93,436.33S911,447.19,987.31,445s162.77-65,162.77-65-35-41.93-117.39-21.37-130,81.56-130,81.56Z" transform="translate(-750.54 -92.44)"/><path class="cls-17" d="M1349,579.33s.85,53.88-46,90-97.83,48.48-152.9,42.53c0,0,81.15,12,136.09-55.79s26.5-163,26.5-163Z" transform="translate(-750.54 -92.44)"/><path class="cls-17" d="M1365.24,615.68s12.47,42.92-16.26,74.41-210.5,37.74-210.5,37.74,146.78,15.12,260.25-7.07l35.13-4.44S1386.4,676.66,1365.24,615.68Z" transform="translate(-750.54 -92.44)"/><path class="cls-33" d="M1484.79,868.22s-10.5-70.6-49.81-119.51c0,0,4.3,66.23-36.25,126.11C1398.73,874.82,1437.66,880,1484.79,868.22Z" transform="translate(-750.54 -92.44)"/><path class="cls-33" d="M1920,321.74c-14.65,33.3-46.21,74.74-114.75,103.9-133.15,56.75-170.87,19.64-170.87,19.64-17.38,32.93-18.35,60.06-18.29,67l1.5,2.41c21.34,11,51.15,9.7,51.15,9.7,6.57-32.8,24.73-65.8,141.42-83.3,56.47-8.46,92.23-51.13,109.84-98.08Z" transform="translate(-750.54 -92.44)"/><path class="cls-17" d="M1408.58,633.73s56.14,12,84.5,64.33c0,0,9.57-41.95-43.92-82.38C1449.16,615.68,1422.17,630.51,1408.58,633.73Z" transform="translate(-750.54 -92.44)"/><path class="cls-17" d="M1468.87,601.47s29.76,13,37.77,37.47c0,0,4.22-37.88-8.53-64.19C1498.11,574.75,1478.56,594,1468.87,601.47Z" transform="translate(-750.54 -92.44)"/><path class="cls-17" d="M1514.32,559.42s39.18-5.13,71.24,67c0,0,4.18-65-35.62-93.65C1549.94,532.78,1530.52,544.09,1514.32,559.42Z" transform="translate(-750.54 -92.44)"/><path class="cls-17" d="M1184.1,826.81s80.65,10,105.31,49.16c0,0,4.24-31.51-48.64-64.38Z" transform="translate(-750.54 -92.44)"/><path class="cls-17" d="M1295.92,788.82s37.47,23.56,42.82,74.14c0,0,14.43-47.59-7.79-93.25Z" transform="translate(-750.54 -92.44)"/><path class="cls-17" d="M1349.57,758s44.24-5.58,66.44,20.22c0,0-6.36-32.53-25.68-50.22Z" transform="translate(-750.54 -92.44)"/><path class="cls-17" d="M1741.54,603.23s-26.8,79.24-126.7,103c0,0,101.42-11,134.71-55.6C1749.55,650.65,1748.19,619.46,1741.54,603.23Z" transform="translate(-750.54 -92.44)"/><path class="cls-17" d="M1749.84,679.25s-4.44,37.19-54.15,61.24c0,0,38.35-1.61,51.81-20.69Z" transform="translate(-750.54 -92.44)"/><path class="cls-17" d="M1642.51,431.41s57.11-18.1,85.06,8.62c0,0-.92-25.73-54.1-33C1673.47,407,1653.13,412.66,1642.51,431.41Z" transform="translate(-750.54 -92.44)"/><path class="cls-17" d="M1746.09,381.42s30.8.65,40.67,45.46c0,0,25.07-28.26,0-64.28C1786.76,362.6,1759.28,381.58,1746.09,381.42Z" transform="translate(-750.54 -92.44)"/><path class="cls-17" d="M1799.69,353s51.54-3.54,76.85,56.35c0,0,24.53-52.17-51.23-95.72C1825.31,313.61,1812.63,343.35,1799.69,353Z" transform="translate(-750.54 -92.44)"/><path class="cls-17" d="M1920,265.16c-6-6-36.16-32.22-103.16-28.68,0,0,12.55,13.28,13.47,29.9,0,0,28.84-25.73,89.69-.47Z" transform="translate(-750.54 -92.44)"/><path class="cls-32" d="M1621.15,604.19c-24.47,14.91-14.46,118.34,16.9,148.9s77.39-17.3,89.52-50.71S1690,562.22,1621.15,604.19Z" transform="translate(-750.54 -92.44)"/><path class="cls-21" d="M1143.06,917.23s-4.6-44.94,7-54.27,45.1,0,45.1,0-34.13-4.62-43,6.39S1143.06,917.23,1143.06,917.23Z" transform="translate(-750.54 -92.44)"/><path class="cls-21" d="M1104.47,917.23s-18-41.52-6.9-58.42,38.22-15,38.22-15-26.24.14-35.31,19.18S1104.47,917.23,1104.47,917.23Z" transform="translate(-750.54 -92.44)"/><path class="cls-34" d="M1435,785.71c-1.11,7.42-13.8,82.71-58.19,108.09-46.66,26.75-286.67,23.43-286.67,23.43s-19.78-49.33,6.12-70.28c0,0,0,21.15,53.82,35.33s187.49,36.12,229.6-6C1419.1,836.66,1433.35,791.24,1435,785.71Z" transform="translate(-750.54 -92.44)"/><path class="cls-21" d="M1659.48,893.06s-7.33-21.86-3.33-33.27a53,53,0,0,1,12.28-19.11S1656.34,858.21,1659.48,893.06Z" transform="translate(-750.54 -92.44)"/><path class="cls-21" d="M1711,891.91s-13.84-12.41-13.53-25,7.6-27.72,7.6-27.72-11.4,31.84,12.23,51.67Z" transform="translate(-750.54 -92.44)"/><path class="cls-35" d="M1737.86,882.67c-20.57,16.47-86.3,9.77-86.3,9.77s-13.6-19.07-8.66-32.35c0,0,41.33,12.95,80.12-8,30-16.21,38.33-55.06,40.54-71.92,2.54,4.3,4.43,8.07,4.69,11.26C1769.09,800.48,1758.42,866.27,1737.86,882.67Z" transform="translate(-750.54 -92.44)"/><path class="cls-32" d="M1096.24,847s19.53,22.7,87.86,29,123.19-39.52,128.33-52.86-21.37-22.82-35.35-19.43S1180,831.64,1096.24,847Z" transform="translate(-750.54 -92.44)"/><path class="cls-32" d="M1642.9,860.09s40.74,11.41,74.39-6.16,40-55,39.67-58.41-52.87-8.33-70.29,0S1642.9,860.09,1642.9,860.09Z" transform="translate(-750.54 -92.44)"/><path class="cls-32" d="M1920,209c-24.82-39.21-125.27-138.41-221.93-102.51-30.46,11.32-8.35,56.45,75.2,81.58,73.14,22,128.6,41.15,146.73,38.14Z" transform="translate(-750.54 -92.44)"/><path class="cls-36" d="M1373,741.58c-24,17.9-63.32,43.67-111.16,62.22-80.56,31.24-181.24,18.87-207.53,23.82s-83,35.34-83,35.34,62.08-47.84,111.61-55.91C1128.06,799.76,1278.92,805.75,1373,741.58Z" transform="translate(-750.54 -92.44)"/><path class="cls-37" d="M813.13,823.78s42.65-3,71.86,11.23,39.44,64.14,39.44,64.14H801.33S790.86,837.67,813.13,823.78Z" transform="translate(-750.54 -92.44)"/><path class="cls-21" d="M883.08,898.27S871.58,843.57,885,835C885,835,862,846.39,883.08,898.27Z" transform="translate(-750.54 -92.44)"/><path class="cls-21" d="M821.88,899.15s-11.29-49.31,0-64.14,29.41-12,29.41-12-29.6-4.19-38,14.27,5.52,61.86,5.52,61.86Z" transform="translate(-750.54 -92.44)"/><path class="cls-21" d="M1627.46,771.8s-30.61-57.64-20.74-132.85c0,0-.66,82.14,24.42,126.86Z" transform="translate(-750.54 -92.44)"/><path class="cls-21" d="M1634.75,520.84s89.87,32.92,110.46,94.84c0,0-9.52-60-76.47-91.33C1668.74,524.35,1648,525.2,1634.75,520.84Z" transform="translate(-750.54 -92.44)"/><path class="cls-21" d="M1398.73,874.82s61.67.38,121.78-21.19,90.76-59.4,90.76-59.4S1554.69,885.85,1398.73,874.82Z" transform="translate(-750.54 -92.44)"/><path class="cls-23" d="M951.12,723.84s32.32-16.48,44.12-7.52C995.24,716.32,978.44,725.63,951.12,723.84Z" transform="translate(-750.54 -92.44)"/><path class="cls-22" d="M899.3,733.36s6.16,13.6,23.12,23.18C922.42,756.54,925.5,741.74,899.3,733.36Z" transform="translate(-750.54 -92.44)"/><path class="cls-32" d="M1395.32,636.9s31.32,12.86,98.42-14.88,97.06-84.77,92-89.24-33.21-7.37-59.44,16.38S1460.69,633.78,1395.32,636.9Z" transform="translate(-750.54 -92.44)"/></g></g></svg>